<svg width="11" height="12" viewBox="0 0 11 12" fill="none" xmlns="http://www.w3.org/2000/svg">
<path d="M5.49997 12L10.2071 7.44998C10.3 7.36023 10.3736 7.25368 10.4239 7.13642C10.4741 7.01916 10.5 6.89348 10.5 6.76655C10.5 6.63963 10.4741 6.51395 10.4239 6.39669C10.3736 6.27943 10.3 6.17288 10.2071 6.08313C10.1143 5.99338 10.0041 5.92219 9.88275 5.87362C9.76144 5.82505 9.63142 5.80005 9.50011 5.80005C9.36881 5.80005 9.23879 5.82505 9.11748 5.87362C8.99616 5.92219 8.88594 5.99338 8.79309 6.08313L6.5 8.29966L6.50001 0.966651C6.50001 0.71028 6.39464 0.464407 6.2071 0.283125C6.01956 0.101843 5.76519 6.29072e-08 5.49997 3.97204e-08C5.23474 1.65336e-08 4.98038 0.101843 4.79284 0.283125C4.60529 0.464407 4.49993 0.710279 4.49993 0.966651L4.49993 8.29966L2.20685 6.08313C2.11419 5.99305 2.00403 5.92157 1.88269 5.87279C1.76135 5.82401 1.63123 5.7989 1.49982 5.7989C1.36841 5.7989 1.23829 5.82401 1.11696 5.87279C0.995617 5.92157 0.885452 5.99305 0.792796 6.08313C0.605318 6.26441 0.5 6.51023 0.5 6.76655C0.499999 7.02287 0.605318 7.2687 0.792796 7.44997L5.49997 12Z" fill="#3F98FF"/>
</svg>
