<svg width="340" height="76" viewBox="0 0 340 76" fill="none" xmlns="http://www.w3.org/2000/svg">
<g filter="url(#filter0_i_54_47)">
<g clip-path="url(#clip0_54_47)">
<rect width="340" height="76" rx="8" fill="#0A0A13"/>
<rect width="340" height="76" rx="8" fill="url(#paint0_radial_54_47)" fill-opacity="0.2"/>
<rect width="340" height="76" rx="8" fill="url(#paint1_radial_54_47)" fill-opacity="0.2"/>
<g filter="url(#filter1_ii_54_47)">
<path d="M315.193 7.25082C314.823 7.35517 315.048 6.4192 314.417 7.01447C314.116 7.25237 313.622 8.30211 313.435 8.63733C313.247 8.97256 313.128 9.34145 313.083 9.72294C313.038 10.1044 313.068 10.491 313.173 10.8607L314.445 15.3639C314.628 16.0106 315.028 16.5746 315.577 16.9612C316.127 17.3478 316.793 17.5333 317.463 17.4867C318.133 17.44 318.767 17.1639 319.258 16.7049C319.627 16.3595 319.898 15.9262 320.049 15.4492C320.139 15.1622 320.345 14.9133 320.634 14.8315V14.8315C321.057 14.7121 321.492 14.9765 321.581 15.4067L323.735 25.8171C323.826 26.2563 324.006 26.6721 324.265 27.0385C324.524 27.4049 324.855 27.7142 325.239 27.9469C325.622 28.1797 326.049 28.331 326.494 28.3914C326.938 28.4519 327.39 28.4202 327.822 28.2982C328.254 28.1763 328.656 27.9669 329.003 27.6828C329.35 27.3988 329.635 27.0464 329.84 26.6474C330.045 26.2485 330.652 25.3308 330.681 24.8832C330.71 24.4355 330.16 24.4675 330.008 24.0456L326.397 14.0463C326.248 13.6333 326.481 13.1806 326.904 13.0615V13.0615C327.193 12.98 327.498 13.0848 327.725 13.2821C328.103 13.6106 328.561 13.8384 329.057 13.94C329.716 14.0748 330.401 13.9785 330.997 13.6674C331.593 13.3563 332.063 12.8493 332.329 12.2318C332.818 11.3591 333.2 10.8525 333.017 10.2056L331.186 5.77356C331.004 5.12693 330.604 4.56289 330.054 4.1763C329.505 3.78971 328.839 3.60415 328.169 3.65082C327.498 3.69749 326.865 3.97354 326.374 4.43256C326.064 4.72232 325.823 5.07383 325.665 5.46112C325.495 5.87555 325.196 6.24993 324.765 6.37162L318.96 8.01085C318.529 8.13256 318.078 7.97018 317.717 7.70557C317.46 7.51729 317.172 7.3713 316.865 7.27482C316.322 7.10422 315.741 7.09588 315.193 7.25082Z" fill="url(#paint2_radial_54_47)"/>
<path d="M315.193 7.25082C314.823 7.35517 315.048 6.4192 314.417 7.01447C314.116 7.25237 313.622 8.30211 313.435 8.63733C313.247 8.97256 313.128 9.34145 313.083 9.72294C313.038 10.1044 313.068 10.491 313.173 10.8607L314.445 15.3639C314.628 16.0106 315.028 16.5746 315.577 16.9612C316.127 17.3478 316.793 17.5333 317.463 17.4867C318.133 17.44 318.767 17.1639 319.258 16.7049C319.627 16.3595 319.898 15.9262 320.049 15.4492C320.139 15.1622 320.345 14.9133 320.634 14.8315V14.8315C321.057 14.7121 321.492 14.9765 321.581 15.4067L323.735 25.8171C323.826 26.2563 324.006 26.6721 324.265 27.0385C324.524 27.4049 324.855 27.7142 325.239 27.9469C325.622 28.1797 326.049 28.331 326.494 28.3914C326.938 28.4519 327.39 28.4202 327.822 28.2982C328.254 28.1763 328.656 27.9669 329.003 27.6828C329.35 27.3988 329.635 27.0464 329.84 26.6474C330.045 26.2485 330.652 25.3308 330.681 24.8832C330.71 24.4355 330.16 24.4675 330.008 24.0456L326.397 14.0463C326.248 13.6333 326.481 13.1806 326.904 13.0615V13.0615C327.193 12.98 327.498 13.0848 327.725 13.2821C328.103 13.6106 328.561 13.8384 329.057 13.94C329.716 14.0748 330.401 13.9785 330.997 13.6674C331.593 13.3563 332.063 12.8493 332.329 12.2318C332.818 11.3591 333.2 10.8525 333.017 10.2056L331.186 5.77356C331.004 5.12693 330.604 4.56289 330.054 4.1763C329.505 3.78971 328.839 3.60415 328.169 3.65082C327.498 3.69749 326.865 3.97354 326.374 4.43256C326.064 4.72232 325.823 5.07383 325.665 5.46112C325.495 5.87555 325.196 6.24993 324.765 6.37162L318.96 8.01085C318.529 8.13256 318.078 7.97018 317.717 7.70557C317.46 7.51729 317.172 7.3713 316.865 7.27482C316.322 7.10422 315.741 7.09588 315.193 7.25082Z" fill="url(#paint3_linear_54_47)" fill-opacity="0.4" style="mix-blend-mode:overlay"/>
</g>
<path d="M315.231 7.38628L315.231 7.38626C315.752 7.23878 316.306 7.24672 316.823 7.40911C317.115 7.50094 317.389 7.63991 317.633 7.81913C318.013 8.09711 318.509 8.28446 318.998 8.14631L324.803 6.50708C325.292 6.36895 325.617 5.94978 325.795 5.51441C325.946 5.14575 326.175 4.81116 326.47 4.53535C326.937 4.09843 327.54 3.83566 328.178 3.79124C328.816 3.74681 329.45 3.92344 329.973 4.29143C330.497 4.65941 330.877 5.1963 331.051 5.81182L331.053 5.81971L331.056 5.82729L332.883 10.2516C332.961 10.5317 332.92 10.7842 332.795 11.0793C332.703 11.2989 332.569 11.5305 332.409 11.808C332.345 11.9184 332.278 12.0361 332.207 12.1631L332.203 12.1695L332.2 12.1761C331.947 12.7639 331.499 13.2465 330.932 13.5426C330.364 13.8387 329.712 13.9304 329.085 13.8021C328.613 13.7054 328.177 13.4885 327.817 13.1759C327.565 12.9565 327.212 12.8283 326.866 12.926C326.364 13.0673 326.088 13.6042 326.265 14.0941L329.875 24.0933C329.875 24.0933 329.875 24.0933 329.875 24.0934C329.962 24.3323 330.154 24.4557 330.293 24.545C330.307 24.5544 330.321 24.5635 330.335 24.5723C330.411 24.6224 330.463 24.6621 330.497 24.7072C330.526 24.7463 330.546 24.7949 330.54 24.8741C330.535 24.9623 330.499 25.0863 330.436 25.2378C330.375 25.3866 330.292 25.5509 330.203 25.7167C330.113 25.8822 330.018 26.0466 329.932 26.196L329.93 26.1993C329.845 26.3459 329.768 26.4803 329.715 26.5831C329.519 26.9648 329.246 27.3021 328.914 27.5739C328.581 27.8457 328.197 28.0461 327.784 28.1628C327.371 28.2794 326.938 28.3098 326.513 28.252C326.087 28.1941 325.679 28.0493 325.312 27.8266C324.945 27.6039 324.628 27.308 324.38 26.9573C324.132 26.6067 323.96 26.2088 323.873 25.7885L321.719 15.3782C321.614 14.868 321.097 14.5545 320.596 14.6961C320.249 14.7941 320.015 15.0877 319.915 15.4069C319.771 15.8609 319.513 16.2733 319.162 16.6021C318.694 17.0391 318.091 17.3018 317.453 17.3462C316.815 17.3907 316.181 17.214 315.658 16.8461C315.135 16.4781 314.754 15.9412 314.581 15.3257L314.581 15.3256L313.308 10.8224C313.209 10.4706 313.18 10.1026 313.222 9.73943C313.265 9.3763 313.379 9.02516 313.558 8.70607C313.6 8.63044 313.657 8.52028 313.722 8.39482C313.731 8.37702 313.741 8.35891 313.75 8.34055C313.827 8.19137 313.915 8.02272 314.007 7.85745C314.098 7.69188 314.192 7.5318 314.28 7.39946C314.371 7.26349 314.448 7.16965 314.505 7.12499L314.505 7.12542L314.514 7.11684C314.589 7.0465 314.645 7.00405 314.687 6.98003C314.719 6.96168 314.737 6.95712 314.744 6.95599C314.751 6.96302 314.761 6.9782 314.776 7.00835C314.786 7.03126 314.796 7.05465 314.807 7.08226C314.811 7.09337 314.816 7.10516 314.821 7.11789C314.837 7.15792 314.858 7.20639 314.886 7.24998C314.914 7.29382 314.955 7.34333 315.019 7.37339C315.086 7.40505 315.158 7.40677 315.231 7.38628Z" stroke="url(#paint4_linear_54_47)" stroke-width="0.281513" style="mix-blend-mode:overlay"/>
<g filter="url(#filter2_ii_54_47)">
<path d="M315.827 6.1177C315.457 6.22205 315.112 6.39821 314.81 6.63611C314.508 6.87401 314.257 7.16899 314.069 7.50422C313.881 7.83944 313.762 8.20833 313.717 8.58982C313.672 8.97131 313.702 9.35793 313.807 9.72759L315.079 14.2308C315.262 14.8774 315.662 15.4415 316.211 15.8281C316.761 16.2146 317.427 16.4002 318.097 16.3535C318.767 16.3069 319.401 16.0308 319.892 15.5718C320.261 15.2263 320.532 14.7931 320.683 14.3161C320.774 14.029 320.979 13.7802 321.268 13.6984V13.6984C321.691 13.579 322.126 13.8434 322.215 14.2736L324.369 24.684C324.46 25.1232 324.64 25.539 324.899 25.9054C325.158 26.2718 325.489 26.581 325.873 26.8138C326.256 27.0466 326.683 27.1979 327.128 27.2583C327.572 27.3188 328.024 27.287 328.456 27.1651C328.888 27.0432 329.29 26.8337 329.637 26.5497C329.984 26.2657 330.269 25.9133 330.474 25.5143C330.679 25.1154 330.8 24.6785 330.829 24.2308C330.858 23.7832 330.794 23.3344 330.642 22.9124L327.032 12.9131C326.882 12.5002 327.115 12.0475 327.538 11.9284V11.9284C327.827 11.8469 328.132 11.9517 328.359 12.149C328.737 12.4775 329.195 12.7053 329.691 12.8068C330.35 12.9416 331.035 12.8454 331.631 12.5343C332.227 12.2232 332.698 11.7162 332.964 11.0987C333.23 10.4812 333.275 9.79096 333.091 9.1441L331.82 4.64045C331.638 3.99381 331.238 3.42977 330.689 3.04318C330.139 2.65659 329.473 2.47103 328.803 2.5177C328.132 2.56437 327.499 2.84042 327.008 3.29944C326.698 3.5892 326.457 3.94071 326.299 4.328C326.129 4.74243 325.83 5.11681 325.399 5.2385L319.594 6.87774C319.163 6.99945 318.712 6.83706 318.351 6.57245C318.094 6.38417 317.806 6.23818 317.499 6.14171C316.956 5.9711 316.375 5.96276 315.827 6.1177Z" fill="url(#paint5_radial_54_47)"/>
<path d="M315.827 6.1177C315.457 6.22205 315.112 6.39821 314.81 6.63611C314.508 6.87401 314.257 7.16899 314.069 7.50422C313.881 7.83944 313.762 8.20833 313.717 8.58982C313.672 8.97131 313.702 9.35793 313.807 9.72759L315.079 14.2308C315.262 14.8774 315.662 15.4415 316.211 15.8281C316.761 16.2146 317.427 16.4002 318.097 16.3535C318.767 16.3069 319.401 16.0308 319.892 15.5718C320.261 15.2263 320.532 14.7931 320.683 14.3161C320.774 14.029 320.979 13.7802 321.268 13.6984V13.6984C321.691 13.579 322.126 13.8434 322.215 14.2736L324.369 24.684C324.46 25.1232 324.64 25.539 324.899 25.9054C325.158 26.2718 325.489 26.581 325.873 26.8138C326.256 27.0466 326.683 27.1979 327.128 27.2583C327.572 27.3188 328.024 27.287 328.456 27.1651C328.888 27.0432 329.29 26.8337 329.637 26.5497C329.984 26.2657 330.269 25.9133 330.474 25.5143C330.679 25.1154 330.8 24.6785 330.829 24.2308C330.858 23.7832 330.794 23.3344 330.642 22.9124L327.032 12.9131C326.882 12.5002 327.115 12.0475 327.538 11.9284V11.9284C327.827 11.8469 328.132 11.9517 328.359 12.149C328.737 12.4775 329.195 12.7053 329.691 12.8068C330.35 12.9416 331.035 12.8454 331.631 12.5343C332.227 12.2232 332.698 11.7162 332.964 11.0987C333.23 10.4812 333.275 9.79096 333.091 9.1441L331.82 4.64045C331.638 3.99381 331.238 3.42977 330.689 3.04318C330.139 2.65659 329.473 2.47103 328.803 2.5177C328.132 2.56437 327.499 2.84042 327.008 3.29944C326.698 3.5892 326.457 3.94071 326.299 4.328C326.129 4.74243 325.83 5.11681 325.399 5.2385L319.594 6.87774C319.163 6.99945 318.712 6.83706 318.351 6.57245C318.094 6.38417 317.806 6.23818 317.499 6.14171C316.956 5.9711 316.375 5.96276 315.827 6.1177Z" fill="url(#paint6_linear_54_47)" fill-opacity="0.4" style="mix-blend-mode:overlay"/>
</g>
<path d="M315.865 6.25317L315.865 6.25315C316.387 6.10566 316.94 6.1136 317.457 6.276C317.749 6.36782 318.023 6.50679 318.268 6.68601C318.647 6.96399 319.143 7.15134 319.633 7.01319L325.437 5.37396C325.926 5.23583 326.251 4.81666 326.429 4.38129C326.58 4.01263 326.809 3.67804 327.104 3.40223C327.571 2.96531 328.174 2.70254 328.813 2.65812C329.451 2.61369 330.084 2.79032 330.608 3.15831C331.131 3.52629 331.511 4.06318 331.685 4.6787L332.956 9.18233L332.956 9.18248C333.13 9.79821 333.087 10.4553 332.834 11.043C332.581 11.6308 332.133 12.1134 331.566 12.4095C330.998 12.7056 330.346 12.7973 329.719 12.6689C329.247 12.5723 328.811 12.3554 328.451 12.0428C328.199 11.8234 327.847 11.6952 327.5 11.7929C326.998 11.9341 326.722 12.4711 326.899 12.9609L330.509 22.9602C330.509 22.9602 330.509 22.9602 330.509 22.9602C330.655 23.364 330.716 23.7934 330.688 24.2218C330.661 24.6501 330.545 25.0682 330.349 25.45C330.153 25.8317 329.88 26.169 329.548 26.4408C329.216 26.7126 328.831 26.913 328.418 27.0297C328.005 27.1463 327.572 27.1767 327.147 27.1188C326.721 27.061 326.313 26.9162 325.946 26.6935C325.579 26.4707 325.262 26.1748 325.014 25.8242C324.766 25.4736 324.594 25.0758 324.507 24.6555C324.507 24.6555 324.507 24.6554 324.507 24.6554L322.353 14.2451C322.248 13.7349 321.732 13.4213 321.23 13.5629C320.883 13.661 320.649 13.9546 320.549 14.2738C320.405 14.7278 320.147 15.1402 319.796 15.469C319.329 15.9059 318.725 16.1687 318.087 16.2131C317.449 16.2575 316.815 16.0809 316.292 15.7129C315.769 15.345 315.389 14.8081 315.215 14.1925L315.215 14.1925L313.942 9.68932C313.843 9.33745 313.814 8.96944 313.857 8.60631C313.899 8.24318 314.013 7.89204 314.192 7.57295C314.37 7.25386 314.61 6.97307 314.897 6.74662C315.184 6.52017 315.513 6.35249 315.865 6.25317Z" stroke="url(#paint7_linear_54_47)" stroke-width="0.281513" style="mix-blend-mode:overlay"/>
<g filter="url(#filter3_ii_54_47)">
<path d="M278.359 15.6684C278.238 15.8322 278.028 15.3678 277.958 15.8218C277.909 16.0193 278.044 16.6186 278.075 16.8197C278.106 17.0208 278.176 17.2139 278.281 17.388C278.386 17.5621 278.525 17.7137 278.689 17.8343L280.685 19.3025C280.972 19.5133 281.323 19.6191 281.678 19.6019C282.034 19.5847 282.372 19.4456 282.637 19.208C282.902 18.9705 283.077 18.6489 283.133 18.2974C283.175 18.0329 283.148 17.7636 283.055 17.5153C283 17.3658 283.005 17.1951 283.099 17.0666V17.0666C283.237 16.8792 283.505 16.8481 283.682 16.9989L287.969 20.6496C288.15 20.8036 288.36 20.9186 288.588 20.9876C288.815 21.0566 289.054 21.078 289.29 21.0505C289.526 21.0231 289.754 20.9473 289.959 20.828C290.165 20.7087 290.343 20.5484 290.484 20.357C290.625 20.1656 290.725 19.9473 290.777 19.7156C290.83 19.484 290.835 19.244 290.791 19.0105C290.746 18.7771 290.702 18.1961 290.568 17.9996C290.434 17.8031 290.215 17.9954 290.014 17.8685L285.252 14.8636C285.056 14.7395 285.006 14.4746 285.144 14.2873V14.2873C285.238 14.1591 285.4 14.1038 285.559 14.1124C285.823 14.1268 286.089 14.0729 286.329 13.954C286.649 13.7961 286.904 13.533 287.051 13.2091C287.199 12.8852 287.231 12.5202 287.142 12.1756C287.062 11.6519 287.057 11.3159 286.77 11.1051L284.563 9.84812C284.276 9.63725 283.926 9.53153 283.57 9.54873C283.215 9.56593 282.876 9.705 282.611 9.94255C282.346 10.1801 282.171 10.5017 282.115 10.8531C282.08 11.075 282.094 11.3003 282.153 11.5137C282.217 11.7421 282.214 11.996 282.073 12.1871L280.181 14.7604C280.04 14.9515 279.799 15.0304 279.562 15.0374C279.393 15.0423 279.225 15.0748 279.065 15.1344C278.783 15.2398 278.537 15.4254 278.359 15.6684Z" fill="url(#paint8_radial_54_47)"/>
<path d="M278.359 15.6684C278.238 15.8322 278.028 15.3678 277.958 15.8218C277.909 16.0193 278.044 16.6186 278.075 16.8197C278.106 17.0208 278.176 17.2139 278.281 17.388C278.386 17.5621 278.525 17.7137 278.689 17.8343L280.685 19.3025C280.972 19.5133 281.323 19.6191 281.678 19.6019C282.034 19.5847 282.372 19.4456 282.637 19.208C282.902 18.9705 283.077 18.6489 283.133 18.2974C283.175 18.0329 283.148 17.7636 283.055 17.5153C283 17.3658 283.005 17.1951 283.099 17.0666V17.0666C283.237 16.8792 283.505 16.8481 283.682 16.9989L287.969 20.6496C288.15 20.8036 288.36 20.9186 288.588 20.9876C288.815 21.0566 289.054 21.078 289.29 21.0505C289.526 21.0231 289.754 20.9473 289.959 20.828C290.165 20.7087 290.343 20.5484 290.484 20.357C290.625 20.1656 290.725 19.9473 290.777 19.7156C290.83 19.484 290.835 19.244 290.791 19.0105C290.746 18.7771 290.702 18.1961 290.568 17.9996C290.434 17.8031 290.215 17.9954 290.014 17.8685L285.252 14.8636C285.056 14.7395 285.006 14.4746 285.144 14.2873V14.2873C285.238 14.1591 285.4 14.1038 285.559 14.1124C285.823 14.1268 286.089 14.0729 286.329 13.954C286.649 13.7961 286.904 13.533 287.051 13.2091C287.199 12.8852 287.231 12.5202 287.142 12.1756C287.062 11.6519 287.057 11.3159 286.77 11.1051L284.563 9.84812C284.276 9.63725 283.926 9.53153 283.57 9.54873C283.215 9.56593 282.876 9.705 282.611 9.94255C282.346 10.1801 282.171 10.5017 282.115 10.8531C282.08 11.075 282.094 11.3003 282.153 11.5137C282.217 11.7421 282.214 11.996 282.073 12.1871L280.181 14.7604C280.04 14.9515 279.799 15.0304 279.562 15.0374C279.393 15.0423 279.225 15.0748 279.065 15.1344C278.783 15.2398 278.537 15.4254 278.359 15.6684Z" fill="url(#paint9_linear_54_47)" fill-opacity="0.4" style="mix-blend-mode:overlay"/>
</g>
<path d="M278.419 15.7125L278.419 15.7125C278.589 15.4812 278.823 15.3046 279.091 15.2043C279.244 15.1475 279.403 15.1166 279.564 15.1119C279.813 15.1046 280.081 15.0215 280.241 14.8046L282.133 12.2312C282.293 12.0144 282.292 11.7335 282.225 11.4936C282.168 11.2904 282.155 11.076 282.189 10.8648C282.242 10.5303 282.409 10.2242 282.661 9.99806C282.913 9.77194 283.235 9.63956 283.574 9.62319C283.912 9.60682 284.246 9.70745 284.519 9.90817L284.518 9.90858L284.526 9.9129L286.729 11.1677C286.852 11.2596 286.917 11.3784 286.961 11.5423C286.994 11.6643 287.014 11.8045 287.037 11.9725C287.046 12.0393 287.056 12.1106 287.068 12.1868L287.067 12.1869L287.069 12.1943C287.155 12.5224 287.124 12.8698 286.984 13.1781C286.843 13.4865 286.6 13.7369 286.296 13.8872C286.068 14.0004 285.815 14.0516 285.563 14.038C285.386 14.0284 285.197 14.0894 285.084 14.2431C284.92 14.4652 284.979 14.7795 285.213 14.9267L289.974 17.9315C290.088 18.0034 290.209 17.9925 290.296 17.9846C290.305 17.9837 290.314 17.9829 290.322 17.9823C290.37 17.9785 290.405 17.9781 290.434 17.986C290.459 17.9928 290.483 18.0068 290.506 18.0415C290.533 18.0802 290.558 18.1438 290.581 18.2275C290.604 18.3097 290.623 18.4051 290.639 18.5035C290.656 18.6018 290.67 18.7014 290.682 18.7919L290.682 18.7939C290.695 18.8827 290.706 18.9642 290.717 19.0243C290.759 19.2477 290.755 19.4774 290.705 19.6991C290.654 19.9208 290.559 20.1297 290.424 20.3128C290.289 20.4959 290.118 20.6494 289.922 20.7636C289.725 20.8777 289.507 20.9502 289.281 20.9765C289.056 21.0028 288.827 20.9823 288.609 20.9162C288.392 20.8502 288.19 20.7401 288.017 20.5928L283.73 16.9422C283.52 16.7633 283.203 16.8002 283.039 17.0224C282.926 17.1763 282.924 17.375 282.985 17.5412C283.073 17.7776 283.099 18.034 283.06 18.2858C283.006 18.6203 282.84 18.9264 282.588 19.1525C282.335 19.3787 282.013 19.511 281.675 19.5274C281.336 19.5438 281.003 19.4431 280.73 19.2424L280.73 19.2424L278.733 17.7742C278.577 17.6595 278.445 17.5152 278.345 17.3494C278.245 17.1837 278.178 16.9999 278.149 16.8085C278.142 16.7631 278.13 16.6985 278.116 16.6249C278.114 16.6145 278.112 16.6039 278.11 16.5931C278.094 16.5056 278.076 16.4065 278.06 16.3077C278.045 16.2088 278.032 16.1114 278.026 16.0274C278.019 15.941 278.021 15.8767 278.03 15.8396L278.03 15.8397L278.031 15.8331C278.04 15.7795 278.05 15.7434 278.059 15.7198C278.067 15.7017 278.073 15.6939 278.075 15.6911C278.08 15.6918 278.09 15.6947 278.105 15.7027C278.117 15.7088 278.129 15.7156 278.142 15.7235C278.148 15.7267 278.154 15.7301 278.16 15.7338C278.18 15.7452 278.204 15.7587 278.23 15.7679C278.256 15.7771 278.29 15.7842 278.326 15.7762C278.364 15.7677 278.395 15.7447 278.419 15.7125Z" stroke="url(#paint10_linear_54_47)" stroke-width="0.1491" style="mix-blend-mode:overlay"/>
<g filter="url(#filter4_ii_54_47)">
<path d="M278.255 14.9885C278.135 15.1524 278.047 15.3384 277.999 15.5359C277.95 15.7335 277.941 15.9387 277.972 16.1398C278.002 16.3409 278.072 16.5341 278.177 16.7082C278.283 16.8822 278.421 17.0339 278.585 17.1544L280.582 18.6226C280.869 18.8335 281.219 18.9392 281.575 18.922C281.93 18.9048 282.269 18.7657 282.534 18.5282C282.799 18.2906 282.974 17.9691 283.03 17.6176C283.072 17.3531 283.044 17.0837 282.952 16.8354C282.896 16.6859 282.901 16.5152 282.996 16.3867V16.3867C283.133 16.1993 283.401 16.1682 283.579 16.3191L287.865 19.9697C288.046 20.1237 288.257 20.2387 288.484 20.3077C288.711 20.3767 288.951 20.3981 289.186 20.3707C289.422 20.3432 289.65 20.2675 289.856 20.1482C290.061 20.0288 290.24 19.8685 290.381 19.6771C290.521 19.4857 290.621 19.2674 290.674 19.0358C290.727 18.8041 290.731 18.5641 290.687 18.3306C290.643 18.0972 290.551 17.8753 290.418 17.6788C290.284 17.4824 290.112 17.3155 289.911 17.1886L285.149 14.1837C284.952 14.0596 284.902 13.7947 285.04 13.6075V13.6075C285.135 13.4792 285.296 13.4239 285.455 13.4326C285.72 13.4469 285.986 13.3931 286.226 13.2742C286.545 13.1162 286.8 12.8532 286.948 12.5292C287.096 12.2053 287.128 11.8403 287.038 11.4957C286.948 11.1511 286.743 10.8479 286.456 10.6372L284.459 9.16825C284.173 8.95738 283.822 8.85166 283.467 8.86886C283.111 8.88606 282.772 9.02513 282.508 9.26268C282.243 9.50024 282.067 9.8218 282.012 10.1733C281.976 10.3952 281.99 10.6204 282.05 10.8338C282.114 11.0622 282.11 11.3161 281.97 11.5072L280.077 14.0806C279.937 14.2716 279.695 14.3506 279.458 14.3575C279.289 14.3624 279.122 14.3949 278.962 14.4545C278.679 14.5599 278.434 14.7455 278.255 14.9885Z" fill="url(#paint11_radial_54_47)"/>
<path d="M278.255 14.9885C278.135 15.1524 278.047 15.3384 277.999 15.5359C277.95 15.7335 277.941 15.9387 277.972 16.1398C278.002 16.3409 278.072 16.5341 278.177 16.7082C278.283 16.8822 278.421 17.0339 278.585 17.1544L280.582 18.6226C280.869 18.8335 281.219 18.9392 281.575 18.922C281.93 18.9048 282.269 18.7657 282.534 18.5282C282.799 18.2906 282.974 17.9691 283.03 17.6176C283.072 17.3531 283.044 17.0837 282.952 16.8354C282.896 16.6859 282.901 16.5152 282.996 16.3867V16.3867C283.133 16.1993 283.401 16.1682 283.579 16.3191L287.865 19.9697C288.046 20.1237 288.257 20.2387 288.484 20.3077C288.711 20.3767 288.951 20.3981 289.186 20.3707C289.422 20.3432 289.65 20.2675 289.856 20.1482C290.061 20.0288 290.24 19.8685 290.381 19.6771C290.521 19.4857 290.621 19.2674 290.674 19.0358C290.727 18.8041 290.731 18.5641 290.687 18.3306C290.643 18.0972 290.551 17.8753 290.418 17.6788C290.284 17.4824 290.112 17.3155 289.911 17.1886L285.149 14.1837C284.952 14.0596 284.902 13.7947 285.04 13.6075V13.6075C285.135 13.4792 285.296 13.4239 285.455 13.4326C285.72 13.4469 285.986 13.3931 286.226 13.2742C286.545 13.1162 286.8 12.8532 286.948 12.5292C287.096 12.2053 287.128 11.8403 287.038 11.4957C286.948 11.1511 286.743 10.8479 286.456 10.6372L284.459 9.16825C284.173 8.95738 283.822 8.85166 283.467 8.86886C283.111 8.88606 282.772 9.02513 282.508 9.26268C282.243 9.50024 282.067 9.8218 282.012 10.1733C281.976 10.3952 281.99 10.6204 282.05 10.8338C282.114 11.0622 282.11 11.3161 281.97 11.5072L280.077 14.0806C279.937 14.2716 279.695 14.3506 279.458 14.3575C279.289 14.3624 279.122 14.3949 278.962 14.4545C278.679 14.5599 278.434 14.7455 278.255 14.9885Z" fill="url(#paint12_linear_54_47)" fill-opacity="0.4" style="mix-blend-mode:overlay"/>
</g>
<path d="M278.315 15.0327L278.315 15.0326C278.485 14.8014 278.719 14.6247 278.988 14.5244C279.14 14.4677 279.3 14.4367 279.46 14.432C279.709 14.4247 279.978 14.3416 280.137 14.1247L282.03 11.5514C282.189 11.3345 282.189 11.0536 282.122 10.8137C282.065 10.6106 282.052 10.3962 282.085 10.185C282.138 9.8504 282.305 9.54432 282.557 9.31819C282.809 9.09207 283.132 8.95969 283.47 8.94332C283.809 8.92695 284.142 9.02758 284.415 9.2283L286.411 10.6972L286.411 10.6973C286.685 10.8978 286.88 11.1864 286.966 11.5145C287.051 11.8425 287.021 12.1899 286.88 12.4983C286.739 12.8066 286.497 13.057 286.193 13.2073C285.964 13.3205 285.711 13.3718 285.459 13.3581C285.282 13.3485 285.093 13.4096 284.98 13.5633C284.817 13.7854 284.876 14.0996 285.109 14.2468L289.871 17.2516C290.063 17.3731 290.228 17.5327 290.356 17.7208C290.484 17.9088 290.572 18.1211 290.614 18.3445C290.656 18.5679 290.652 18.7976 290.601 19.0192C290.551 19.2409 290.455 19.4498 290.321 19.6329C290.186 19.8161 290.015 19.9695 289.818 20.0837C289.622 20.1979 289.404 20.2704 289.178 20.2966C288.952 20.3229 288.723 20.3024 288.506 20.2364C288.288 20.1704 288.087 20.0603 287.913 19.913C287.913 19.913 287.913 19.913 287.913 19.9129L283.627 16.2623C283.417 16.0834 283.099 16.1203 282.936 16.3426C282.822 16.4965 282.82 16.6952 282.882 16.8613C282.97 17.0977 282.996 17.3541 282.956 17.6059C282.903 17.9405 282.736 18.2465 282.484 18.4727C282.232 18.6988 281.909 18.8312 281.571 18.8475C281.233 18.8639 280.899 18.7633 280.626 18.5626L280.626 18.5625L278.629 17.0943C278.473 16.9796 278.341 16.8353 278.241 16.6696C278.141 16.5039 278.074 16.32 278.045 16.1286C278.016 15.9371 278.025 15.7418 278.071 15.5538C278.118 15.3657 278.2 15.1887 278.315 15.0327Z" stroke="url(#paint13_linear_54_47)" stroke-width="0.1491" style="mix-blend-mode:overlay"/>
<g filter="url(#filter5_ii_54_47)">
<rect x="280" y="16" width="44" height="44" rx="8" fill="url(#paint14_linear_54_47)"/>
<g filter="url(#filter6_ii_54_47)">
<path d="M310 37.5L303.933 31.3807C303.814 31.26 303.672 31.1643 303.515 31.0989C303.359 31.0336 303.191 31 303.022 31C302.853 31 302.685 31.0336 302.529 31.0989C302.373 31.1643 302.231 31.26 302.111 31.3807C301.991 31.5014 301.896 31.6447 301.831 31.8024C301.767 31.9601 301.733 32.1292 301.733 32.2999C301.733 32.4706 301.767 32.6396 301.831 32.7973C301.896 32.955 301.991 33.0983 302.111 33.219L305.066 36.2L295.289 36.2C294.947 36.2 294.619 36.337 294.378 36.5808C294.136 36.8246 294 37.1552 294 37.5C294 37.8448 294.136 38.1755 294.378 38.4193C294.619 38.6631 294.947 38.8001 295.289 38.8001L305.066 38.8001L302.111 41.7811C301.991 41.9015 301.895 42.0448 301.83 42.2025C301.765 42.3602 301.732 42.5294 301.732 42.7002C301.732 42.8711 301.765 43.0402 301.83 43.198C301.895 43.3557 301.991 43.4989 302.111 43.6194C302.353 43.8631 302.68 44 303.022 44C303.364 44 303.692 43.8631 303.933 43.6194L310 37.5Z" fill="url(#paint15_linear_54_47)"/>
</g>
</g>
<g filter="url(#filter7_ii_54_47)">
<path d="M252.469 47.0497C251.949 47.491 251.622 45.8127 251.042 47.2397C250.731 47.8465 250.708 49.9065 250.652 50.5865C250.596 51.2664 250.675 51.9508 250.883 52.6003C251.092 53.2499 251.427 53.852 251.868 54.3722L257.246 60.7096C258.018 61.6196 259.08 62.2362 260.253 62.4554C261.426 62.6747 262.639 62.4833 263.687 61.9135C264.736 61.3437 265.556 60.4302 266.01 59.3266C266.352 58.4961 266.471 57.596 266.362 56.7143C266.297 56.1836 266.445 55.6302 266.853 55.2844V55.2844C267.448 54.7796 268.346 54.8857 268.807 55.5152L279.965 70.7472C280.436 71.3897 281.034 71.9283 281.723 72.3295C282.411 72.7307 283.175 72.9858 283.966 73.0791C284.757 73.1724 285.559 73.1017 286.322 72.8715C287.084 72.6414 287.792 72.2566 288.399 71.7412C289.007 71.2259 289.502 70.5909 289.853 69.876C290.205 69.161 290.405 68.3813 290.442 67.5855C290.479 66.7896 290.783 64.8593 290.499 64.1148C290.216 63.3702 289.351 63.8275 288.794 63.2579L275.585 49.7647C275.04 49.2075 275.082 48.3044 275.677 47.8003V47.8003C276.085 47.455 276.654 47.3997 277.166 47.551C278.019 47.803 278.928 47.8332 279.804 47.6314C280.968 47.3633 282.003 46.7025 282.737 45.7603C283.471 44.818 283.857 43.6517 283.831 42.4578C283.977 40.6875 284.221 39.5871 283.447 38.6771L277.221 32.8662C276.449 31.9561 275.387 31.3396 274.214 31.1203C273.041 30.9011 271.828 31.0924 270.78 31.6622C269.731 32.2321 268.911 33.1456 268.456 34.2491C268.169 34.9458 268.04 35.6913 268.069 36.434C268.101 37.2286 267.893 38.0545 267.287 38.569L259.117 45.4989C258.511 46.0134 257.662 46.0839 256.883 45.9228C256.328 45.8083 255.756 45.7844 255.189 45.8551C254.185 45.9801 253.24 46.3953 252.469 47.0497Z" fill="url(#paint16_radial_54_47)"/>
<path d="M252.469 47.0497C251.949 47.491 251.622 45.8127 251.042 47.2397C250.731 47.8465 250.708 49.9065 250.652 50.5865C250.596 51.2664 250.675 51.9508 250.883 52.6003C251.092 53.2499 251.427 53.852 251.868 54.3722L257.246 60.7096C258.018 61.6196 259.08 62.2362 260.253 62.4554C261.426 62.6747 262.639 62.4833 263.687 61.9135C264.736 61.3437 265.556 60.4302 266.01 59.3266C266.352 58.4961 266.471 57.596 266.362 56.7143C266.297 56.1836 266.445 55.6302 266.853 55.2844V55.2844C267.448 54.7796 268.346 54.8857 268.807 55.5152L279.965 70.7472C280.436 71.3897 281.034 71.9283 281.723 72.3295C282.411 72.7307 283.175 72.9858 283.966 73.0791C284.757 73.1724 285.559 73.1017 286.322 72.8715C287.084 72.6414 287.792 72.2566 288.399 71.7412C289.007 71.2259 289.502 70.5909 289.853 69.876C290.205 69.161 290.405 68.3813 290.442 67.5855C290.479 66.7896 290.783 64.8593 290.499 64.1148C290.216 63.3702 289.351 63.8275 288.794 63.2579L275.585 49.7647C275.04 49.2075 275.082 48.3044 275.677 47.8003V47.8003C276.085 47.455 276.654 47.3997 277.166 47.551C278.019 47.803 278.928 47.8332 279.804 47.6314C280.968 47.3633 282.003 46.7025 282.737 45.7603C283.471 44.818 283.857 43.6517 283.831 42.4578C283.977 40.6875 284.221 39.5871 283.447 38.6771L277.221 32.8662C276.449 31.9561 275.387 31.3396 274.214 31.1203C273.041 30.9011 271.828 31.0924 270.78 31.6622C269.731 32.2321 268.911 33.1456 268.456 34.2491C268.169 34.9458 268.04 35.6913 268.069 36.434C268.101 37.2286 267.893 38.0545 267.287 38.569L259.117 45.4989C258.511 46.0134 257.662 46.0839 256.883 45.9228C256.328 45.8083 255.756 45.7844 255.189 45.8551C254.185 45.9801 253.24 46.3953 252.469 47.0497Z" fill="url(#paint17_linear_54_47)" fill-opacity="0.4" style="mix-blend-mode:overlay"/>
</g>
<path d="M252.631 47.2404L252.631 47.2403C253.365 46.6174 254.265 46.2222 255.22 46.1032C255.76 46.0359 256.305 46.0586 256.832 46.1677C257.65 46.3369 258.59 46.2735 259.279 45.6895L267.448 38.7596C268.137 38.1757 268.352 37.2588 268.319 36.424C268.291 35.7171 268.414 35.0074 268.687 34.3443C269.12 33.2938 269.901 32.4243 270.899 31.8819C271.897 31.3395 273.051 31.1574 274.168 31.3661C275.285 31.5748 276.295 32.1616 277.03 33.0279L277.04 33.039L277.05 33.049L283.266 38.8498C283.597 39.2452 283.718 39.6833 283.734 40.252C283.746 40.6754 283.701 41.148 283.648 41.7144C283.626 41.9396 283.603 42.1797 283.582 42.4374L283.581 42.4503L283.581 42.4632C283.606 43.5996 283.238 44.7097 282.54 45.6067C281.841 46.5036 280.856 47.1326 279.748 47.3877C278.914 47.5798 278.049 47.5511 277.237 47.3113C276.668 47.143 276.004 47.1957 275.515 47.6095C274.81 48.2074 274.76 49.2786 275.407 49.9396L288.615 63.4327C288.931 63.7553 289.332 63.813 289.622 63.8547C289.653 63.8592 289.683 63.8634 289.711 63.8678C289.871 63.8926 289.984 63.9184 290.072 63.9663C290.148 64.0079 290.215 64.0721 290.266 64.2037C290.322 64.3505 290.355 64.5773 290.365 64.8683C290.376 65.1541 290.364 65.4804 290.341 65.8142C290.319 66.1476 290.287 66.4832 290.258 66.7882L290.257 66.7948C290.228 67.0942 290.202 67.3688 290.192 67.5738C290.157 68.3354 289.965 69.0815 289.629 69.7657C289.292 70.4498 288.819 71.0574 288.237 71.5506C287.656 72.0438 286.979 72.4119 286.249 72.6322C285.52 72.8524 284.752 72.9201 283.995 72.8308C283.238 72.7416 282.507 72.4974 281.849 72.1135C281.19 71.7296 280.617 71.2142 280.167 70.5994L269.009 55.3674C268.462 54.6209 267.397 54.4951 266.691 55.0937C266.203 55.5082 266.042 56.1548 266.114 56.7448C266.218 57.5841 266.105 58.4409 265.779 59.2315C265.347 60.2819 264.566 61.1515 263.568 61.6939C262.57 62.2362 261.415 62.4184 260.299 62.2097C259.182 62.001 258.171 61.4141 257.436 60.5478L257.436 60.5478L252.059 54.2105C251.639 53.7153 251.32 53.1422 251.121 52.5239C250.923 51.9056 250.848 51.2542 250.901 50.6069C250.914 50.4535 250.925 50.2335 250.937 49.9829C250.939 49.9473 250.94 49.9111 250.942 49.8744C250.957 49.5764 250.975 49.2391 251 48.9047C251.026 48.5697 251.059 48.2421 251.104 47.963C251.151 47.6763 251.206 47.4679 251.265 47.354L251.27 47.3441L251.274 47.3338C251.342 47.1652 251.402 47.055 251.452 46.9853C251.49 46.9322 251.516 46.9115 251.527 46.9042C251.543 46.9107 251.571 46.9274 251.616 46.9657C251.651 46.9948 251.683 47.0257 251.721 47.0622C251.736 47.0769 251.753 47.0925 251.77 47.1093C251.826 47.1619 251.895 47.225 251.973 47.2748C252.05 47.325 252.154 47.3742 252.279 47.376C252.41 47.378 252.529 47.327 252.631 47.2404Z" stroke="url(#paint18_linear_54_47)" stroke-width="0.5" style="mix-blend-mode:overlay"/>
<g filter="url(#filter8_ii_54_47)">
<path d="M252.658 44.7512C252.138 45.1925 251.709 45.732 251.398 46.3388C251.086 46.9456 250.897 47.608 250.841 48.2879C250.785 48.9679 250.864 49.6523 251.072 50.3018C251.281 50.9514 251.616 51.5535 252.057 52.0737L257.434 58.411C258.206 59.3211 259.268 59.9376 260.441 60.1569C261.614 60.3762 262.827 60.1848 263.876 59.615C264.924 59.0452 265.745 58.1317 266.199 57.0281C266.541 56.1976 266.66 55.2975 266.551 54.4157C266.486 53.8851 266.634 53.3317 267.042 52.9858V52.9858C267.637 52.4811 268.535 52.5872 268.996 53.2167L280.154 68.4487C280.625 69.0912 281.223 69.6298 281.912 70.031C282.6 70.4322 283.363 70.6873 284.155 70.7806C284.946 70.8738 285.748 70.8032 286.51 70.573C287.273 70.3428 287.98 69.9581 288.588 69.4427C289.195 68.9274 289.69 68.2924 290.042 67.5774C290.393 66.8625 290.594 66.0828 290.631 65.287C290.668 64.4911 290.541 63.6962 290.257 62.9517C289.974 62.2071 289.54 61.529 288.983 60.9594L275.774 47.4662C275.229 46.909 275.271 46.0058 275.866 45.5018V45.5018C276.273 45.1565 276.843 45.1012 277.355 45.2525C278.208 45.5045 279.117 45.5347 279.993 45.3328C281.156 45.0648 282.192 44.404 282.926 43.4617C283.659 42.5194 284.046 41.3532 284.02 40.1593C283.995 38.9654 283.558 37.8168 282.785 36.9069L277.41 30.5677C276.638 29.6576 275.576 29.0411 274.403 28.8218C273.23 28.6026 272.017 28.7939 270.968 29.3637C269.92 29.9335 269.099 30.847 268.645 31.9506C268.358 32.6473 268.228 33.3928 268.258 34.1354C268.29 34.9301 268.082 35.756 267.475 36.2705L259.306 43.2003C258.699 43.7149 257.85 43.7854 257.072 43.6243C256.517 43.5097 255.945 43.4859 255.378 43.5566C254.374 43.6816 253.429 44.0968 252.658 44.7512Z" fill="url(#paint19_radial_54_47)"/>
<path d="M252.658 44.7512C252.138 45.1925 251.709 45.732 251.398 46.3388C251.086 46.9456 250.897 47.608 250.841 48.2879C250.785 48.9679 250.864 49.6523 251.072 50.3018C251.281 50.9514 251.616 51.5535 252.057 52.0737L257.434 58.411C258.206 59.3211 259.268 59.9376 260.441 60.1569C261.614 60.3762 262.827 60.1848 263.876 59.615C264.924 59.0452 265.745 58.1317 266.199 57.0281C266.541 56.1976 266.66 55.2975 266.551 54.4157C266.486 53.8851 266.634 53.3317 267.042 52.9858V52.9858C267.637 52.4811 268.535 52.5872 268.996 53.2167L280.154 68.4487C280.625 69.0912 281.223 69.6298 281.912 70.031C282.6 70.4322 283.363 70.6873 284.155 70.7806C284.946 70.8738 285.748 70.8032 286.51 70.573C287.273 70.3428 287.98 69.9581 288.588 69.4427C289.195 68.9274 289.69 68.2924 290.042 67.5774C290.393 66.8625 290.594 66.0828 290.631 65.287C290.668 64.4911 290.541 63.6962 290.257 62.9517C289.974 62.2071 289.54 61.529 288.983 60.9594L275.774 47.4662C275.229 46.909 275.271 46.0058 275.866 45.5018V45.5018C276.273 45.1565 276.843 45.1012 277.355 45.2525C278.208 45.5045 279.117 45.5347 279.993 45.3328C281.156 45.0648 282.192 44.404 282.926 43.4617C283.659 42.5194 284.046 41.3532 284.02 40.1593C283.995 38.9654 283.558 37.8168 282.785 36.9069L277.41 30.5677C276.638 29.6576 275.576 29.0411 274.403 28.8218C273.23 28.6026 272.017 28.7939 270.968 29.3637C269.92 29.9335 269.099 30.847 268.645 31.9506C268.358 32.6473 268.228 33.3928 268.258 34.1354C268.29 34.9301 268.082 35.756 267.475 36.2705L259.306 43.2003C258.699 43.7149 257.85 43.7854 257.072 43.6243C256.517 43.5097 255.945 43.4859 255.378 43.5566C254.374 43.6816 253.429 44.0968 252.658 44.7512Z" fill="url(#paint20_linear_54_47)" fill-opacity="0.4" style="mix-blend-mode:overlay"/>
</g>
<path d="M252.82 44.9419L252.82 44.9418C253.554 44.3189 254.453 43.9236 255.409 43.8047C255.949 43.7374 256.493 43.7601 257.021 43.8692C257.839 44.0383 258.779 43.975 259.468 43.391L267.637 36.4611C268.325 35.8772 268.541 34.9602 268.508 34.1255C268.48 33.4186 268.603 32.7089 268.876 32.0458C269.309 30.9953 270.09 30.1258 271.088 29.5834C272.086 29.041 273.24 28.8589 274.357 29.0676C275.474 29.2763 276.484 29.8631 277.219 30.7294L282.594 37.0686L282.595 37.0688C283.331 37.9349 283.746 39.0283 283.77 40.1647C283.795 41.3011 283.427 42.4112 282.729 43.3082C282.03 44.2051 281.044 44.8341 279.937 45.0892C279.103 45.2813 278.238 45.2526 277.426 45.0128C276.856 44.8445 276.193 44.8972 275.704 45.311C274.998 45.9089 274.948 46.9801 275.595 47.6411L288.804 61.1342C289.337 61.6792 289.752 62.3282 290.023 63.0406C290.295 63.7531 290.417 64.5138 290.381 65.2753C290.346 66.0369 290.154 66.783 289.817 67.4671C289.481 68.1513 289.008 68.7589 288.426 69.2521C287.845 69.7452 287.168 70.1134 286.438 70.3337C285.708 70.5539 284.941 70.6215 284.184 70.5323C283.427 70.4431 282.696 70.1989 282.037 69.815C281.379 69.4311 280.806 68.9157 280.355 68.3008L269.198 53.0689C268.651 52.3224 267.586 52.1966 266.88 52.7952C266.391 53.2096 266.23 53.8563 266.303 54.4463C266.407 55.2856 266.293 56.1424 265.968 56.933C265.536 57.9834 264.755 58.853 263.757 59.3953C262.758 59.9377 261.604 60.1199 260.487 59.9112C259.371 59.7025 258.36 59.1156 257.625 58.2493L257.625 58.2493L252.248 51.912C251.827 51.4168 251.509 50.8437 251.31 50.2254C251.112 49.607 251.037 48.9557 251.09 48.3084C251.143 47.6611 251.323 47.0307 251.62 46.4531C251.917 45.8754 252.324 45.3619 252.82 44.9419Z" stroke="url(#paint21_linear_54_47)" stroke-width="0.5" style="mix-blend-mode:overlay"/>
</g>
</g>
<defs>
<filter id="filter0_i_54_47" x="0" y="0" width="340" height="77" filterUnits="userSpaceOnUse" color-interpolation-filters="sRGB">
<feFlood flood-opacity="0" result="BackgroundImageFix"/>
<feBlend mode="normal" in="SourceGraphic" in2="BackgroundImageFix" result="shape"/>
<feColorMatrix in="SourceAlpha" type="matrix" values="0 0 0 0 0 0 0 0 0 0 0 0 0 0 0 0 0 0 127 0" result="hardAlpha"/>
<feOffset dy="1"/>
<feGaussianBlur stdDeviation="0.75"/>
<feComposite in2="hardAlpha" operator="arithmetic" k2="-1" k3="1"/>
<feColorMatrix type="matrix" values="0 0 0 0 1 0 0 0 0 1 0 0 0 0 1 0 0 0 0.49 0"/>
<feBlend mode="overlay" in2="shape" result="effect1_innerShadow_54_47"/>
</filter>
<filter id="filter1_ii_54_47" x="313.062" y="-8.76571" width="20.001" height="49.9614" filterUnits="userSpaceOnUse" color-interpolation-filters="sRGB">
<feFlood flood-opacity="0" result="BackgroundImageFix"/>
<feBlend mode="normal" in="SourceGraphic" in2="BackgroundImageFix" result="shape"/>
<feColorMatrix in="SourceAlpha" type="matrix" values="0 0 0 0 0 0 0 0 0 0 0 0 0 0 0 0 0 0 127 0" result="hardAlpha"/>
<feOffset dy="-12.4095"/>
<feGaussianBlur stdDeviation="14.9202"/>
<feComposite in2="hardAlpha" operator="arithmetic" k2="-1" k3="1"/>
<feColorMatrix type="matrix" values="0 0 0 0 0 0 0 0 0 0 0 0 0 0 0 0 0 0 0.45 0"/>
<feBlend mode="overlay" in2="shape" result="effect1_innerShadow_54_47"/>
<feColorMatrix in="SourceAlpha" type="matrix" values="0 0 0 0 0 0 0 0 0 0 0 0 0 0 0 0 0 0 127 0" result="hardAlpha"/>
<feOffset dy="12.7744"/>
<feGaussianBlur stdDeviation="7.86541"/>
<feComposite in2="hardAlpha" operator="arithmetic" k2="-1" k3="1"/>
<feColorMatrix type="matrix" values="0 0 0 0 1 0 0 0 0 1 0 0 0 0 1 0 0 0 1 0"/>
<feBlend mode="overlay" in2="effect1_innerShadow_54_47" result="effect2_innerShadow_54_47"/>
</filter>
<filter id="filter2_ii_54_47" x="313.697" y="-9.89882" width="19.5056" height="49.9614" filterUnits="userSpaceOnUse" color-interpolation-filters="sRGB">
<feFlood flood-opacity="0" result="BackgroundImageFix"/>
<feBlend mode="normal" in="SourceGraphic" in2="BackgroundImageFix" result="shape"/>
<feColorMatrix in="SourceAlpha" type="matrix" values="0 0 0 0 0 0 0 0 0 0 0 0 0 0 0 0 0 0 127 0" result="hardAlpha"/>
<feOffset dy="-12.4095"/>
<feGaussianBlur stdDeviation="14.9202"/>
<feComposite in2="hardAlpha" operator="arithmetic" k2="-1" k3="1"/>
<feColorMatrix type="matrix" values="0 0 0 0 0 0 0 0 0 0 0 0 0 0 0 0 0 0 0.45 0"/>
<feBlend mode="overlay" in2="shape" result="effect1_innerShadow_54_47"/>
<feColorMatrix in="SourceAlpha" type="matrix" values="0 0 0 0 0 0 0 0 0 0 0 0 0 0 0 0 0 0 127 0" result="hardAlpha"/>
<feOffset dy="12.7744"/>
<feGaussianBlur stdDeviation="7.86541"/>
<feComposite in2="hardAlpha" operator="arithmetic" k2="-1" k3="1"/>
<feColorMatrix type="matrix" values="0 0 0 0 1 0 0 0 0 1 0 0 0 0 1 0 0 0 1 0"/>
<feBlend mode="overlay" in2="effect1_innerShadow_54_47" result="effect2_innerShadow_54_47"/>
</filter>
<filter id="filter3_ii_54_47" x="277.947" y="2.97441" width="12.8733" height="24.8535" filterUnits="userSpaceOnUse" color-interpolation-filters="sRGB">
<feFlood flood-opacity="0" result="BackgroundImageFix"/>
<feBlend mode="normal" in="SourceGraphic" in2="BackgroundImageFix" result="shape"/>
<feColorMatrix in="SourceAlpha" type="matrix" values="0 0 0 0 0 0 0 0 0 0 0 0 0 0 0 0 0 0 127 0" result="hardAlpha"/>
<feOffset dy="-6.5725"/>
<feGaussianBlur stdDeviation="7.90229"/>
<feComposite in2="hardAlpha" operator="arithmetic" k2="-1" k3="1"/>
<feColorMatrix type="matrix" values="0 0 0 0 0 0 0 0 0 0 0 0 0 0 0 0 0 0 0.45 0"/>
<feBlend mode="overlay" in2="shape" result="effect1_innerShadow_54_47"/>
<feColorMatrix in="SourceAlpha" type="matrix" values="0 0 0 0 0 0 0 0 0 0 0 0 0 0 0 0 0 0 127 0" result="hardAlpha"/>
<feOffset dy="6.76581"/>
<feGaussianBlur stdDeviation="4.16581"/>
<feComposite in2="hardAlpha" operator="arithmetic" k2="-1" k3="1"/>
<feColorMatrix type="matrix" values="0 0 0 0 1 0 0 0 0 1 0 0 0 0 1 0 0 0 1 0"/>
<feBlend mode="overlay" in2="effect1_innerShadow_54_47" result="effect2_innerShadow_54_47"/>
</filter>
<filter id="filter4_ii_54_47" x="277.954" y="2.29454" width="12.7632" height="24.8535" filterUnits="userSpaceOnUse" color-interpolation-filters="sRGB">
<feFlood flood-opacity="0" result="BackgroundImageFix"/>
<feBlend mode="normal" in="SourceGraphic" in2="BackgroundImageFix" result="shape"/>
<feColorMatrix in="SourceAlpha" type="matrix" values="0 0 0 0 0 0 0 0 0 0 0 0 0 0 0 0 0 0 127 0" result="hardAlpha"/>
<feOffset dy="-6.5725"/>
<feGaussianBlur stdDeviation="7.90229"/>
<feComposite in2="hardAlpha" operator="arithmetic" k2="-1" k3="1"/>
<feColorMatrix type="matrix" values="0 0 0 0 0 0 0 0 0 0 0 0 0 0 0 0 0 0 0.45 0"/>
<feBlend mode="overlay" in2="shape" result="effect1_innerShadow_54_47"/>
<feColorMatrix in="SourceAlpha" type="matrix" values="0 0 0 0 0 0 0 0 0 0 0 0 0 0 0 0 0 0 127 0" result="hardAlpha"/>
<feOffset dy="6.76581"/>
<feGaussianBlur stdDeviation="4.16581"/>
<feComposite in2="hardAlpha" operator="arithmetic" k2="-1" k3="1"/>
<feColorMatrix type="matrix" values="0 0 0 0 1 0 0 0 0 1 0 0 0 0 1 0 0 0 1 0"/>
<feBlend mode="overlay" in2="effect1_innerShadow_54_47" result="effect2_innerShadow_54_47"/>
</filter>
<filter id="filter5_ii_54_47" x="280" y="11" width="44" height="49" filterUnits="userSpaceOnUse" color-interpolation-filters="sRGB">
<feFlood flood-opacity="0" result="BackgroundImageFix"/>
<feBlend mode="normal" in="SourceGraphic" in2="BackgroundImageFix" result="shape"/>
<feColorMatrix in="SourceAlpha" type="matrix" values="0 0 0 0 0 0 0 0 0 0 0 0 0 0 0 0 0 0 127 0" result="hardAlpha"/>
<feOffset dy="-5"/>
<feGaussianBlur stdDeviation="4.45"/>
<feComposite in2="hardAlpha" operator="arithmetic" k2="-1" k3="1"/>
<feColorMatrix type="matrix" values="0 0 0 0 0 0 0 0 0 0 0 0 0 0 0 0 0 0 0.36 0"/>
<feBlend mode="overlay" in2="shape" result="effect1_innerShadow_54_47"/>
<feColorMatrix in="SourceAlpha" type="matrix" values="0 0 0 0 0 0 0 0 0 0 0 0 0 0 0 0 0 0 127 0" result="hardAlpha"/>
<feOffset dy="-1"/>
<feGaussianBlur stdDeviation="0.65"/>
<feComposite in2="hardAlpha" operator="arithmetic" k2="-1" k3="1"/>
<feColorMatrix type="matrix" values="0 0 0 0 1 0 0 0 0 1 0 0 0 0 1 0 0 0 0.49 0"/>
<feBlend mode="overlay" in2="effect1_innerShadow_54_47" result="effect2_innerShadow_54_47"/>
</filter>
<filter id="filter6_ii_54_47" x="294" y="31" width="16" height="13" filterUnits="userSpaceOnUse" color-interpolation-filters="sRGB">
<feFlood flood-opacity="0" result="BackgroundImageFix"/>
<feBlend mode="normal" in="SourceGraphic" in2="BackgroundImageFix" result="shape"/>
<feColorMatrix in="SourceAlpha" type="matrix" values="0 0 0 0 0 0 0 0 0 0 0 0 0 0 0 0 0 0 127 0" result="hardAlpha"/>
<feOffset/>
<feGaussianBlur stdDeviation="0.55"/>
<feComposite in2="hardAlpha" operator="arithmetic" k2="-1" k3="1"/>
<feColorMatrix type="matrix" values="0 0 0 0 0 0 0 0 0 0 0 0 0 0 0 0 0 0 0.78 0"/>
<feBlend mode="overlay" in2="shape" result="effect1_innerShadow_54_47"/>
<feColorMatrix in="SourceAlpha" type="matrix" values="0 0 0 0 0 0 0 0 0 0 0 0 0 0 0 0 0 0 127 0" result="hardAlpha"/>
<feOffset/>
<feGaussianBlur stdDeviation="0.45"/>
<feComposite in2="hardAlpha" operator="arithmetic" k2="-1" k3="1"/>
<feColorMatrix type="matrix" values="0 0 0 0 1 0 0 0 0 1 0 0 0 0 1 0 0 0 0.49 0"/>
<feBlend mode="overlay" in2="effect1_innerShadow_54_47" result="effect2_innerShadow_54_47"/>
</filter>
<filter id="filter7_ii_54_47" x="250.635" y="8.99129" width="39.9846" height="86.8166" filterUnits="userSpaceOnUse" color-interpolation-filters="sRGB">
<feFlood flood-opacity="0" result="BackgroundImageFix"/>
<feBlend mode="normal" in="SourceGraphic" in2="BackgroundImageFix" result="shape"/>
<feColorMatrix in="SourceAlpha" type="matrix" values="0 0 0 0 0 0 0 0 0 0 0 0 0 0 0 0 0 0 127 0" result="hardAlpha"/>
<feOffset dy="-22.0406"/>
<feGaussianBlur stdDeviation="26.5"/>
<feComposite in2="hardAlpha" operator="arithmetic" k2="-1" k3="1"/>
<feColorMatrix type="matrix" values="0 0 0 0 0 0 0 0 0 0 0 0 0 0 0 0 0 0 0.45 0"/>
<feBlend mode="overlay" in2="shape" result="effect1_innerShadow_54_47"/>
<feColorMatrix in="SourceAlpha" type="matrix" values="0 0 0 0 0 0 0 0 0 0 0 0 0 0 0 0 0 0 127 0" result="hardAlpha"/>
<feOffset dy="22.6889"/>
<feGaussianBlur stdDeviation="13.9699"/>
<feComposite in2="hardAlpha" operator="arithmetic" k2="-1" k3="1"/>
<feColorMatrix type="matrix" values="0 0 0 0 1 0 0 0 0 1 0 0 0 0 1 0 0 0 1 0"/>
<feBlend mode="overlay" in2="effect1_innerShadow_54_47" result="effect2_innerShadow_54_47"/>
</filter>
<filter id="filter8_ii_54_47" x="250.823" y="6.69277" width="39.814" height="86.8166" filterUnits="userSpaceOnUse" color-interpolation-filters="sRGB">
<feFlood flood-opacity="0" result="BackgroundImageFix"/>
<feBlend mode="normal" in="SourceGraphic" in2="BackgroundImageFix" result="shape"/>
<feColorMatrix in="SourceAlpha" type="matrix" values="0 0 0 0 0 0 0 0 0 0 0 0 0 0 0 0 0 0 127 0" result="hardAlpha"/>
<feOffset dy="-22.0406"/>
<feGaussianBlur stdDeviation="26.5"/>
<feComposite in2="hardAlpha" operator="arithmetic" k2="-1" k3="1"/>
<feColorMatrix type="matrix" values="0 0 0 0 0 0 0 0 0 0 0 0 0 0 0 0 0 0 0.45 0"/>
<feBlend mode="overlay" in2="shape" result="effect1_innerShadow_54_47"/>
<feColorMatrix in="SourceAlpha" type="matrix" values="0 0 0 0 0 0 0 0 0 0 0 0 0 0 0 0 0 0 127 0" result="hardAlpha"/>
<feOffset dy="22.6889"/>
<feGaussianBlur stdDeviation="13.9699"/>
<feComposite in2="hardAlpha" operator="arithmetic" k2="-1" k3="1"/>
<feColorMatrix type="matrix" values="0 0 0 0 1 0 0 0 0 1 0 0 0 0 1 0 0 0 1 0"/>
<feBlend mode="overlay" in2="effect1_innerShadow_54_47" result="effect2_innerShadow_54_47"/>
</filter>
<radialGradient id="paint0_radial_54_47" cx="0" cy="0" r="1" gradientUnits="userSpaceOnUse" gradientTransform="translate(278 68.1379) rotate(-158.117) scale(231.156 525.887)">
<stop stop-color="#FFBE45"/>
<stop offset="1" stop-opacity="0"/>
</radialGradient>
<radialGradient id="paint1_radial_54_47" cx="0" cy="0" r="1" gradientUnits="userSpaceOnUse" gradientTransform="translate(231.5 2.29311) rotate(-150.682) scale(32.1131 129.306)">
<stop stop-color="#FFB845"/>
<stop offset="1" stop-opacity="0"/>
</radialGradient>
<radialGradient id="paint2_radial_54_47" cx="0" cy="0" r="1" gradientUnits="userSpaceOnUse" gradientTransform="translate(330.183 11.7564) rotate(155.802) scale(16.6055 14.0538)">
<stop offset="0.169422" stop-color="#AE6601"/>
<stop offset="1" stop-color="#975C37"/>
</radialGradient>
<linearGradient id="paint3_linear_54_47" x1="318.955" y1="17.7925" x2="332.936" y2="14.6808" gradientUnits="userSpaceOnUse">
<stop stop-color="white" stop-opacity="0"/>
<stop offset="0.58324" stop-color="white"/>
<stop offset="1" stop-color="white" stop-opacity="0"/>
</linearGradient>
<linearGradient id="paint4_linear_54_47" x1="323.804" y1="5.62501" x2="330.035" y2="32.6797" gradientUnits="userSpaceOnUse">
<stop stop-color="white"/>
<stop offset="1" stop-color="#999999" stop-opacity="0"/>
</linearGradient>
<radialGradient id="paint5_radial_54_47" cx="0" cy="0" r="1" gradientUnits="userSpaceOnUse" gradientTransform="translate(330.817 10.6233) rotate(155.802) scale(16.6055 14.0538)">
<stop offset="0.169422" stop-color="#FFA82F"/>
<stop offset="1" stop-color="#FFAA75"/>
</radialGradient>
<linearGradient id="paint6_linear_54_47" x1="319.589" y1="16.6593" x2="333.57" y2="13.5476" gradientUnits="userSpaceOnUse">
<stop stop-color="white" stop-opacity="0"/>
<stop offset="0.58324" stop-color="white"/>
<stop offset="1" stop-color="white" stop-opacity="0"/>
</linearGradient>
<linearGradient id="paint7_linear_54_47" x1="327.059" y1="14.2208" x2="331.161" y2="36.743" gradientUnits="userSpaceOnUse">
<stop stop-color="white"/>
<stop offset="1" stop-color="#999999" stop-opacity="0"/>
</linearGradient>
<radialGradient id="paint8_radial_54_47" cx="0" cy="0" r="1" gradientUnits="userSpaceOnUse" gradientTransform="translate(286.09 12.6751) rotate(117.908) scale(8.79486 7.44342)">
<stop offset="0.169422" stop-color="#AE6601"/>
<stop offset="1" stop-color="#975C37"/>
</radialGradient>
<linearGradient id="paint9_linear_54_47" x1="283.361" y1="18.8504" x2="288.192" y2="13.0017" gradientUnits="userSpaceOnUse">
<stop stop-color="white" stop-opacity="0"/>
<stop offset="0.58324" stop-color="white"/>
<stop offset="1" stop-color="white" stop-opacity="0"/>
</linearGradient>
<linearGradient id="paint10_linear_54_47" x1="281.429" y1="12.1874" x2="292.834" y2="21.4685" gradientUnits="userSpaceOnUse">
<stop stop-color="white"/>
<stop offset="1" stop-color="#999999" stop-opacity="0"/>
</linearGradient>
<radialGradient id="paint11_radial_54_47" cx="0" cy="0" r="1" gradientUnits="userSpaceOnUse" gradientTransform="translate(285.986 11.9953) rotate(117.908) scale(8.79486 7.44342)">
<stop offset="0.169422" stop-color="#FFA82F"/>
<stop offset="1" stop-color="#FFAA75"/>
</radialGradient>
<linearGradient id="paint12_linear_54_47" x1="283.257" y1="18.1705" x2="288.088" y2="12.3218" gradientUnits="userSpaceOnUse">
<stop stop-color="white" stop-opacity="0"/>
<stop offset="0.58324" stop-color="white"/>
<stop offset="1" stop-color="white" stop-opacity="0"/>
</linearGradient>
<linearGradient id="paint13_linear_54_47" x1="285.586" y1="14.7213" x2="294.627" y2="22.8003" gradientUnits="userSpaceOnUse">
<stop stop-color="white"/>
<stop offset="1" stop-color="#999999" stop-opacity="0"/>
</linearGradient>
<linearGradient id="paint14_linear_54_47" x1="302" y1="36" x2="302" y2="66" gradientUnits="userSpaceOnUse">
<stop stop-color="white"/>
<stop offset="1" stop-color="#BB834C"/>
</linearGradient>
<linearGradient id="paint15_linear_54_47" x1="310" y1="37.5" x2="294" y2="37.5" gradientUnits="userSpaceOnUse">
<stop stop-color="#634112"/>
<stop offset="1" stop-color="#883102"/>
</linearGradient>
<radialGradient id="paint16_radial_54_47" cx="0" cy="0" r="1" gradientUnits="userSpaceOnUse" gradientTransform="translate(280.013 43.273) rotate(131.265) scale(29.4932 24.9612)">
<stop offset="0.169422" stop-color="#AE6601"/>
<stop offset="1" stop-color="#975C37"/>
</radialGradient>
<linearGradient id="paint17_linear_54_47" x1="266.324" y1="61.3068" x2="286.618" y2="45.9669" gradientUnits="userSpaceOnUse">
<stop stop-color="white" stop-opacity="0"/>
<stop offset="0.58324" stop-color="white"/>
<stop offset="1" stop-color="white" stop-opacity="0"/>
</linearGradient>
<linearGradient id="paint18_linear_54_47" x1="265.184" y1="38.0711" x2="295.206" y2="77.1884" gradientUnits="userSpaceOnUse">
<stop stop-color="white"/>
<stop offset="1" stop-color="#999999" stop-opacity="0"/>
</linearGradient>
<radialGradient id="paint19_radial_54_47" cx="0" cy="0" r="1" gradientUnits="userSpaceOnUse" gradientTransform="translate(280.201 40.9744) rotate(131.265) scale(29.4932 24.9612)">
<stop offset="0.169422" stop-color="#FFA82F"/>
<stop offset="1" stop-color="#FFAA75"/>
</radialGradient>
<linearGradient id="paint20_linear_54_47" x1="266.513" y1="59.0083" x2="286.807" y2="43.6684" gradientUnits="userSpaceOnUse">
<stop stop-color="white" stop-opacity="0"/>
<stop offset="0.58324" stop-color="white"/>
<stop offset="1" stop-color="white" stop-opacity="0"/>
</linearGradient>
<linearGradient id="paint21_linear_54_47" x1="276.783" y1="49.5587" x2="300.023" y2="82.9227" gradientUnits="userSpaceOnUse">
<stop stop-color="white"/>
<stop offset="1" stop-color="#999999" stop-opacity="0"/>
</linearGradient>
<clipPath id="clip0_54_47">
<rect width="340" height="76" rx="8" fill="white"/>
</clipPath>
</defs>
</svg>
