<svg width="133" height="134" viewBox="0 0 133 134" fill="none" xmlns="http://www.w3.org/2000/svg">
<g filter="url(#filter0_ii_98_79)">
<path d="M104.477 52.8538C104.221 52.9755 104.23 52.2853 103.862 52.7877C103.678 52.9949 103.489 53.8004 103.406 54.0615C103.323 54.3226 103.297 54.5987 103.328 54.874C103.358 55.1492 103.446 55.4183 103.586 55.6657L105.288 58.6803C105.532 59.1132 105.923 59.4595 106.396 59.661C106.869 59.8625 107.394 59.907 107.884 59.7868C108.373 59.6667 108.797 59.3893 109.084 59.0013C109.292 58.7208 109.418 58.3949 109.456 58.0538C109.482 57.8162 109.603 57.5884 109.819 57.4859V57.4859C110.103 57.3509 110.443 57.4722 110.578 57.7568L113.939 64.8539C114.081 65.1522 114.285 65.4223 114.538 65.6474C114.792 65.8725 115.09 66.0478 115.413 66.1623C115.737 66.2768 116.08 66.328 116.42 66.3129C116.76 66.2978 117.09 66.2166 117.39 66.0744C117.689 65.9321 117.952 65.7319 118.162 65.4862C118.372 65.2405 118.524 64.9545 118.609 64.6461C118.694 64.3377 118.99 63.6107 118.936 63.2908C118.882 62.971 118.48 63.0651 118.296 62.7869L113.95 56.218C113.766 55.94 113.871 55.5636 114.172 55.4209V55.4209C114.358 55.3327 114.576 55.3613 114.755 55.463C115.1 55.6584 115.491 55.7668 115.89 55.7742C116.402 55.7837 116.894 55.6267 117.284 55.3294C117.673 55.0322 117.937 54.613 118.031 54.1423C118.246 53.4625 118.445 53.055 118.2 52.6221L116.096 49.7303C115.852 49.2974 115.46 48.9511 114.988 48.7496C114.515 48.5481 113.989 48.5036 113.5 48.6238C113.01 48.7439 112.586 49.0213 112.3 49.4093C112.125 49.6453 112.008 49.9134 111.953 50.1958C111.888 50.5264 111.722 50.8501 111.418 50.9945L107.353 52.9231C107.08 53.0526 106.762 53.0072 106.489 52.8758C106.249 52.7599 105.989 52.6841 105.722 52.6532C105.29 52.6034 104.858 52.6731 104.477 52.8538Z" fill="url(#paint0_radial_98_79)"/>
<path d="M104.477 52.8538C104.221 52.9755 104.23 52.2853 103.862 52.7877C103.678 52.9949 103.489 53.8004 103.406 54.0615C103.323 54.3226 103.297 54.5987 103.328 54.874C103.358 55.1492 103.446 55.4183 103.586 55.6657L105.288 58.6803C105.532 59.1132 105.923 59.4595 106.396 59.661C106.869 59.8625 107.394 59.907 107.884 59.7868C108.373 59.6667 108.797 59.3893 109.084 59.0013C109.292 58.7208 109.418 58.3949 109.456 58.0538C109.482 57.8162 109.603 57.5884 109.819 57.4859V57.4859C110.103 57.3509 110.443 57.4722 110.578 57.7568L113.939 64.8539C114.081 65.1522 114.285 65.4223 114.538 65.6474C114.792 65.8725 115.09 66.0478 115.413 66.1623C115.737 66.2768 116.08 66.328 116.42 66.3129C116.76 66.2978 117.09 66.2166 117.39 66.0744C117.689 65.9321 117.952 65.7319 118.162 65.4862C118.372 65.2405 118.524 64.9545 118.609 64.6461C118.694 64.3377 118.99 63.6107 118.936 63.2908C118.882 62.971 118.48 63.0651 118.296 62.7869L113.95 56.218C113.766 55.94 113.871 55.5636 114.172 55.4209V55.4209C114.358 55.3327 114.576 55.3613 114.755 55.463C115.1 55.6584 115.491 55.7668 115.89 55.7742C116.402 55.7837 116.894 55.6267 117.284 55.3294C117.673 55.0322 117.937 54.613 118.031 54.1423C118.246 53.4625 118.445 53.055 118.2 52.6221L116.096 49.7303C115.852 49.2974 115.46 48.9511 114.988 48.7496C114.515 48.5481 113.989 48.5036 113.5 48.6238C113.01 48.7439 112.586 49.0213 112.3 49.4093C112.125 49.6453 112.008 49.9134 111.953 50.1958C111.888 50.5264 111.722 50.8501 111.418 50.9945L107.353 52.9231C107.08 53.0526 106.762 53.0072 106.489 52.8758C106.249 52.7599 105.989 52.6841 105.722 52.6532C105.29 52.6034 104.858 52.6731 104.477 52.8538Z" fill="url(#paint1_linear_98_79)" fill-opacity="0.4" style="mix-blend-mode:overlay"/>
</g>
<path d="M104.52 52.9444L104.52 52.9444C104.883 52.7721 105.297 52.7052 105.711 52.7529C105.967 52.7825 106.216 52.8551 106.446 52.9662C106.735 53.1056 107.086 53.1607 107.396 53.0138L111.461 51.0852C111.806 50.9213 111.984 50.5604 112.051 50.215C112.103 49.9473 112.215 49.693 112.38 49.4689C112.653 49.1007 113.056 48.8361 113.524 48.7213C113.992 48.6064 114.495 48.6487 114.948 48.8419C115.401 49.0351 115.776 49.3667 116.009 49.7797L116.008 49.78L116.015 49.7894L118.115 52.6764C118.22 52.8647 118.232 53.0477 118.189 53.2708C118.158 53.4376 118.098 53.6178 118.026 53.8344C117.997 53.9207 117.967 54.0127 117.935 54.112L117.935 54.1118L117.932 54.1228C117.844 54.5689 117.594 54.9669 117.223 55.2496C116.852 55.5325 116.382 55.683 115.892 55.6738C115.51 55.6667 115.135 55.5629 114.805 55.3757C114.604 55.2619 114.352 55.2249 114.129 55.3302C113.773 55.4991 113.648 55.9445 113.866 56.2734L118.212 62.8423C118.212 62.8423 118.212 62.8423 118.212 62.8423C118.315 62.9971 118.474 63.0578 118.592 63.1028C118.605 63.1076 118.617 63.1122 118.628 63.1167C118.693 63.1422 118.74 63.1642 118.775 63.1931C118.805 63.2187 118.828 63.2517 118.837 63.3075C118.848 63.3699 118.842 63.4614 118.821 63.5762C118.801 63.6889 118.767 63.8154 118.729 63.944C118.69 64.0724 118.647 64.2007 118.609 64.3175L118.608 64.3202C118.569 64.4346 118.534 64.5398 118.512 64.6194C118.431 64.9135 118.286 65.1863 118.086 65.421C117.885 65.6557 117.634 65.8473 117.347 65.9837C117.059 66.12 116.742 66.1981 116.415 66.2126C116.088 66.2272 115.759 66.1779 115.447 66.0676C115.135 65.9574 114.849 65.7887 114.605 65.5723C114.361 65.3559 114.165 65.0966 114.03 64.8108L110.669 57.7138C110.51 57.3792 110.11 57.2365 109.776 57.3952C109.519 57.517 109.385 57.7823 109.356 58.0428C109.32 58.3664 109.2 58.6755 109.003 58.9416C108.731 59.3099 108.328 59.5745 107.86 59.6893C107.392 59.8042 106.889 59.7619 106.436 59.5687C105.982 59.3755 105.608 59.0439 105.375 58.6309L105.375 58.6309L103.673 55.6164C103.54 55.3804 103.457 55.1243 103.427 54.8628C103.398 54.6013 103.423 54.3394 103.502 54.0918C103.521 54.0328 103.544 53.9475 103.572 53.8505C103.575 53.8367 103.579 53.8227 103.583 53.8085C103.616 53.6931 103.652 53.5626 103.692 53.4341C103.732 53.3054 103.775 53.1804 103.818 53.0757C103.862 52.9681 103.903 52.8926 103.937 52.8543L103.938 52.8546L103.943 52.847C103.987 52.7879 104.021 52.7507 104.048 52.7285C104.075 52.7061 104.089 52.703 104.092 52.7026C104.092 52.7025 104.092 52.7025 104.092 52.7025C104.092 52.7024 104.092 52.7018 104.097 52.7049C104.105 52.7098 104.117 52.7203 104.133 52.7407C104.145 52.7557 104.156 52.7712 104.169 52.7894C104.174 52.7966 104.179 52.8043 104.185 52.8125C104.204 52.8387 104.227 52.8697 104.255 52.8962C104.282 52.9229 104.319 52.9506 104.368 52.9627C104.419 52.9753 104.47 52.9681 104.52 52.9444Z" stroke="url(#paint2_linear_98_79)" stroke-width="0.200752" style="mix-blend-mode:overlay"/>
<g filter="url(#filter1_ii_98_79)">
<path d="M104.757 51.9713C104.501 52.0931 104.274 52.2624 104.09 52.4697C103.906 52.6769 103.769 52.918 103.686 53.1791C103.604 53.4402 103.577 53.7163 103.608 53.9915C103.639 54.2668 103.726 54.5358 103.866 54.7833L105.568 57.7978C105.812 58.2307 106.204 58.5771 106.676 58.7786C107.149 58.9801 107.675 59.0245 108.164 58.9044C108.654 58.7842 109.077 58.5069 109.364 58.1189C109.572 57.8384 109.698 57.5125 109.736 57.1713C109.762 56.9337 109.883 56.7059 110.099 56.6035V56.6035C110.383 56.4685 110.723 56.5898 110.858 56.8743L114.219 63.9714C114.361 64.2698 114.565 64.5399 114.818 64.765C115.072 64.9901 115.37 65.1653 115.694 65.2798C116.017 65.3943 116.36 65.4456 116.7 65.4305C117.04 65.4154 117.37 65.3342 117.67 65.1919C117.97 65.0497 118.233 64.8495 118.442 64.6038C118.652 64.358 118.804 64.0721 118.889 63.7637C118.974 63.4553 118.99 63.131 118.937 62.8112C118.883 62.4913 118.76 62.1827 118.576 61.9045L114.23 55.3356C114.046 55.0576 114.151 54.6812 114.452 54.5385V54.5385C114.639 54.4503 114.856 54.4789 115.035 54.5806C115.38 54.7759 115.771 54.8843 116.17 54.8918C116.682 54.9013 117.174 54.7442 117.564 54.447C117.954 54.1498 118.218 53.7306 118.311 53.2599C118.405 52.7893 118.322 52.2959 118.077 51.863L116.376 48.8479C116.132 48.415 115.741 48.0687 115.268 47.8672C114.795 47.6656 114.27 47.6212 113.78 47.7414C113.291 47.8615 112.867 48.1389 112.58 48.5268C112.405 48.7628 112.288 49.031 112.233 49.3134C112.168 49.644 112.002 49.9677 111.698 50.1121L107.633 52.0407C107.36 52.1702 107.042 52.1248 106.77 51.9934C106.529 51.8775 106.27 51.8016 106.002 51.7708C105.571 51.721 105.138 51.7907 104.757 51.9713Z" fill="url(#paint3_radial_98_79)"/>
<path d="M104.757 51.9713C104.501 52.0931 104.274 52.2624 104.09 52.4697C103.906 52.6769 103.769 52.918 103.686 53.1791C103.604 53.4402 103.577 53.7163 103.608 53.9915C103.639 54.2668 103.726 54.5358 103.866 54.7833L105.568 57.7978C105.812 58.2307 106.204 58.5771 106.676 58.7786C107.149 58.9801 107.675 59.0245 108.164 58.9044C108.654 58.7842 109.077 58.5069 109.364 58.1189C109.572 57.8384 109.698 57.5125 109.736 57.1713C109.762 56.9337 109.883 56.7059 110.099 56.6035V56.6035C110.383 56.4685 110.723 56.5898 110.858 56.8743L114.219 63.9714C114.361 64.2698 114.565 64.5399 114.818 64.765C115.072 64.9901 115.37 65.1653 115.694 65.2798C116.017 65.3943 116.36 65.4456 116.7 65.4305C117.04 65.4154 117.37 65.3342 117.67 65.1919C117.97 65.0497 118.233 64.8495 118.442 64.6038C118.652 64.358 118.804 64.0721 118.889 63.7637C118.974 63.4553 118.99 63.131 118.937 62.8112C118.883 62.4913 118.76 62.1827 118.576 61.9045L114.23 55.3356C114.046 55.0576 114.151 54.6812 114.452 54.5385V54.5385C114.639 54.4503 114.856 54.4789 115.035 54.5806C115.38 54.7759 115.771 54.8843 116.17 54.8918C116.682 54.9013 117.174 54.7442 117.564 54.447C117.954 54.1498 118.218 53.7306 118.311 53.2599C118.405 52.7893 118.322 52.2959 118.077 51.863L116.376 48.8479C116.132 48.415 115.741 48.0687 115.268 47.8672C114.795 47.6656 114.27 47.6212 113.78 47.7414C113.291 47.8615 112.867 48.1389 112.58 48.5268C112.405 48.7628 112.288 49.031 112.233 49.3134C112.168 49.644 112.002 49.9677 111.698 50.1121L107.633 52.0407C107.36 52.1702 107.042 52.1248 106.77 51.9934C106.529 51.8775 106.27 51.8016 106.002 51.7708C105.571 51.721 105.138 51.7907 104.757 51.9713Z" fill="url(#paint4_linear_98_79)" fill-opacity="0.4" style="mix-blend-mode:overlay"/>
</g>
<path d="M104.8 52.062L104.801 52.062C105.163 51.8897 105.577 51.8227 105.991 51.8705C106.247 51.9 106.496 51.9727 106.726 52.0838C107.015 52.2232 107.366 52.2783 107.676 52.1313L111.741 50.2028C112.087 50.0388 112.264 49.6779 112.331 49.3326C112.384 49.0649 112.495 48.8105 112.661 48.5865C112.933 48.2183 113.336 47.9537 113.804 47.8388C114.272 47.724 114.775 47.7663 115.228 47.9595C115.682 48.1527 116.056 48.4843 116.289 48.8972L117.99 51.9123L117.99 51.9124C118.223 52.3253 118.301 52.7942 118.213 53.2404C118.124 53.6864 117.874 54.0844 117.503 54.3672C117.132 54.6501 116.662 54.8005 116.172 54.7914C115.79 54.7843 115.415 54.6804 115.085 54.4933C114.884 54.3795 114.632 54.3424 114.409 54.4478C114.053 54.6166 113.929 55.0621 114.146 55.391L118.492 61.9598C118.492 61.9598 118.492 61.9599 118.492 61.9599C118.669 62.2267 118.786 62.5222 118.838 62.8279C118.889 63.1335 118.874 63.4429 118.793 63.737C118.712 64.0311 118.566 64.3039 118.366 64.5386C118.166 64.7733 117.914 64.9649 117.627 65.1012C117.339 65.2376 117.022 65.3157 116.695 65.3302C116.368 65.3448 116.039 65.2954 115.727 65.1852C115.416 65.075 115.129 64.9063 114.885 64.6899C114.641 64.4735 114.446 64.2142 114.31 63.9285C114.31 63.9285 114.31 63.9284 114.31 63.9284L110.949 56.8314C110.79 56.4967 110.39 56.3541 110.056 56.5128C109.799 56.6346 109.665 56.8999 109.636 57.1604C109.601 57.4839 109.48 57.793 109.284 58.0592C109.011 58.4275 108.608 58.6921 108.14 58.8069C107.672 58.9218 107.169 58.8794 106.716 58.6862C106.263 58.4931 105.888 58.1615 105.655 57.7485L105.655 57.7485L103.953 54.7339C103.82 54.4979 103.737 54.2418 103.707 53.9804C103.678 53.7189 103.704 53.457 103.782 53.2094C103.861 52.9618 103.991 52.7331 104.165 52.5363C104.34 52.3394 104.556 52.1782 104.8 52.062Z" stroke="url(#paint5_linear_98_79)" stroke-width="0.200752" style="mix-blend-mode:overlay"/>
<g filter="url(#filter2_ii_98_79)">
<rect x="67" y="61.5" width="44" height="44" rx="8" fill="url(#paint6_linear_98_79)"/>
<g filter="url(#filter3_ii_98_79)">
<path d="M97 83L90.9333 76.8807C90.8136 76.76 90.6716 76.6643 90.5152 76.5989C90.3589 76.5336 90.1913 76.5 90.0221 76.5C89.8528 76.5 89.6853 76.5336 89.5289 76.5989C89.3726 76.6643 89.2305 76.76 89.1108 76.8807C88.9912 77.0014 88.8963 77.1447 88.8315 77.3024C88.7667 77.4601 88.7334 77.6292 88.7334 77.7999C88.7334 77.9706 88.7667 78.1396 88.8315 78.2973C88.8963 78.455 88.9912 78.5983 89.1108 78.719L92.0662 81.7L82.2889 81.7C81.947 81.7 81.6192 81.837 81.3775 82.0808C81.1358 82.3246 81 82.6552 81 83C81 83.3448 81.1358 83.6755 81.3775 83.9193C81.6192 84.1631 81.947 84.3001 82.2889 84.3001L92.0662 84.3001L89.1108 87.2811C88.9907 87.4015 88.8954 87.5448 88.8304 87.7025C88.7654 87.8602 88.7319 88.0294 88.7319 88.2002C88.7319 88.3711 88.7654 88.5402 88.8304 88.698C88.8954 88.8557 88.9907 88.9989 89.1108 89.1194C89.3525 89.3631 89.6803 89.5 90.0221 89.5C90.3638 89.5 90.6916 89.3631 90.9333 89.1194L97 83Z" fill="url(#paint7_linear_98_79)"/>
</g>
</g>
<g opacity="0.4" filter="url(#filter4_f_98_79)">
<circle cx="58.1722" cy="58.5765" r="25.7785" transform="rotate(-15 58.1722 58.5765)" fill="url(#paint8_radial_98_79)"/>
</g>
<path d="M35.9999 39.5877L27.3993 58.4968L41.4393 59.8879L44.011 39.7314L35.9999 39.5877Z" fill="url(#paint9_radial_98_79)"/>
<path d="M44.011 39.7314L41.4393 59.8879L73.3188 51.3458L61.0134 35.1756L44.011 39.7314Z" fill="url(#paint10_radial_98_79)"/>
<path d="M41.4393 59.8879L64.6794 82.8618L73.3188 51.3458L41.4393 59.8879Z" fill="url(#paint11_radial_98_79)"/>
<path d="M27.3993 58.4968L64.6794 82.8618L41.4393 59.8879L27.3993 58.4968Z" fill="url(#paint12_radial_98_79)"/>
<path d="M64.6794 82.8618L84.7824 43.121L73.3188 51.3458L64.6794 82.8618Z" fill="url(#paint13_radial_98_79)"/>
<path d="M84.7824 43.121L67.8794 31.0456L61.0134 35.1756L73.3188 51.3458L84.7824 43.121Z" fill="url(#paint14_radial_98_79)"/>
<path d="M35.9999 39.5877L44.011 39.7314L61.0134 35.1756L67.8794 31.0456L51.5001 33.6763L35.9999 39.5877Z" fill="url(#paint15_radial_98_79)"/>
<path d="M35.9999 39.5877L27.3993 58.4968L41.4393 59.8879L44.011 39.7314L35.9999 39.5877Z" fill="url(#paint16_linear_98_79)" style="mix-blend-mode:soft-light"/>
<path d="M44.011 39.7314L41.4393 59.8879L73.3188 51.3458L61.0134 35.1756L44.011 39.7314Z" fill="url(#paint17_linear_98_79)" style="mix-blend-mode:plus-lighter"/>
<path d="M41.4393 59.8879L64.6794 82.8618L73.3188 51.3458L41.4393 59.8879Z" fill="url(#paint18_linear_98_79)" style="mix-blend-mode:overlay"/>
<path d="M27.3993 58.4968L64.6794 82.8618L41.4393 59.8879L27.3993 58.4968Z" fill="url(#paint19_linear_98_79)" style="mix-blend-mode:soft-light"/>
<path d="M64.6794 82.8618L84.7824 43.121L73.3188 51.3458L64.6794 82.8618Z" fill="url(#paint20_linear_98_79)" style="mix-blend-mode:overlay"/>
<path d="M84.7824 43.121L67.8794 31.0456L61.0134 35.1756L73.3188 51.3458L84.7824 43.121Z" fill="url(#paint21_linear_98_79)" style="mix-blend-mode:soft-light"/>
<path d="M35.9999 39.5877L44.011 39.7314L61.0134 35.1756L67.8794 31.0456L51.5001 33.6763L35.9999 39.5877Z" fill="url(#paint22_linear_98_79)" style="mix-blend-mode:soft-light"/>
<g opacity="0.4" filter="url(#filter5_f_98_79)">
<circle cx="108.485" cy="109.859" r="10.6983" transform="rotate(20.4921 108.485 109.859)" fill="url(#paint23_radial_98_79)"/>
</g>
<path d="M105.568 98.1L98.1057 102.417L102.515 106.27L108.24 100.079L105.568 98.1Z" fill="url(#paint24_radial_98_79)"/>
<path d="M108.24 100.079L102.515 106.27L115.345 111.065L115.083 102.636L108.24 100.079Z" fill="url(#paint25_radial_98_79)"/>
<path d="M102.515 106.27L104.832 119.633L115.345 111.065L102.515 106.27Z" fill="url(#paint26_radial_98_79)"/>
<path d="M98.1057 102.417L104.832 119.633L102.515 106.27L98.1057 102.417Z" fill="url(#paint27_radial_98_79)"/>
<path d="M104.832 119.633L121.2 111.048L115.345 111.065L104.832 119.633Z" fill="url(#paint28_radial_98_79)"/>
<path d="M121.2 111.048L118.398 102.895L115.083 102.636L115.345 111.065L121.2 111.048Z" fill="url(#paint29_radial_98_79)"/>
<path d="M105.568 98.1L108.24 100.079L115.083 102.636L118.398 102.895L112.23 99.8373L105.568 98.1Z" fill="url(#paint30_radial_98_79)"/>
<path d="M105.568 98.1L98.1057 102.417L102.515 106.27L108.24 100.079L105.568 98.1Z" fill="url(#paint31_linear_98_79)" style="mix-blend-mode:soft-light"/>
<path d="M108.24 100.079L102.515 106.27L115.345 111.065L115.083 102.636L108.24 100.079Z" fill="url(#paint32_linear_98_79)" style="mix-blend-mode:plus-lighter"/>
<path d="M102.515 106.27L104.832 119.633L115.345 111.065L102.515 106.27Z" fill="url(#paint33_linear_98_79)" style="mix-blend-mode:overlay"/>
<path d="M98.1057 102.417L104.832 119.633L102.515 106.27L98.1057 102.417Z" fill="url(#paint34_linear_98_79)" style="mix-blend-mode:soft-light"/>
<path d="M104.832 119.633L121.2 111.048L115.345 111.065L104.832 119.633Z" fill="url(#paint35_linear_98_79)" style="mix-blend-mode:overlay"/>
<path d="M121.2 111.048L118.398 102.895L115.083 102.636L115.345 111.065L121.2 111.048Z" fill="url(#paint36_linear_98_79)" style="mix-blend-mode:soft-light"/>
<path d="M105.568 98.1L108.24 100.079L115.083 102.636L118.398 102.895L112.23 99.8373L105.568 98.1Z" fill="url(#paint37_linear_98_79)" style="mix-blend-mode:soft-light"/>
<defs>
<filter id="filter0_ii_98_79" x="103.315" y="39.7082" width="15.6279" height="35.7169" filterUnits="userSpaceOnUse" color-interpolation-filters="sRGB">
<feFlood flood-opacity="0" result="BackgroundImageFix"/>
<feBlend mode="normal" in="SourceGraphic" in2="BackgroundImageFix" result="shape"/>
<feColorMatrix in="SourceAlpha" type="matrix" values="0 0 0 0 0 0 0 0 0 0 0 0 0 0 0 0 0 0 127 0" result="hardAlpha"/>
<feOffset dy="-8.84938"/>
<feGaussianBlur stdDeviation="10.6398"/>
<feComposite in2="hardAlpha" operator="arithmetic" k2="-1" k3="1"/>
<feColorMatrix type="matrix" values="0 0 0 0 0 0 0 0 0 0 0 0 0 0 0 0 0 0 0.45 0"/>
<feBlend mode="overlay" in2="shape" result="effect1_innerShadow_98_79"/>
<feColorMatrix in="SourceAlpha" type="matrix" values="0 0 0 0 0 0 0 0 0 0 0 0 0 0 0 0 0 0 127 0" result="hardAlpha"/>
<feOffset dy="9.10966"/>
<feGaussianBlur stdDeviation="5.60895"/>
<feComposite in2="hardAlpha" operator="arithmetic" k2="-1" k3="1"/>
<feColorMatrix type="matrix" values="0 0 0 0 1 0 0 0 0 1 0 0 0 0 1 0 0 0 1 0"/>
<feBlend mode="overlay" in2="effect1_innerShadow_98_79" result="effect2_innerShadow_98_79"/>
</filter>
<filter id="filter1_ii_98_79" x="103.595" y="38.8259" width="15.3726" height="35.7169" filterUnits="userSpaceOnUse" color-interpolation-filters="sRGB">
<feFlood flood-opacity="0" result="BackgroundImageFix"/>
<feBlend mode="normal" in="SourceGraphic" in2="BackgroundImageFix" result="shape"/>
<feColorMatrix in="SourceAlpha" type="matrix" values="0 0 0 0 0 0 0 0 0 0 0 0 0 0 0 0 0 0 127 0" result="hardAlpha"/>
<feOffset dy="-8.84938"/>
<feGaussianBlur stdDeviation="10.6398"/>
<feComposite in2="hardAlpha" operator="arithmetic" k2="-1" k3="1"/>
<feColorMatrix type="matrix" values="0 0 0 0 0 0 0 0 0 0 0 0 0 0 0 0 0 0 0.45 0"/>
<feBlend mode="overlay" in2="shape" result="effect1_innerShadow_98_79"/>
<feColorMatrix in="SourceAlpha" type="matrix" values="0 0 0 0 0 0 0 0 0 0 0 0 0 0 0 0 0 0 127 0" result="hardAlpha"/>
<feOffset dy="9.10966"/>
<feGaussianBlur stdDeviation="5.60895"/>
<feComposite in2="hardAlpha" operator="arithmetic" k2="-1" k3="1"/>
<feColorMatrix type="matrix" values="0 0 0 0 1 0 0 0 0 1 0 0 0 0 1 0 0 0 1 0"/>
<feBlend mode="overlay" in2="effect1_innerShadow_98_79" result="effect2_innerShadow_98_79"/>
</filter>
<filter id="filter2_ii_98_79" x="67" y="56.5" width="44" height="49" filterUnits="userSpaceOnUse" color-interpolation-filters="sRGB">
<feFlood flood-opacity="0" result="BackgroundImageFix"/>
<feBlend mode="normal" in="SourceGraphic" in2="BackgroundImageFix" result="shape"/>
<feColorMatrix in="SourceAlpha" type="matrix" values="0 0 0 0 0 0 0 0 0 0 0 0 0 0 0 0 0 0 127 0" result="hardAlpha"/>
<feOffset dy="-5"/>
<feGaussianBlur stdDeviation="4.45"/>
<feComposite in2="hardAlpha" operator="arithmetic" k2="-1" k3="1"/>
<feColorMatrix type="matrix" values="0 0 0 0 0 0 0 0 0 0 0 0 0 0 0 0 0 0 0.36 0"/>
<feBlend mode="overlay" in2="shape" result="effect1_innerShadow_98_79"/>
<feColorMatrix in="SourceAlpha" type="matrix" values="0 0 0 0 0 0 0 0 0 0 0 0 0 0 0 0 0 0 127 0" result="hardAlpha"/>
<feOffset dy="-1"/>
<feGaussianBlur stdDeviation="0.65"/>
<feComposite in2="hardAlpha" operator="arithmetic" k2="-1" k3="1"/>
<feColorMatrix type="matrix" values="0 0 0 0 1 0 0 0 0 1 0 0 0 0 1 0 0 0 0.49 0"/>
<feBlend mode="overlay" in2="effect1_innerShadow_98_79" result="effect2_innerShadow_98_79"/>
</filter>
<filter id="filter3_ii_98_79" x="81" y="76.5" width="16" height="13" filterUnits="userSpaceOnUse" color-interpolation-filters="sRGB">
<feFlood flood-opacity="0" result="BackgroundImageFix"/>
<feBlend mode="normal" in="SourceGraphic" in2="BackgroundImageFix" result="shape"/>
<feColorMatrix in="SourceAlpha" type="matrix" values="0 0 0 0 0 0 0 0 0 0 0 0 0 0 0 0 0 0 127 0" result="hardAlpha"/>
<feOffset/>
<feGaussianBlur stdDeviation="0.55"/>
<feComposite in2="hardAlpha" operator="arithmetic" k2="-1" k3="1"/>
<feColorMatrix type="matrix" values="0 0 0 0 0 0 0 0 0 0 0 0 0 0 0 0 0 0 0.78 0"/>
<feBlend mode="overlay" in2="shape" result="effect1_innerShadow_98_79"/>
<feColorMatrix in="SourceAlpha" type="matrix" values="0 0 0 0 0 0 0 0 0 0 0 0 0 0 0 0 0 0 127 0" result="hardAlpha"/>
<feOffset/>
<feGaussianBlur stdDeviation="0.45"/>
<feComposite in2="hardAlpha" operator="arithmetic" k2="-1" k3="1"/>
<feColorMatrix type="matrix" values="0 0 0 0 1 0 0 0 0 1 0 0 0 0 1 0 0 0 0.49 0"/>
<feBlend mode="overlay" in2="effect1_innerShadow_98_79" result="effect2_innerShadow_98_79"/>
</filter>
<filter id="filter4_f_98_79" x="0.561838" y="0.966135" width="115.221" height="115.221" filterUnits="userSpaceOnUse" color-interpolation-filters="sRGB">
<feFlood flood-opacity="0" result="BackgroundImageFix"/>
<feBlend mode="normal" in="SourceGraphic" in2="BackgroundImageFix" result="shape"/>
<feGaussianBlur stdDeviation="15.9127" result="effect1_foregroundBlur_98_79"/>
</filter>
<filter id="filter5_f_98_79" x="84.5754" y="85.9497" width="47.8179" height="47.818" filterUnits="userSpaceOnUse" color-interpolation-filters="sRGB">
<feFlood flood-opacity="0" result="BackgroundImageFix"/>
<feBlend mode="normal" in="SourceGraphic" in2="BackgroundImageFix" result="shape"/>
<feGaussianBlur stdDeviation="6.60389" result="effect1_foregroundBlur_98_79"/>
</filter>
<radialGradient id="paint0_radial_98_79" cx="0" cy="0" r="1" gradientUnits="userSpaceOnUse" gradientTransform="translate(116.358 54.0858) rotate(146.123) scale(12.1574 10.4784)">
<stop offset="0.169422" stop-color="#AE6601"/>
<stop offset="1" stop-color="#975C37"/>
</radialGradient>
<linearGradient id="paint1_linear_98_79" x1="109.043" y1="59.8086" x2="118.563" y2="55.1219" gradientUnits="userSpaceOnUse">
<stop stop-color="white" stop-opacity="0"/>
<stop offset="0.58324" stop-color="white"/>
<stop offset="1" stop-color="white" stop-opacity="0"/>
</linearGradient>
<linearGradient id="paint2_linear_98_79" x1="110.594" y1="50.5856" x2="118.438" y2="69.4343" gradientUnits="userSpaceOnUse">
<stop stop-color="white"/>
<stop offset="1" stop-color="#999999" stop-opacity="0"/>
</linearGradient>
<radialGradient id="paint3_radial_98_79" cx="0" cy="0" r="1" gradientUnits="userSpaceOnUse" gradientTransform="translate(116.638 53.2034) rotate(146.123) scale(12.1574 10.4784)">
<stop offset="0.169422" stop-color="#FFA82F"/>
<stop offset="1" stop-color="#FFAA75"/>
</radialGradient>
<linearGradient id="paint4_linear_98_79" x1="109.323" y1="58.9262" x2="118.843" y2="54.2395" gradientUnits="userSpaceOnUse">
<stop stop-color="white" stop-opacity="0"/>
<stop offset="0.58324" stop-color="white"/>
<stop offset="1" stop-color="white" stop-opacity="0"/>
</linearGradient>
<linearGradient id="paint5_linear_98_79" x1="114.455" y1="56.2326" x2="120.19" y2="72.0031" gradientUnits="userSpaceOnUse">
<stop stop-color="white"/>
<stop offset="1" stop-color="#999999" stop-opacity="0"/>
</linearGradient>
<linearGradient id="paint6_linear_98_79" x1="89" y1="81.5" x2="89" y2="111.5" gradientUnits="userSpaceOnUse">
<stop stop-color="white"/>
<stop offset="1" stop-color="#BB834C"/>
</linearGradient>
<linearGradient id="paint7_linear_98_79" x1="97" y1="83" x2="81" y2="83" gradientUnits="userSpaceOnUse">
<stop stop-color="#634112"/>
<stop offset="1" stop-color="#883102"/>
</linearGradient>
<radialGradient id="paint8_radial_98_79" cx="0" cy="0" r="1" gradientUnits="userSpaceOnUse" gradientTransform="translate(68.3932 47.448) rotate(126.572) scale(37.0411 31.3493)">
<stop offset="0.169422" stop-color="#FFA82F"/>
<stop offset="1" stop-color="#FFAA75"/>
</radialGradient>
<radialGradient id="paint9_radial_98_79" cx="0" cy="0" r="1" gradientUnits="userSpaceOnUse" gradientTransform="translate(66.621 44.6044) rotate(115.878) scale(38.8581 34.0084)">
<stop offset="0.169422" stop-color="#FFA82F"/>
<stop offset="1" stop-color="#FFAA75"/>
</radialGradient>
<radialGradient id="paint10_radial_98_79" cx="0" cy="0" r="1" gradientUnits="userSpaceOnUse" gradientTransform="translate(66.621 44.6044) rotate(115.878) scale(38.8581 34.0084)">
<stop offset="0.169422" stop-color="#FFA82F"/>
<stop offset="1" stop-color="#FFAA75"/>
</radialGradient>
<radialGradient id="paint11_radial_98_79" cx="0" cy="0" r="1" gradientUnits="userSpaceOnUse" gradientTransform="translate(66.621 44.6044) rotate(115.878) scale(38.8581 34.0084)">
<stop offset="0.169422" stop-color="#FFA82F"/>
<stop offset="1" stop-color="#FFAA75"/>
</radialGradient>
<radialGradient id="paint12_radial_98_79" cx="0" cy="0" r="1" gradientUnits="userSpaceOnUse" gradientTransform="translate(66.621 44.6044) rotate(115.878) scale(38.8581 34.0084)">
<stop offset="0.169422" stop-color="#FFA82F"/>
<stop offset="1" stop-color="#FFAA75"/>
</radialGradient>
<radialGradient id="paint13_radial_98_79" cx="0" cy="0" r="1" gradientUnits="userSpaceOnUse" gradientTransform="translate(66.621 44.6044) rotate(115.878) scale(38.8581 34.0084)">
<stop offset="0.169422" stop-color="#FFA82F"/>
<stop offset="1" stop-color="#FFAA75"/>
</radialGradient>
<radialGradient id="paint14_radial_98_79" cx="0" cy="0" r="1" gradientUnits="userSpaceOnUse" gradientTransform="translate(66.621 44.6044) rotate(115.878) scale(38.8581 34.0084)">
<stop offset="0.169422" stop-color="#FFA82F"/>
<stop offset="1" stop-color="#FFAA75"/>
</radialGradient>
<radialGradient id="paint15_radial_98_79" cx="0" cy="0" r="1" gradientUnits="userSpaceOnUse" gradientTransform="translate(66.621 44.6044) rotate(115.878) scale(38.8581 34.0084)">
<stop offset="0.169422" stop-color="#FFA82F"/>
<stop offset="1" stop-color="#FFAA75"/>
</radialGradient>
<linearGradient id="paint16_linear_98_79" x1="43.9005" y1="39.7439" x2="41.1674" y2="59.7068" gradientUnits="userSpaceOnUse">
<stop stop-color="#494949"/>
<stop offset="1" stop-color="#E9E9E9"/>
</linearGradient>
<linearGradient id="paint17_linear_98_79" x1="52.3597" y1="36.8841" x2="57.3735" y2="55.5959" gradientUnits="userSpaceOnUse">
<stop stop-color="white" stop-opacity="0.8"/>
<stop offset="1" stop-color="white" stop-opacity="0"/>
</linearGradient>
<linearGradient id="paint18_linear_98_79" x1="57.3735" y1="55.5959" x2="64.6794" y2="82.8618" gradientUnits="userSpaceOnUse">
<stop stop-color="#4C4C4C"/>
<stop offset="1" stop-color="#B8B8B8"/>
</linearGradient>
<linearGradient id="paint19_linear_98_79" x1="41.4337" y1="59.867" x2="64.8031" y2="82.7354" gradientUnits="userSpaceOnUse">
<stop stop-color="#565656"/>
<stop offset="1" stop-color="#FAFAFA"/>
</linearGradient>
<linearGradient id="paint20_linear_98_79" x1="73.8907" y1="51.3994" x2="64.5438" y2="82.8215" gradientUnits="userSpaceOnUse">
<stop stop-color="#323232"/>
<stop offset="1" stop-color="#9A9A9A"/>
</linearGradient>
<linearGradient id="paint21_linear_98_79" x1="60.1863" y1="34.2139" x2="73.3882" y2="51.2669" gradientUnits="userSpaceOnUse">
<stop stop-color="#494949"/>
<stop offset="1" stop-color="#999999"/>
</linearGradient>
<linearGradient id="paint22_linear_98_79" x1="51.6534" y1="34.2482" x2="52.5029" y2="37.4187" gradientUnits="userSpaceOnUse">
<stop stop-color="#7C7C7C"/>
<stop offset="1" stop-color="white"/>
</linearGradient>
<radialGradient id="paint23_radial_98_79" cx="0" cy="0" r="1" gradientUnits="userSpaceOnUse" gradientTransform="translate(112.726 105.24) rotate(126.572) scale(15.3724 13.0102)">
<stop offset="0.169422" stop-color="#FFA82F"/>
<stop offset="1" stop-color="#FFAA75"/>
</radialGradient>
<radialGradient id="paint24_radial_98_79" cx="0" cy="0" r="1" gradientUnits="userSpaceOnUse" gradientTransform="translate(114.706 107.173) rotate(151.37) scale(16.1264 14.1138)">
<stop offset="0.169422" stop-color="#FFA82F"/>
<stop offset="1" stop-color="#FFAA75"/>
</radialGradient>
<radialGradient id="paint25_radial_98_79" cx="0" cy="0" r="1" gradientUnits="userSpaceOnUse" gradientTransform="translate(114.706 107.173) rotate(151.37) scale(16.1264 14.1138)">
<stop offset="0.169422" stop-color="#FFA82F"/>
<stop offset="1" stop-color="#FFAA75"/>
</radialGradient>
<radialGradient id="paint26_radial_98_79" cx="0" cy="0" r="1" gradientUnits="userSpaceOnUse" gradientTransform="translate(114.706 107.173) rotate(151.37) scale(16.1264 14.1138)">
<stop offset="0.169422" stop-color="#FFA82F"/>
<stop offset="1" stop-color="#FFAA75"/>
</radialGradient>
<radialGradient id="paint27_radial_98_79" cx="0" cy="0" r="1" gradientUnits="userSpaceOnUse" gradientTransform="translate(114.706 107.173) rotate(151.37) scale(16.1264 14.1138)">
<stop offset="0.169422" stop-color="#FFA82F"/>
<stop offset="1" stop-color="#FFAA75"/>
</radialGradient>
<radialGradient id="paint28_radial_98_79" cx="0" cy="0" r="1" gradientUnits="userSpaceOnUse" gradientTransform="translate(114.706 107.173) rotate(151.37) scale(16.1264 14.1138)">
<stop offset="0.169422" stop-color="#FFA82F"/>
<stop offset="1" stop-color="#FFAA75"/>
</radialGradient>
<radialGradient id="paint29_radial_98_79" cx="0" cy="0" r="1" gradientUnits="userSpaceOnUse" gradientTransform="translate(114.706 107.173) rotate(151.37) scale(16.1264 14.1138)">
<stop offset="0.169422" stop-color="#FFA82F"/>
<stop offset="1" stop-color="#FFAA75"/>
</radialGradient>
<radialGradient id="paint30_radial_98_79" cx="0" cy="0" r="1" gradientUnits="userSpaceOnUse" gradientTransform="translate(114.706 107.173) rotate(151.37) scale(16.1264 14.1138)">
<stop offset="0.169422" stop-color="#FFA82F"/>
<stop offset="1" stop-color="#FFAA75"/>
</radialGradient>
<linearGradient id="paint31_linear_98_79" x1="108.2" y1="100.056" x2="102.466" y2="106.143" gradientUnits="userSpaceOnUse">
<stop stop-color="#494949"/>
<stop offset="1" stop-color="#E9E9E9"/>
</linearGradient>
<linearGradient id="paint32_linear_98_79" x1="111.747" y1="101.128" x2="108.933" y2="108.659" gradientUnits="userSpaceOnUse">
<stop stop-color="white" stop-opacity="0.8"/>
<stop offset="1" stop-color="white" stop-opacity="0"/>
</linearGradient>
<linearGradient id="paint33_linear_98_79" x1="108.933" y1="108.659" x2="104.832" y2="119.633" gradientUnits="userSpaceOnUse">
<stop stop-color="#4C4C4C"/>
<stop offset="1" stop-color="#B8B8B8"/>
</linearGradient>
<linearGradient id="paint34_linear_98_79" x1="102.518" y1="106.262" x2="104.904" y2="119.62" gradientUnits="userSpaceOnUse">
<stop stop-color="#565656"/>
<stop offset="1" stop-color="#FAFAFA"/>
</linearGradient>
<linearGradient id="paint35_linear_98_79" x1="115.525" y1="111.221" x2="104.796" y2="119.586" gradientUnits="userSpaceOnUse">
<stop stop-color="#323232"/>
<stop offset="1" stop-color="#9A9A9A"/>
</linearGradient>
<linearGradient id="paint36_linear_98_79" x1="115.035" y1="102.112" x2="115.387" y2="111.055" gradientUnits="userSpaceOnUse">
<stop stop-color="#494949"/>
<stop offset="1" stop-color="#999999"/>
</linearGradient>
<linearGradient id="paint37_linear_98_79" x1="112.144" y1="100.067" x2="111.667" y2="101.343" gradientUnits="userSpaceOnUse">
<stop stop-color="#7C7C7C"/>
<stop offset="1" stop-color="white"/>
</linearGradient>
</defs>
</svg>
