<svg width="340" height="76" viewBox="0 0 340 76" fill="none" xmlns="http://www.w3.org/2000/svg">
<g filter="url(#filter0_i_54_63)">
<rect width="340" height="76" rx="8" fill="#0A0A13"/>
<rect width="340" height="76" rx="8" fill="url(#paint0_radial_54_63)" fill-opacity="0.2"/>
<rect width="340" height="76" rx="8" fill="url(#paint1_radial_54_63)" fill-opacity="0.2"/>
<g filter="url(#filter1_ii_54_63)">
<path d="M331.485 19.9988L326.706 17.2331L330.091 12.3582C330.156 12.2639 330.181 12.1478 330.16 12.0352C330.14 11.9226 329.994 11.2814 329.9 11.2156L327.68 10.1576C327.586 10.0923 327.469 10.067 327.357 10.0873C327.244 10.1077 327.144 10.172 327.078 10.2661L323.693 15.141L318.818 11.7559C318.724 11.6905 318.608 11.6653 318.495 11.6856C318.382 11.7059 318.282 11.7703 318.217 11.8644L316.506 13.6315C316.441 13.7256 316.527 14.3777 316.547 14.4905C316.568 14.6033 316.632 14.7034 316.726 14.7688L321.601 18.1538L318.11 22.5245C318.045 22.6186 318.125 23.2391 318.146 23.3519C318.166 23.4647 318.23 23.5648 318.325 23.6302L320.627 25.2293C320.722 25.2946 320.838 25.3199 320.951 25.2996C321.063 25.2792 321.164 25.2149 321.229 25.1208L324.614 20.246L329.489 23.631C329.583 23.6964 329.699 23.7217 329.812 23.7013C329.925 23.681 330.025 23.6166 330.09 23.5225L331.689 21.2197C331.755 21.1255 331.78 21.0092 331.76 20.8964C331.739 20.7836 331.579 20.0642 331.485 19.9988Z" fill="url(#paint2_radial_54_63)"/>
<path d="M331.485 19.9988L326.706 17.2331L330.091 12.3582C330.156 12.2639 330.181 12.1478 330.16 12.0352C330.14 11.9226 329.994 11.2814 329.9 11.2156L327.68 10.1576C327.586 10.0923 327.469 10.067 327.357 10.0873C327.244 10.1077 327.144 10.172 327.078 10.2661L323.693 15.141L318.818 11.7559C318.724 11.6905 318.608 11.6653 318.495 11.6856C318.382 11.7059 318.282 11.7703 318.217 11.8644L316.506 13.6315C316.441 13.7256 316.527 14.3777 316.547 14.4905C316.568 14.6033 316.632 14.7034 316.726 14.7688L321.601 18.1538L318.11 22.5245C318.045 22.6186 318.125 23.2391 318.146 23.3519C318.166 23.4647 318.23 23.5648 318.325 23.6302L320.627 25.2293C320.722 25.2946 320.838 25.3199 320.951 25.2996C321.063 25.2792 321.164 25.2149 321.229 25.1208L324.614 20.246L329.489 23.631C329.583 23.6964 329.699 23.7217 329.812 23.7013C329.925 23.681 330.025 23.6166 330.09 23.5225L331.689 21.2197C331.755 21.1255 331.78 21.0092 331.76 20.8964C331.739 20.7836 331.579 20.0642 331.485 19.9988Z" fill="url(#paint3_linear_54_63)" fill-opacity="0.4" style="mix-blend-mode:overlay"/>
</g>
<path d="M326.623 17.2516L326.659 17.2002L330.044 12.3257C330.044 12.3256 330.044 12.3255 330.044 12.3255C330.1 12.2436 330.121 12.143 330.104 12.0454C330.094 11.9913 330.053 11.8046 330.002 11.6233C329.977 11.5327 329.95 11.4448 329.924 11.3762C329.911 11.3417 329.898 11.3134 329.887 11.2925C329.878 11.2756 329.871 11.2675 329.869 11.2643L327.655 10.2097L327.647 10.2056L327.647 10.205C327.565 10.1483 327.465 10.1264 327.367 10.144C327.269 10.1617 327.182 10.2174 327.126 10.299L323.741 15.1738L323.708 15.2212L323.66 15.1883L318.786 11.8033C318.786 11.8033 318.786 11.8033 318.786 11.8033C318.704 11.7466 318.603 11.7247 318.505 11.7423C318.408 11.76 318.321 11.8157 318.264 11.8973L318.259 11.905L318.258 11.9045L316.552 13.6662C316.551 13.67 316.548 13.6797 316.545 13.6989C316.542 13.7224 316.54 13.7533 316.54 13.7901C316.539 13.8636 316.544 13.9554 316.552 14.0491C316.568 14.2366 316.594 14.426 316.604 14.4802C316.622 14.578 316.678 14.6648 316.759 14.7214C316.759 14.7214 316.759 14.7214 316.759 14.7214L321.634 18.1065L321.685 18.1416L321.646 18.1898L318.157 22.5578C318.157 22.5587 318.156 22.561 318.154 22.565C318.152 22.5712 318.151 22.5799 318.149 22.5911C318.145 22.6138 318.143 22.6433 318.143 22.6786C318.141 22.7491 318.146 22.8368 318.153 22.9266C318.168 23.1061 318.193 23.2875 318.202 23.3417C318.22 23.4394 318.276 23.5262 318.357 23.5829L320.66 25.1819C320.66 25.1819 320.66 25.1819 320.66 25.1819C320.742 25.2386 320.843 25.2605 320.94 25.2429C321.038 25.2252 321.125 25.1695 321.182 25.0879C321.182 25.0879 321.182 25.0879 321.182 25.0879L324.567 20.2131L324.6 20.1657L324.647 20.1986L329.522 23.5837C329.522 23.5837 329.522 23.5837 329.522 23.5837C329.603 23.6403 329.704 23.6622 329.802 23.6446C329.9 23.627 329.986 23.5712 330.043 23.4896L330.043 23.4896M326.623 17.2516L330.043 23.4896M326.623 17.2516L326.677 17.283L331.452 20.0465C331.452 20.0465 331.452 20.0466 331.452 20.0466C331.454 20.0486 331.46 20.0568 331.471 20.0779C331.483 20.101 331.496 20.1324 331.51 20.1706C331.538 20.2467 331.567 20.3444 331.594 20.4448C331.648 20.6458 331.693 20.8522 331.703 20.9067C331.721 21.0044 331.699 21.1052 331.642 21.1868C331.642 21.1868 331.642 21.1868 331.642 21.1868M326.623 17.2516L331.642 21.1868M330.043 23.4896L331.642 21.1868M330.043 23.4896L331.642 21.1868" stroke="url(#paint4_linear_54_63)" stroke-width="0.115281" style="mix-blend-mode:overlay"/>
<g filter="url(#filter2_ii_54_63)">
<path d="M331.462 19.9594L326.587 16.5744L329.972 11.6995C330.037 11.6051 330.062 11.4891 330.042 11.3765C330.021 11.2639 329.957 11.1638 329.864 11.098L327.561 9.4989C327.467 9.43354 327.351 9.40825 327.238 9.4286C327.125 9.44894 327.025 9.51326 326.959 9.6074L323.574 14.4822L318.7 11.0972C318.605 11.0318 318.489 11.0065 318.376 11.0269C318.263 11.0472 318.163 11.1115 318.098 11.2057L316.499 13.5085C316.434 13.6027 316.408 13.719 316.429 13.8318C316.449 13.9446 316.513 14.0447 316.607 14.1101L321.482 17.4951L318.097 22.3699C318.032 22.4641 318.007 22.5804 318.027 22.6932C318.047 22.806 318.112 22.9061 318.206 22.9715L320.509 24.5706C320.603 24.6359 320.719 24.6612 320.832 24.6409C320.945 24.6205 321.045 24.5562 321.11 24.4621L324.495 19.5872L329.37 22.9723C329.464 23.0376 329.58 23.0629 329.693 23.0426C329.806 23.0222 329.906 22.9579 329.971 22.8638L331.571 20.5609C331.636 20.4668 331.661 20.3505 331.641 20.2377C331.621 20.1249 331.556 20.0248 331.462 19.9594Z" fill="url(#paint5_radial_54_63)"/>
<path d="M331.462 19.9594L326.587 16.5744L329.972 11.6995C330.037 11.6051 330.062 11.4891 330.042 11.3765C330.021 11.2639 329.957 11.1638 329.864 11.098L327.561 9.4989C327.467 9.43354 327.351 9.40825 327.238 9.4286C327.125 9.44894 327.025 9.51326 326.959 9.6074L323.574 14.4822L318.7 11.0972C318.605 11.0318 318.489 11.0065 318.376 11.0269C318.263 11.0472 318.163 11.1115 318.098 11.2057L316.499 13.5085C316.434 13.6027 316.408 13.719 316.429 13.8318C316.449 13.9446 316.513 14.0447 316.607 14.1101L321.482 17.4951L318.097 22.3699C318.032 22.4641 318.007 22.5804 318.027 22.6932C318.047 22.806 318.112 22.9061 318.206 22.9715L320.509 24.5706C320.603 24.6359 320.719 24.6612 320.832 24.6409C320.945 24.6205 321.045 24.5562 321.11 24.4621L324.495 19.5872L329.37 22.9723C329.464 23.0376 329.58 23.0629 329.693 23.0426C329.806 23.0222 329.906 22.9579 329.971 22.8638L331.571 20.5609C331.636 20.4668 331.661 20.3505 331.641 20.2377C331.621 20.1249 331.556 20.0248 331.462 19.9594Z" fill="url(#paint6_linear_54_63)" fill-opacity="0.4" style="mix-blend-mode:overlay"/>
</g>
<path d="M326.507 16.5888L326.54 16.5415L329.925 11.6669C329.925 11.6669 329.925 11.6668 329.925 11.6668C329.981 11.585 330.002 11.4843 329.985 11.3867C329.967 11.2891 329.912 11.2023 329.831 11.1452C329.831 11.1452 329.831 11.1452 329.831 11.1451L327.528 9.54626C327.446 9.48961 327.346 9.46769 327.248 9.48532C327.15 9.50295 327.063 9.55869 327.007 9.64028L323.622 14.5151L323.589 14.5625L323.541 14.5296L318.667 11.1445C318.667 11.1445 318.667 11.1445 318.667 11.1445C318.585 11.0879 318.484 11.066 318.387 11.0836C318.289 11.1012 318.202 11.157 318.145 11.2386L326.507 16.5888ZM326.507 16.5888L326.554 16.6217L331.429 20.0067C331.429 20.0067 331.429 20.0067 331.429 20.0068C331.511 20.0634 331.567 20.1502 331.584 20.2479C331.602 20.3457 331.58 20.4465 331.523 20.5281C331.523 20.5281 331.523 20.5281 331.523 20.5281M326.507 16.5888L331.523 20.5281M329.924 22.8309L329.924 22.8309C329.867 22.9125 329.781 22.9682 329.683 22.9859C329.585 23.0035 329.484 22.9816 329.403 22.9249C329.403 22.9249 329.403 22.9249 329.403 22.9249L324.528 19.5399L324.481 19.507L324.448 19.5544L321.063 24.4292C321.063 24.4292 321.063 24.4292 321.063 24.4292C321.006 24.5108 320.919 24.5665 320.822 24.5841C320.724 24.6018 320.623 24.5799 320.541 24.5232C320.541 24.5232 320.541 24.5232 320.541 24.5232L318.239 22.9241C318.157 22.8675 318.101 22.7807 318.084 22.683C318.066 22.5852 318.088 22.4844 318.145 22.4028L321.53 17.528L321.562 17.4806L321.515 17.4478L316.64 14.0627C316.64 14.0627 316.64 14.0627 316.64 14.0627C316.559 14.006 316.503 13.9193 316.485 13.8215C316.468 13.7238 316.49 13.623 316.546 13.5414C316.546 13.5414 316.546 13.5414 316.546 13.5414L318.145 11.2386L329.924 22.8309ZM329.924 22.8309L331.523 20.5281M329.924 22.8309L331.523 20.5281" stroke="url(#paint7_linear_54_63)" stroke-width="0.115281" style="mix-blend-mode:overlay"/>
<g filter="url(#filter3_ii_54_63)">
<path d="M280.356 23.9496C278.453 23.5381 276.792 22.3876 275.737 20.7512C274.683 19.1148 274.322 17.1265 274.733 15.2238C275.145 13.321 276.295 11.6596 277.932 10.6051C279.568 9.5506 281.556 9.18934 283.459 9.60081C285.362 10.0123 287.023 11.1628 288.078 12.7992C289.132 14.4356 289.493 16.4239 289.082 18.3267C288.671 20.2294 287.52 21.8908 285.884 22.9453C284.247 23.9998 282.259 24.3611 280.356 23.9496ZM283.847 7.80722C282.669 7.55254 281.453 7.53233 280.267 7.74772C279.082 7.96312 277.95 8.40991 276.938 9.06258C274.892 10.3807 273.454 12.4574 272.94 14.8359C272.425 17.2144 272.877 19.6997 274.195 21.7452C274.848 22.7581 275.693 23.6324 276.684 24.3184C277.675 25.0044 278.791 25.4885 279.968 25.7432C282.347 26.2575 284.832 25.806 286.878 24.4878C288.923 23.1697 290.361 21.093 290.876 18.7145C291.13 17.5368 291.15 16.3205 290.935 15.135C290.72 13.9495 290.273 12.818 289.62 11.8052C288.968 10.7923 288.122 9.91798 287.131 9.23201C286.141 8.54603 285.025 8.06189 283.847 7.80722Z" fill="url(#paint8_radial_54_63)"/>
<path d="M280.356 23.9496C278.453 23.5381 276.792 22.3876 275.737 20.7512C274.683 19.1148 274.322 17.1265 274.733 15.2238C275.145 13.321 276.295 11.6596 277.932 10.6051C279.568 9.5506 281.556 9.18934 283.459 9.60081C285.362 10.0123 287.023 11.1628 288.078 12.7992C289.132 14.4356 289.493 16.4239 289.082 18.3267C288.671 20.2294 287.52 21.8908 285.884 22.9453C284.247 23.9998 282.259 24.3611 280.356 23.9496ZM283.847 7.80722C282.669 7.55254 281.453 7.53233 280.267 7.74772C279.082 7.96312 277.95 8.40991 276.938 9.06258C274.892 10.3807 273.454 12.4574 272.94 14.8359C272.425 17.2144 272.877 19.6997 274.195 21.7452C274.848 22.7581 275.693 23.6324 276.684 24.3184C277.675 25.0044 278.791 25.4885 279.968 25.7432C282.347 26.2575 284.832 25.806 286.878 24.4878C288.923 23.1697 290.361 21.093 290.876 18.7145C291.13 17.5368 291.15 16.3205 290.935 15.135C290.72 13.9495 290.273 12.818 289.62 11.8052C288.968 10.7923 288.122 9.91798 287.131 9.23201C286.141 8.54603 285.025 8.06189 283.847 7.80722Z" fill="url(#paint9_linear_54_63)" fill-opacity="0.4" style="mix-blend-mode:overlay"/>
</g>
<path d="M275.611 20.8325C276.687 22.5023 278.383 23.6763 280.324 24.0962C282.266 24.5161 284.295 24.1475 285.965 23.0714C287.635 21.9953 288.809 20.3 289.229 18.3584C289.648 16.4167 289.28 14.3878 288.204 12.7179C287.128 11.0481 285.432 9.87408 283.491 9.4542C281.549 9.03432 279.52 9.40296 277.85 10.479C276.18 11.5551 275.006 13.2504 274.587 15.1921C274.167 17.1337 274.535 19.1626 275.611 20.8325ZM280.294 7.8953C281.46 7.68343 282.657 7.70332 283.815 7.95383C284.974 8.20434 286.071 8.68057 287.046 9.35532C288.02 10.0301 288.852 10.8902 289.494 11.8864C290.136 12.8827 290.576 13.9957 290.787 15.1618C290.999 16.3279 290.979 17.5244 290.729 18.6828C290.223 21.0224 288.808 23.0652 286.796 24.3618C284.784 25.6583 282.34 26.1025 280 25.5966C278.842 25.3461 277.744 24.8699 276.769 24.1951C275.795 23.5203 274.963 22.6603 274.321 21.664C273.024 19.6519 272.58 17.2072 273.086 14.8676C273.592 12.528 275.007 10.4853 277.019 9.18867C278.015 8.54666 279.128 8.10718 280.294 7.8953Z" stroke="url(#paint10_linear_54_63)" stroke-width="0.3" style="mix-blend-mode:overlay"/>
<g filter="url(#filter4_ii_54_63)">
<path d="M280.544 23.0817C278.641 22.6702 276.979 21.5197 275.925 19.8833C274.87 18.2469 274.509 16.2586 274.921 14.3559C275.332 12.4531 276.483 10.7917 278.119 9.7372C279.755 8.6827 281.744 8.32144 283.647 8.73291C285.549 9.14438 287.211 10.2949 288.265 11.9313C289.32 13.5677 289.681 15.556 289.269 17.4588C288.858 19.3615 287.708 21.0229 286.071 22.0774C284.435 23.1319 282.446 23.4932 280.544 23.0817ZM284.034 6.93931C282.857 6.68464 281.64 6.66442 280.455 6.87982C279.269 7.09521 278.138 7.542 277.125 8.19468C275.08 9.51281 273.641 11.5895 273.127 13.968C272.613 16.3465 273.064 18.8318 274.382 20.8773C275.035 21.8902 275.881 22.7645 276.871 23.4505C277.862 24.1365 278.978 24.6206 280.156 24.8753C282.534 25.3896 285.02 24.9381 287.065 23.6199C289.111 22.3018 290.549 20.2251 291.063 17.8466C291.318 16.6689 291.338 15.4526 291.123 14.2671C290.907 13.0816 290.46 11.9501 289.808 10.9373C289.155 9.92444 288.309 9.05008 287.319 8.3641C286.328 7.67813 285.212 7.19399 284.034 6.93931Z" fill="url(#paint11_radial_54_63)"/>
<path d="M280.544 23.0817C278.641 22.6702 276.979 21.5197 275.925 19.8833C274.87 18.2469 274.509 16.2586 274.921 14.3559C275.332 12.4531 276.483 10.7917 278.119 9.7372C279.755 8.6827 281.744 8.32144 283.647 8.73291C285.549 9.14438 287.211 10.2949 288.265 11.9313C289.32 13.5677 289.681 15.556 289.269 17.4588C288.858 19.3615 287.708 21.0229 286.071 22.0774C284.435 23.1319 282.446 23.4932 280.544 23.0817ZM284.034 6.93931C282.857 6.68464 281.64 6.66442 280.455 6.87982C279.269 7.09521 278.138 7.542 277.125 8.19468C275.08 9.51281 273.641 11.5895 273.127 13.968C272.613 16.3465 273.064 18.8318 274.382 20.8773C275.035 21.8902 275.881 22.7645 276.871 23.4505C277.862 24.1365 278.978 24.6206 280.156 24.8753C282.534 25.3896 285.02 24.9381 287.065 23.6199C289.111 22.3018 290.549 20.2251 291.063 17.8466C291.318 16.6689 291.338 15.4526 291.123 14.2671C290.907 13.0816 290.46 11.9501 289.808 10.9373C289.155 9.92444 288.309 9.05008 287.319 8.3641C286.328 7.67813 285.212 7.19399 284.034 6.93931Z" fill="url(#paint12_linear_54_63)" fill-opacity="0.4" style="mix-blend-mode:overlay"/>
</g>
<path d="M275.799 19.9646C276.875 21.6344 278.57 22.8084 280.512 23.2283C282.454 23.6482 284.483 23.2796 286.152 22.2035C287.822 21.1274 288.996 19.4321 289.416 17.4905C289.836 15.5488 289.467 13.5199 288.391 11.85C287.315 10.1802 285.62 9.00618 283.678 8.5863C281.737 8.16642 279.708 8.53506 278.038 9.61111C276.368 10.6872 275.194 12.3825 274.774 14.3242C274.354 16.2658 274.723 18.2947 275.799 19.9646ZM280.482 7.0274C281.648 6.81553 282.844 6.83541 284.003 7.08592C285.161 7.33643 286.259 7.81266 287.233 8.48742C288.208 9.16218 289.04 10.0223 289.682 11.0185C290.324 12.0148 290.763 13.1278 290.975 14.2939C291.187 15.46 291.167 16.6565 290.916 17.8149C290.411 20.1545 288.996 22.1973 286.984 23.4938C284.972 24.7904 282.527 25.2346 280.187 24.7287C279.029 24.4782 277.931 24.002 276.957 23.3272C275.982 22.6524 275.151 21.7924 274.509 20.7961C273.212 18.784 272.768 16.3393 273.274 13.9997C273.78 11.6601 275.194 9.61735 277.206 8.32076C278.203 7.67876 279.316 7.23928 280.482 7.0274Z" stroke="url(#paint13_linear_54_63)" stroke-width="0.3" style="mix-blend-mode:overlay"/>
<g filter="url(#filter5_ii_54_63)">
<rect x="280" y="16" width="44" height="44" rx="8" fill="url(#paint14_linear_54_63)"/>
<g filter="url(#filter6_ii_54_63)">
<path d="M310 37.5L303.933 31.3807C303.814 31.26 303.672 31.1643 303.515 31.0989C303.359 31.0336 303.191 31 303.022 31C302.853 31 302.685 31.0336 302.529 31.0989C302.373 31.1643 302.231 31.26 302.111 31.3807C301.991 31.5014 301.896 31.6447 301.831 31.8024C301.767 31.9601 301.733 32.1292 301.733 32.2999C301.733 32.4706 301.767 32.6396 301.831 32.7973C301.896 32.955 301.991 33.0983 302.111 33.219L305.066 36.2L295.289 36.2C294.947 36.2 294.619 36.337 294.378 36.5808C294.136 36.8246 294 37.1552 294 37.5C294 37.8448 294.136 38.1755 294.378 38.4193C294.619 38.6631 294.947 38.8001 295.289 38.8001L305.066 38.8001L302.111 41.7811C301.991 41.9015 301.895 42.0448 301.83 42.2025C301.765 42.3602 301.732 42.5294 301.732 42.7002C301.732 42.8711 301.765 43.0402 301.83 43.198C301.895 43.3557 301.991 43.4989 302.111 43.6194C302.353 43.8631 302.68 44 303.022 44C303.364 44 303.692 43.8631 303.933 43.6194L310 37.5Z" fill="url(#paint15_linear_54_63)"/>
</g>
<g filter="url(#filter7_ii_54_63)">
<path d="M319.76 67.87C316.961 67.2649 314.518 65.5728 312.967 63.166C311.416 60.7593 310.885 57.835 311.49 55.0365C312.095 52.238 313.787 49.7946 316.194 48.2437C318.601 46.6927 321.525 46.1614 324.324 46.7666C327.122 47.3718 329.566 49.0638 331.116 51.4706C332.667 53.8773 333.199 56.8016 332.593 59.6001C331.988 62.3986 330.296 64.8421 327.889 66.393C325.483 67.9439 322.558 68.4752 319.76 67.87ZM324.894 44.1287C323.162 43.7541 321.373 43.7244 319.629 44.0412C317.886 44.358 316.222 45.0151 314.732 45.975C311.724 47.9136 309.609 50.968 308.852 54.4661C308.096 57.9642 308.76 61.6195 310.698 64.628C311.658 66.1176 312.902 67.4036 314.359 68.4125C315.816 69.4214 317.457 70.1334 319.19 70.508C322.688 71.2644 326.343 70.6003 329.351 68.6616C332.36 66.723 334.475 63.6687 335.231 60.1706C335.606 58.4385 335.636 56.6496 335.319 54.906C335.002 53.1624 334.345 51.4983 333.385 50.0087C332.425 48.519 331.181 47.2331 329.724 46.2242C328.267 45.2153 326.626 44.5032 324.894 44.1287Z" fill="url(#paint16_radial_54_63)"/>
<path d="M319.76 67.87C316.961 67.2649 314.518 65.5728 312.967 63.166C311.416 60.7593 310.885 57.835 311.49 55.0365C312.095 52.238 313.787 49.7946 316.194 48.2437C318.601 46.6927 321.525 46.1614 324.324 46.7666C327.122 47.3718 329.566 49.0638 331.116 51.4706C332.667 53.8773 333.199 56.8016 332.593 59.6001C331.988 62.3986 330.296 64.8421 327.889 66.393C325.483 67.9439 322.558 68.4752 319.76 67.87ZM324.894 44.1287C323.162 43.7541 321.373 43.7244 319.629 44.0412C317.886 44.358 316.222 45.0151 314.732 45.975C311.724 47.9136 309.609 50.968 308.852 54.4661C308.096 57.9642 308.76 61.6195 310.698 64.628C311.658 66.1176 312.902 67.4036 314.359 68.4125C315.816 69.4214 317.457 70.1334 319.19 70.508C322.688 71.2644 326.343 70.6003 329.351 68.6616C332.36 66.723 334.475 63.6687 335.231 60.1706C335.606 58.4385 335.636 56.6496 335.319 54.906C335.002 53.1624 334.345 51.4983 333.385 50.0087C332.425 48.519 331.181 47.2331 329.724 46.2242C328.267 45.2153 326.626 44.5032 324.894 44.1287Z" fill="url(#paint17_linear_54_63)" fill-opacity="0.4" style="mix-blend-mode:overlay"/>
</g>
<path d="M312.841 63.2473C314.413 65.6875 316.891 67.4031 319.728 68.0166C322.566 68.6302 325.531 68.0915 327.971 66.5191C330.411 64.9466 332.127 62.4692 332.74 59.6318C333.354 56.7944 332.815 53.8295 331.243 51.3893C329.67 48.9492 327.193 47.2336 324.355 46.62C321.518 46.0064 318.553 46.5451 316.113 48.1176C313.673 49.69 311.957 52.1675 311.343 55.0048C310.73 57.8422 311.269 60.8071 312.841 63.2473ZM319.656 44.1888C321.38 43.8755 323.149 43.9049 324.862 44.2753C326.575 44.6457 328.198 45.3498 329.639 46.3475C331.08 47.3452 332.31 48.6169 333.259 50.0899C334.208 51.563 334.858 53.2086 335.171 54.9328C335.485 56.657 335.455 58.426 335.085 60.1389C334.337 63.5981 332.245 66.6185 329.27 68.5356C326.295 70.4526 322.68 71.1094 319.221 70.3614C317.508 69.991 315.885 69.2868 314.445 68.2891C313.004 67.2915 311.774 66.0198 310.825 64.5467C308.907 61.5717 308.251 57.957 308.999 54.4978C309.747 51.0386 311.838 48.0182 314.813 46.1011C316.286 45.1518 317.932 44.502 319.656 44.1888Z" stroke="url(#paint18_linear_54_63)" stroke-width="0.3" style="mix-blend-mode:overlay"/>
<g filter="url(#filter8_ii_54_63)">
<path d="M320.036 66.5936C317.238 65.9884 314.794 64.2964 313.243 61.8896C311.692 59.4829 311.161 56.5586 311.766 53.7601C312.371 50.9616 314.063 48.5181 316.47 46.9672C318.877 45.4163 321.801 44.885 324.6 45.4902C327.398 46.0953 329.842 47.7874 331.393 50.1942C332.943 52.6009 333.475 55.5252 332.87 58.3237C332.264 61.1222 330.572 63.5656 328.166 65.1165C325.759 66.6675 322.835 67.1988 320.036 66.5936ZM325.17 42.8522C323.438 42.4777 321.649 42.4479 319.906 42.7647C318.162 43.0815 316.498 43.7386 315.008 44.6986C312 46.6372 309.885 49.6915 309.128 53.1896C308.372 56.6878 309.036 60.3431 310.975 63.3515C311.934 64.8412 313.178 66.1271 314.635 67.136C316.092 68.1449 317.734 68.857 319.466 69.2315C322.964 69.988 326.619 69.3238 329.628 67.3852C332.636 65.4466 334.751 62.3922 335.508 58.8941C335.882 57.162 335.912 55.3731 335.595 53.6295C335.278 51.886 334.621 50.2219 333.661 48.7322C332.701 47.2426 331.457 45.9566 330 44.9477C328.544 43.9389 326.902 43.2268 325.17 42.8522Z" fill="url(#paint19_radial_54_63)"/>
<path d="M320.036 66.5936C317.238 65.9884 314.794 64.2964 313.243 61.8896C311.692 59.4829 311.161 56.5586 311.766 53.7601C312.371 50.9616 314.063 48.5181 316.47 46.9672C318.877 45.4163 321.801 44.885 324.6 45.4902C327.398 46.0953 329.842 47.7874 331.393 50.1942C332.943 52.6009 333.475 55.5252 332.87 58.3237C332.264 61.1222 330.572 63.5656 328.166 65.1165C325.759 66.6675 322.835 67.1988 320.036 66.5936ZM325.17 42.8522C323.438 42.4777 321.649 42.4479 319.906 42.7647C318.162 43.0815 316.498 43.7386 315.008 44.6986C312 46.6372 309.885 49.6915 309.128 53.1896C308.372 56.6878 309.036 60.3431 310.975 63.3515C311.934 64.8412 313.178 66.1271 314.635 67.136C316.092 68.1449 317.734 68.857 319.466 69.2315C322.964 69.988 326.619 69.3238 329.628 67.3852C332.636 65.4466 334.751 62.3922 335.508 58.8941C335.882 57.162 335.912 55.3731 335.595 53.6295C335.278 51.886 334.621 50.2219 333.661 48.7322C332.701 47.2426 331.457 45.9566 330 44.9477C328.544 43.9389 326.902 43.2268 325.17 42.8522Z" fill="url(#paint20_linear_54_63)" fill-opacity="0.4" style="mix-blend-mode:overlay"/>
</g>
<path d="M313.117 61.9709C314.69 64.411 317.167 66.1266 320.004 66.7402C322.842 67.3538 325.807 66.8151 328.247 65.2426C330.687 63.6702 332.403 61.1928 333.016 58.3554C333.63 55.518 333.091 52.5531 331.519 50.1129C329.946 47.6727 327.469 45.9571 324.631 45.3436C321.794 44.73 318.829 45.2687 316.389 46.8411C313.949 48.4136 312.233 50.891 311.62 53.7284C311.006 56.5658 311.545 59.5307 313.117 61.9709ZM319.932 42.9123C321.657 42.599 323.426 42.6285 325.138 42.9988C326.851 43.3692 328.474 44.0734 329.915 45.0711C331.356 46.0687 332.586 47.3404 333.535 48.8135C334.484 50.2866 335.134 51.9322 335.447 53.6564C335.761 55.3806 335.731 57.1496 335.361 58.8624C334.613 62.3216 332.521 65.342 329.546 67.2591C326.571 69.1762 322.957 69.833 319.497 69.0849C317.785 68.7145 316.161 68.0104 314.721 67.0127C313.28 66.015 312.05 64.7434 311.101 63.2703C309.184 60.2953 308.527 56.6806 309.275 53.2214C310.023 49.7621 312.114 46.7417 315.089 44.8246C316.563 43.8754 318.208 43.2256 319.932 42.9123Z" stroke="url(#paint21_linear_54_63)" stroke-width="0.3" style="mix-blend-mode:overlay"/>
</g>
<g filter="url(#filter9_ii_54_63)">
<path d="M287.58 60.7663L278.035 50.0267L290.384 40.7504C290.621 40.5701 290.777 40.3037 290.819 40.0089C290.861 39.7141 291.024 38.0105 290.846 37.7713L286.225 33.3422C286.046 33.1037 285.779 32.9462 285.484 32.9042C285.189 32.8623 284.889 32.9393 284.65 33.1185L272.302 42.3948L263.026 30.0464C262.846 29.8079 262.58 29.6504 262.284 29.6084C261.989 29.5665 261.689 29.6435 261.451 29.8227L255.779 32.7896C255.541 32.9688 255.221 34.6505 255.179 34.9459C255.137 35.2412 255.215 35.5411 255.394 35.7796L264.67 48.1281L252.471 56.0719C252.233 56.2511 251.926 57.8502 251.884 58.1455C251.842 58.4408 251.919 58.7407 252.098 58.9793L256.48 64.8126C256.659 65.0511 256.926 65.2086 257.221 65.2506C257.516 65.2925 257.816 65.2155 258.055 65.0363L270.403 55.76L279.68 68.1084C279.859 68.3469 280.125 68.5044 280.421 68.5464C280.716 68.5883 281.016 68.5113 281.254 68.3322L287.088 63.9501C287.326 63.7709 287.484 63.5043 287.526 63.209C287.568 62.9136 287.759 61.0048 287.58 60.7663Z" fill="url(#paint22_radial_54_63)"/>
<path d="M287.58 60.7663L278.035 50.0267L290.384 40.7504C290.621 40.5701 290.777 40.3037 290.819 40.0089C290.861 39.7141 291.024 38.0105 290.846 37.7713L286.225 33.3422C286.046 33.1037 285.779 32.9462 285.484 32.9042C285.189 32.8623 284.889 32.9393 284.65 33.1185L272.302 42.3948L263.026 30.0464C262.846 29.8079 262.58 29.6504 262.284 29.6084C261.989 29.5665 261.689 29.6435 261.451 29.8227L255.779 32.7896C255.541 32.9688 255.221 34.6505 255.179 34.9459C255.137 35.2412 255.215 35.5411 255.394 35.7796L264.67 48.1281L252.471 56.0719C252.233 56.2511 251.926 57.8502 251.884 58.1455C251.842 58.4408 251.919 58.7407 252.098 58.9793L256.48 64.8126C256.659 65.0511 256.926 65.2086 257.221 65.2506C257.516 65.2925 257.816 65.2155 258.055 65.0363L270.403 55.76L279.68 68.1084C279.859 68.3469 280.125 68.5044 280.421 68.5464C280.716 68.5883 281.016 68.5113 281.254 68.3322L287.088 63.9501C287.326 63.7709 287.484 63.5043 287.526 63.209C287.568 62.9136 287.759 61.0048 287.58 60.7663Z" fill="url(#paint23_linear_54_63)" fill-opacity="0.4" style="mix-blend-mode:overlay"/>
</g>
<path d="M277.945 49.9068L277.815 50.0046L277.923 50.1264L287.46 60.8573C287.46 60.8574 287.46 60.8575 287.46 60.8576C287.462 60.8639 287.473 60.8899 287.482 60.9508C287.493 61.0176 287.499 61.1059 287.503 61.2116C287.509 61.4223 287.501 61.6875 287.486 61.9579C287.455 62.4987 287.397 63.0454 287.377 63.1879C287.341 63.4438 287.204 63.6748 286.998 63.8301L281.164 68.2122C280.958 68.3674 280.698 68.4342 280.442 68.3979C280.186 68.3615 279.955 68.225 279.8 68.0183L270.523 55.6699L270.433 55.55L270.313 55.64L257.965 64.9164C257.758 65.0716 257.498 65.1384 257.242 65.1021C256.986 65.0657 256.755 64.9292 256.6 64.7225L252.218 58.8892C252.063 58.6825 251.996 58.4226 252.032 58.1666C252.052 58.0248 252.139 57.5561 252.25 57.1007C252.305 56.8731 252.366 56.6526 252.426 56.4796C252.457 56.3929 252.486 56.3215 252.513 56.2685C252.527 56.242 252.538 56.2223 252.548 56.2084C252.555 56.1995 252.559 56.1948 252.561 56.1927L264.752 48.2538L264.886 48.1662L264.79 48.038L255.514 35.6895C255.358 35.4828 255.292 35.2229 255.328 34.967C255.348 34.8249 255.437 34.3354 255.551 33.8591C255.608 33.621 255.671 33.39 255.733 33.2091C255.764 33.1184 255.793 33.0437 255.821 32.9883C255.843 32.9432 255.859 32.9217 255.866 32.9135L261.52 29.9556L261.531 29.9499L261.541 29.9426C261.748 29.7874 262.007 29.7206 262.263 29.7569C262.519 29.7933 262.75 29.9298 262.906 30.1365L272.182 42.4849L272.272 42.6049L272.392 42.5148L284.74 33.2384C284.947 33.0832 285.207 33.0164 285.463 33.0528C285.719 33.0891 285.95 33.2256 286.105 33.4323L286.113 33.4421L286.121 33.4505L290.728 37.8659C290.732 37.8758 290.741 37.901 290.75 37.9503C290.761 38.0113 290.768 38.0914 290.773 38.1872C290.782 38.3783 290.777 38.6175 290.765 38.862C290.741 39.3511 290.69 39.846 290.67 39.9878C290.634 40.2434 290.498 40.4744 290.293 40.6308C290.293 40.6308 290.293 40.6309 290.293 40.631L277.945 49.9068Z" stroke="url(#paint24_linear_54_63)" stroke-width="0.3" style="mix-blend-mode:overlay"/>
<g filter="url(#filter10_ii_54_63)">
<path d="M287.557 60.6506L278.28 48.3021L290.629 39.0258C290.866 38.8455 291.022 38.5791 291.064 38.2843C291.106 37.9895 291.03 37.6901 290.852 37.4509L286.47 31.6176C286.291 31.3791 286.025 31.2216 285.729 31.1796C285.434 31.1377 285.134 31.2147 284.895 31.3939L272.547 40.6702L263.271 28.3218C263.091 28.0833 262.825 27.9258 262.53 27.8838C262.234 27.8419 261.934 27.9189 261.696 28.098L255.863 32.4801C255.624 32.6593 255.466 32.9259 255.425 33.2212C255.383 33.5166 255.46 33.8165 255.639 34.055L264.915 46.4034L252.567 55.6798C252.328 55.859 252.171 56.1256 252.129 56.4209C252.087 56.7162 252.164 57.0161 252.343 57.2547L256.725 63.088C256.904 63.3265 257.171 63.484 257.466 63.5259C257.761 63.5679 258.061 63.4908 258.3 63.3117L270.648 54.0354L279.925 66.3838C280.104 66.6223 280.37 66.7798 280.666 66.8218C280.961 66.8637 281.261 66.7867 281.5 66.6075L287.333 62.2254C287.571 62.0462 287.729 61.7797 287.771 61.4843C287.813 61.189 287.736 60.8891 287.557 60.6506Z" fill="url(#paint25_radial_54_63)"/>
<path d="M287.557 60.6506L278.28 48.3021L290.629 39.0258C290.866 38.8455 291.022 38.5791 291.064 38.2843C291.106 37.9895 291.03 37.6901 290.852 37.4509L286.47 31.6176C286.291 31.3791 286.025 31.2216 285.729 31.1796C285.434 31.1377 285.134 31.2147 284.895 31.3939L272.547 40.6702L263.271 28.3218C263.091 28.0833 262.825 27.9258 262.53 27.8838C262.234 27.8419 261.934 27.9189 261.696 28.098L255.863 32.4801C255.624 32.6593 255.466 32.9259 255.425 33.2212C255.383 33.5166 255.46 33.8165 255.639 34.055L264.915 46.4034L252.567 55.6798C252.328 55.859 252.171 56.1256 252.129 56.4209C252.087 56.7162 252.164 57.0161 252.343 57.2547L256.725 63.088C256.904 63.3265 257.171 63.484 257.466 63.5259C257.761 63.5679 258.061 63.4908 258.3 63.3117L270.648 54.0354L279.925 66.3838C280.104 66.6223 280.37 66.7798 280.666 66.8218C280.961 66.8637 281.261 66.7867 281.5 66.6075L287.333 62.2254C287.571 62.0462 287.729 61.7797 287.771 61.4843C287.813 61.189 287.736 60.8891 287.557 60.6506Z" fill="url(#paint26_linear_54_63)" fill-opacity="0.4" style="mix-blend-mode:overlay"/>
</g>
<path d="M278.19 48.1822L278.07 48.2723L278.16 48.3922L287.437 60.7407C287.592 60.9474 287.659 61.2073 287.622 61.4632C287.586 61.7192 287.449 61.9502 287.243 62.1055L281.409 66.4876C281.203 66.6428 280.943 66.7096 280.687 66.6733C280.431 66.6369 280.2 66.5004 280.045 66.2937L270.768 53.9453L270.678 53.8253L270.558 53.9154L258.21 63.1918C258.003 63.347 257.743 63.4138 257.487 63.3774C257.231 63.3411 257 63.2045 256.845 62.9979L252.463 57.1646C252.308 56.9579 252.241 56.6979 252.277 56.442C252.314 56.186 252.45 55.955 252.657 55.7997L265.005 46.5234L265.125 46.4333L265.035 46.3133L255.759 33.9649C255.759 33.9649 255.759 33.9649 255.759 33.9649C255.603 33.7582 255.537 33.4983 255.573 33.2423C255.609 32.9864 255.746 32.7554 255.953 32.6L261.786 28.218C261.993 28.0627 262.253 27.996 262.508 28.0323C262.764 28.0687 262.995 28.2052 263.151 28.4119C263.151 28.4119 263.151 28.4119 263.151 28.4119L272.427 40.7603L272.517 40.8802L272.637 40.7901L284.986 31.5138C285.192 31.3586 285.452 31.2918 285.708 31.3281C285.964 31.3645 286.195 31.501 286.35 31.7077L290.732 37.5403C290.732 37.5404 290.732 37.5405 290.732 37.5406C290.886 37.748 290.952 38.0076 290.915 38.2632C290.879 38.5188 290.744 38.7498 290.538 38.9061C290.538 38.9062 290.538 38.9063 290.538 38.9064L278.19 48.1822Z" stroke="url(#paint27_linear_54_63)" stroke-width="0.3" style="mix-blend-mode:overlay"/>
</g>
<defs>
<filter id="filter0_i_54_63" x="0" y="0" width="340" height="77" filterUnits="userSpaceOnUse" color-interpolation-filters="sRGB">
<feFlood flood-opacity="0" result="BackgroundImageFix"/>
<feBlend mode="normal" in="SourceGraphic" in2="BackgroundImageFix" result="shape"/>
<feColorMatrix in="SourceAlpha" type="matrix" values="0 0 0 0 0 0 0 0 0 0 0 0 0 0 0 0 0 0 127 0" result="hardAlpha"/>
<feOffset dy="1"/>
<feGaussianBlur stdDeviation="0.75"/>
<feComposite in2="hardAlpha" operator="arithmetic" k2="-1" k3="1"/>
<feColorMatrix type="matrix" values="0 0 0 0 1 0 0 0 0 1 0 0 0 0 1 0 0 0 0.49 0"/>
<feBlend mode="overlay" in2="shape" result="effect1_innerShadow_54_63"/>
</filter>
<filter id="filter1_ii_54_63" x="316.482" y="1.61094" width="15.2847" height="32.4141" filterUnits="userSpaceOnUse" color-interpolation-filters="sRGB">
<feFlood flood-opacity="0" result="BackgroundImageFix"/>
<feBlend mode="normal" in="SourceGraphic" in2="BackgroundImageFix" result="shape"/>
<feColorMatrix in="SourceAlpha" type="matrix" values="0 0 0 0 0 0 0 0 0 0 0 0 0 0 0 0 0 0 127 0" result="hardAlpha"/>
<feOffset dy="-8.46951"/>
<feGaussianBlur stdDeviation="10.1831"/>
<feComposite in2="hardAlpha" operator="arithmetic" k2="-1" k3="1"/>
<feColorMatrix type="matrix" values="0 0 0 0 0 0 0 0 0 0 0 0 0 0 0 0 0 0 0.45 0"/>
<feBlend mode="overlay" in2="shape" result="effect1_innerShadow_54_63"/>
<feColorMatrix in="SourceAlpha" type="matrix" values="0 0 0 0 0 0 0 0 0 0 0 0 0 0 0 0 0 0 127 0" result="hardAlpha"/>
<feOffset dy="8.71861"/>
<feGaussianBlur stdDeviation="5.36818"/>
<feComposite in2="hardAlpha" operator="arithmetic" k2="-1" k3="1"/>
<feColorMatrix type="matrix" values="0 0 0 0 1 0 0 0 0 1 0 0 0 0 1 0 0 0 1 0"/>
<feBlend mode="overlay" in2="effect1_innerShadow_54_63" result="effect2_innerShadow_54_63"/>
</filter>
<filter id="filter2_ii_54_63" x="316.422" y="0.952219" width="15.2261" height="32.4141" filterUnits="userSpaceOnUse" color-interpolation-filters="sRGB">
<feFlood flood-opacity="0" result="BackgroundImageFix"/>
<feBlend mode="normal" in="SourceGraphic" in2="BackgroundImageFix" result="shape"/>
<feColorMatrix in="SourceAlpha" type="matrix" values="0 0 0 0 0 0 0 0 0 0 0 0 0 0 0 0 0 0 127 0" result="hardAlpha"/>
<feOffset dy="-8.46951"/>
<feGaussianBlur stdDeviation="10.1831"/>
<feComposite in2="hardAlpha" operator="arithmetic" k2="-1" k3="1"/>
<feColorMatrix type="matrix" values="0 0 0 0 0 0 0 0 0 0 0 0 0 0 0 0 0 0 0.45 0"/>
<feBlend mode="overlay" in2="shape" result="effect1_innerShadow_54_63"/>
<feColorMatrix in="SourceAlpha" type="matrix" values="0 0 0 0 0 0 0 0 0 0 0 0 0 0 0 0 0 0 127 0" result="hardAlpha"/>
<feOffset dy="8.71861"/>
<feGaussianBlur stdDeviation="5.36818"/>
<feComposite in2="hardAlpha" operator="arithmetic" k2="-1" k3="1"/>
<feColorMatrix type="matrix" values="0 0 0 0 1 0 0 0 0 1 0 0 0 0 1 0 0 0 1 0"/>
<feBlend mode="overlay" in2="effect1_innerShadow_54_63" result="effect2_innerShadow_54_63"/>
</filter>
<filter id="filter3_ii_54_63" x="272.732" y="-14.4407" width="18.3506" height="63.0801" filterUnits="userSpaceOnUse" color-interpolation-filters="sRGB">
<feFlood flood-opacity="0" result="BackgroundImageFix"/>
<feBlend mode="normal" in="SourceGraphic" in2="BackgroundImageFix" result="shape"/>
<feColorMatrix in="SourceAlpha" type="matrix" values="0 0 0 0 0 0 0 0 0 0 0 0 0 0 0 0 0 0 127 0" result="hardAlpha"/>
<feOffset dy="-22.0406"/>
<feGaussianBlur stdDeviation="26.5"/>
<feComposite in2="hardAlpha" operator="arithmetic" k2="-1" k3="1"/>
<feColorMatrix type="matrix" values="0 0 0 0 0 0 0 0 0 0 0 0 0 0 0 0 0 0 0.45 0"/>
<feBlend mode="overlay" in2="shape" result="effect1_innerShadow_54_63"/>
<feColorMatrix in="SourceAlpha" type="matrix" values="0 0 0 0 0 0 0 0 0 0 0 0 0 0 0 0 0 0 127 0" result="hardAlpha"/>
<feOffset dy="22.6889"/>
<feGaussianBlur stdDeviation="13.9699"/>
<feComposite in2="hardAlpha" operator="arithmetic" k2="-1" k3="1"/>
<feColorMatrix type="matrix" values="0 0 0 0 1 0 0 0 0 1 0 0 0 0 1 0 0 0 1 0"/>
<feBlend mode="overlay" in2="effect1_innerShadow_54_63" result="effect2_innerShadow_54_63"/>
</filter>
<filter id="filter4_ii_54_63" x="272.92" y="-15.3086" width="18.3506" height="63.0801" filterUnits="userSpaceOnUse" color-interpolation-filters="sRGB">
<feFlood flood-opacity="0" result="BackgroundImageFix"/>
<feBlend mode="normal" in="SourceGraphic" in2="BackgroundImageFix" result="shape"/>
<feColorMatrix in="SourceAlpha" type="matrix" values="0 0 0 0 0 0 0 0 0 0 0 0 0 0 0 0 0 0 127 0" result="hardAlpha"/>
<feOffset dy="-22.0406"/>
<feGaussianBlur stdDeviation="26.5"/>
<feComposite in2="hardAlpha" operator="arithmetic" k2="-1" k3="1"/>
<feColorMatrix type="matrix" values="0 0 0 0 0 0 0 0 0 0 0 0 0 0 0 0 0 0 0.45 0"/>
<feBlend mode="overlay" in2="shape" result="effect1_innerShadow_54_63"/>
<feColorMatrix in="SourceAlpha" type="matrix" values="0 0 0 0 0 0 0 0 0 0 0 0 0 0 0 0 0 0 127 0" result="hardAlpha"/>
<feOffset dy="22.6889"/>
<feGaussianBlur stdDeviation="13.9699"/>
<feComposite in2="hardAlpha" operator="arithmetic" k2="-1" k3="1"/>
<feColorMatrix type="matrix" values="0 0 0 0 1 0 0 0 0 1 0 0 0 0 1 0 0 0 1 0"/>
<feBlend mode="overlay" in2="effect1_innerShadow_54_63" result="effect2_innerShadow_54_63"/>
</filter>
<filter id="filter5_ii_54_63" x="280" y="11" width="55.8125" height="59.8129" filterUnits="userSpaceOnUse" color-interpolation-filters="sRGB">
<feFlood flood-opacity="0" result="BackgroundImageFix"/>
<feBlend mode="normal" in="SourceGraphic" in2="BackgroundImageFix" result="shape"/>
<feColorMatrix in="SourceAlpha" type="matrix" values="0 0 0 0 0 0 0 0 0 0 0 0 0 0 0 0 0 0 127 0" result="hardAlpha"/>
<feOffset dy="-5"/>
<feGaussianBlur stdDeviation="4.45"/>
<feComposite in2="hardAlpha" operator="arithmetic" k2="-1" k3="1"/>
<feColorMatrix type="matrix" values="0 0 0 0 0 0 0 0 0 0 0 0 0 0 0 0 0 0 0.36 0"/>
<feBlend mode="overlay" in2="shape" result="effect1_innerShadow_54_63"/>
<feColorMatrix in="SourceAlpha" type="matrix" values="0 0 0 0 0 0 0 0 0 0 0 0 0 0 0 0 0 0 127 0" result="hardAlpha"/>
<feOffset dy="-1"/>
<feGaussianBlur stdDeviation="0.65"/>
<feComposite in2="hardAlpha" operator="arithmetic" k2="-1" k3="1"/>
<feColorMatrix type="matrix" values="0 0 0 0 1 0 0 0 0 1 0 0 0 0 1 0 0 0 0.49 0"/>
<feBlend mode="overlay" in2="effect1_innerShadow_54_63" result="effect2_innerShadow_54_63"/>
</filter>
<filter id="filter6_ii_54_63" x="294" y="31" width="16" height="13" filterUnits="userSpaceOnUse" color-interpolation-filters="sRGB">
<feFlood flood-opacity="0" result="BackgroundImageFix"/>
<feBlend mode="normal" in="SourceGraphic" in2="BackgroundImageFix" result="shape"/>
<feColorMatrix in="SourceAlpha" type="matrix" values="0 0 0 0 0 0 0 0 0 0 0 0 0 0 0 0 0 0 127 0" result="hardAlpha"/>
<feOffset/>
<feGaussianBlur stdDeviation="0.55"/>
<feComposite in2="hardAlpha" operator="arithmetic" k2="-1" k3="1"/>
<feColorMatrix type="matrix" values="0 0 0 0 0 0 0 0 0 0 0 0 0 0 0 0 0 0 0.78 0"/>
<feBlend mode="overlay" in2="shape" result="effect1_innerShadow_54_63"/>
<feColorMatrix in="SourceAlpha" type="matrix" values="0 0 0 0 0 0 0 0 0 0 0 0 0 0 0 0 0 0 127 0" result="hardAlpha"/>
<feOffset/>
<feGaussianBlur stdDeviation="0.45"/>
<feComposite in2="hardAlpha" operator="arithmetic" k2="-1" k3="1"/>
<feColorMatrix type="matrix" values="0 0 0 0 1 0 0 0 0 1 0 0 0 0 1 0 0 0 0.49 0"/>
<feBlend mode="overlay" in2="effect1_innerShadow_54_63" result="effect2_innerShadow_54_63"/>
</filter>
<filter id="filter7_ii_54_63" x="308.547" y="21.7832" width="26.9893" height="71.7186" filterUnits="userSpaceOnUse" color-interpolation-filters="sRGB">
<feFlood flood-opacity="0" result="BackgroundImageFix"/>
<feBlend mode="normal" in="SourceGraphic" in2="BackgroundImageFix" result="shape"/>
<feColorMatrix in="SourceAlpha" type="matrix" values="0 0 0 0 0 0 0 0 0 0 0 0 0 0 0 0 0 0 127 0" result="hardAlpha"/>
<feOffset dy="-22.0406"/>
<feGaussianBlur stdDeviation="26.5"/>
<feComposite in2="hardAlpha" operator="arithmetic" k2="-1" k3="1"/>
<feColorMatrix type="matrix" values="0 0 0 0 0 0 0 0 0 0 0 0 0 0 0 0 0 0 0.45 0"/>
<feBlend mode="overlay" in2="shape" result="effect1_innerShadow_54_63"/>
<feColorMatrix in="SourceAlpha" type="matrix" values="0 0 0 0 0 0 0 0 0 0 0 0 0 0 0 0 0 0 127 0" result="hardAlpha"/>
<feOffset dy="22.6889"/>
<feGaussianBlur stdDeviation="13.9699"/>
<feComposite in2="hardAlpha" operator="arithmetic" k2="-1" k3="1"/>
<feColorMatrix type="matrix" values="0 0 0 0 1 0 0 0 0 1 0 0 0 0 1 0 0 0 1 0"/>
<feBlend mode="overlay" in2="effect1_innerShadow_54_63" result="effect2_innerShadow_54_63"/>
</filter>
<filter id="filter8_ii_54_63" x="308.823" y="20.5067" width="26.9893" height="71.7186" filterUnits="userSpaceOnUse" color-interpolation-filters="sRGB">
<feFlood flood-opacity="0" result="BackgroundImageFix"/>
<feBlend mode="normal" in="SourceGraphic" in2="BackgroundImageFix" result="shape"/>
<feColorMatrix in="SourceAlpha" type="matrix" values="0 0 0 0 0 0 0 0 0 0 0 0 0 0 0 0 0 0 127 0" result="hardAlpha"/>
<feOffset dy="-22.0406"/>
<feGaussianBlur stdDeviation="26.5"/>
<feComposite in2="hardAlpha" operator="arithmetic" k2="-1" k3="1"/>
<feColorMatrix type="matrix" values="0 0 0 0 0 0 0 0 0 0 0 0 0 0 0 0 0 0 0.45 0"/>
<feBlend mode="overlay" in2="shape" result="effect1_innerShadow_54_63"/>
<feColorMatrix in="SourceAlpha" type="matrix" values="0 0 0 0 0 0 0 0 0 0 0 0 0 0 0 0 0 0 127 0" result="hardAlpha"/>
<feOffset dy="22.6889"/>
<feGaussianBlur stdDeviation="13.9699"/>
<feComposite in2="hardAlpha" operator="arithmetic" k2="-1" k3="1"/>
<feColorMatrix type="matrix" values="0 0 0 0 1 0 0 0 0 1 0 0 0 0 1 0 0 0 1 0"/>
<feBlend mode="overlay" in2="effect1_innerShadow_54_63" result="effect2_innerShadow_54_63"/>
</filter>
<filter id="filter9_ii_54_63" x="251.872" y="7.55662" width="39.0549" height="83.6898" filterUnits="userSpaceOnUse" color-interpolation-filters="sRGB">
<feFlood flood-opacity="0" result="BackgroundImageFix"/>
<feBlend mode="normal" in="SourceGraphic" in2="BackgroundImageFix" result="shape"/>
<feColorMatrix in="SourceAlpha" type="matrix" values="0 0 0 0 0 0 0 0 0 0 0 0 0 0 0 0 0 0 127 0" result="hardAlpha"/>
<feOffset dy="-22.0406"/>
<feGaussianBlur stdDeviation="26.5"/>
<feComposite in2="hardAlpha" operator="arithmetic" k2="-1" k3="1"/>
<feColorMatrix type="matrix" values="0 0 0 0 0 0 0 0 0 0 0 0 0 0 0 0 0 0 0.45 0"/>
<feBlend mode="overlay" in2="shape" result="effect1_innerShadow_54_63"/>
<feColorMatrix in="SourceAlpha" type="matrix" values="0 0 0 0 0 0 0 0 0 0 0 0 0 0 0 0 0 0 127 0" result="hardAlpha"/>
<feOffset dy="22.6889"/>
<feGaussianBlur stdDeviation="13.9699"/>
<feComposite in2="hardAlpha" operator="arithmetic" k2="-1" k3="1"/>
<feColorMatrix type="matrix" values="0 0 0 0 1 0 0 0 0 1 0 0 0 0 1 0 0 0 1 0"/>
<feBlend mode="overlay" in2="effect1_innerShadow_54_63" result="effect2_innerShadow_54_63"/>
</filter>
<filter id="filter10_ii_54_63" x="252.117" y="5.832" width="38.9578" height="83.6898" filterUnits="userSpaceOnUse" color-interpolation-filters="sRGB">
<feFlood flood-opacity="0" result="BackgroundImageFix"/>
<feBlend mode="normal" in="SourceGraphic" in2="BackgroundImageFix" result="shape"/>
<feColorMatrix in="SourceAlpha" type="matrix" values="0 0 0 0 0 0 0 0 0 0 0 0 0 0 0 0 0 0 127 0" result="hardAlpha"/>
<feOffset dy="-22.0406"/>
<feGaussianBlur stdDeviation="26.5"/>
<feComposite in2="hardAlpha" operator="arithmetic" k2="-1" k3="1"/>
<feColorMatrix type="matrix" values="0 0 0 0 0 0 0 0 0 0 0 0 0 0 0 0 0 0 0.45 0"/>
<feBlend mode="overlay" in2="shape" result="effect1_innerShadow_54_63"/>
<feColorMatrix in="SourceAlpha" type="matrix" values="0 0 0 0 0 0 0 0 0 0 0 0 0 0 0 0 0 0 127 0" result="hardAlpha"/>
<feOffset dy="22.6889"/>
<feGaussianBlur stdDeviation="13.9699"/>
<feComposite in2="hardAlpha" operator="arithmetic" k2="-1" k3="1"/>
<feColorMatrix type="matrix" values="0 0 0 0 1 0 0 0 0 1 0 0 0 0 1 0 0 0 1 0"/>
<feBlend mode="overlay" in2="effect1_innerShadow_54_63" result="effect2_innerShadow_54_63"/>
</filter>
<radialGradient id="paint0_radial_54_63" cx="0" cy="0" r="1" gradientUnits="userSpaceOnUse" gradientTransform="translate(278 68.1379) rotate(-158.117) scale(231.156 525.887)">
<stop stop-color="#A845FF"/>
<stop offset="1" stop-opacity="0"/>
</radialGradient>
<radialGradient id="paint1_radial_54_63" cx="0" cy="0" r="1" gradientUnits="userSpaceOnUse" gradientTransform="translate(231.5 2.29311) rotate(-150.682) scale(32.1131 129.306)">
<stop stop-color="#9345FF"/>
<stop offset="1" stop-opacity="0"/>
</radialGradient>
<radialGradient id="paint2_radial_54_63" cx="0" cy="0" r="1" gradientUnits="userSpaceOnUse" gradientTransform="translate(326.323 14.2681) rotate(116.347) scale(9.93878 8.41155)">
<stop offset="0.169422" stop-color="#701BA0"/>
<stop offset="1" stop-color="#7542B3"/>
</radialGradient>
<linearGradient id="paint3_linear_54_63" x1="323.43" y1="21.328" x2="328.707" y2="14.5723" gradientUnits="userSpaceOnUse">
<stop stop-color="white" stop-opacity="0"/>
<stop offset="0.58324" stop-color="white"/>
<stop offset="1" stop-color="white" stop-opacity="0"/>
</linearGradient>
<linearGradient id="paint4_linear_54_63" x1="320.231" y1="11.1013" x2="327.247" y2="19.3934" gradientUnits="userSpaceOnUse">
<stop stop-color="white"/>
<stop offset="1" stop-color="#999999" stop-opacity="0"/>
</linearGradient>
<radialGradient id="paint5_radial_54_63" cx="0" cy="0" r="1" gradientUnits="userSpaceOnUse" gradientTransform="translate(326.204 13.6094) rotate(116.347) scale(9.93878 8.41155)">
<stop offset="0.169422" stop-color="#B32FFF"/>
<stop offset="1" stop-color="#8A75FF"/>
</radialGradient>
<linearGradient id="paint6_linear_54_63" x1="323.311" y1="20.6692" x2="328.588" y2="13.9136" gradientUnits="userSpaceOnUse">
<stop stop-color="white" stop-opacity="0"/>
<stop offset="0.58324" stop-color="white"/>
<stop offset="1" stop-color="white" stop-opacity="0"/>
</linearGradient>
<linearGradient id="paint7_linear_54_63" x1="320.113" y1="10.4426" x2="327.128" y2="18.7347" gradientUnits="userSpaceOnUse">
<stop stop-color="white"/>
<stop offset="1" stop-color="#999999" stop-opacity="0"/>
</linearGradient>
<radialGradient id="paint8_radial_54_63" cx="0" cy="0" r="1" gradientUnits="userSpaceOnUse" gradientTransform="translate(286.301 13.6727) rotate(138.774) scale(13.1839 11.1581)">
<stop offset="0.169422" stop-color="#3F1082"/>
<stop offset="1" stop-color="#5049B8"/>
</radialGradient>
<linearGradient id="paint9_linear_54_63" x1="279.18" y1="20.8654" x2="289.071" y2="15.2525" gradientUnits="userSpaceOnUse">
<stop stop-color="white" stop-opacity="0"/>
<stop offset="0.58324" stop-color="white"/>
<stop offset="1" stop-color="white" stop-opacity="0"/>
</linearGradient>
<linearGradient id="paint10_linear_54_63" x1="280.434" y1="6.70714" x2="284.841" y2="20.4252" gradientUnits="userSpaceOnUse">
<stop stop-color="white"/>
<stop offset="1" stop-color="#999999" stop-opacity="0"/>
</linearGradient>
<radialGradient id="paint11_radial_54_63" cx="0" cy="0" r="1" gradientUnits="userSpaceOnUse" gradientTransform="translate(286.488 12.8048) rotate(138.774) scale(13.1839 11.1581)">
<stop offset="0.169422" stop-color="#862FFF"/>
<stop offset="1" stop-color="#7E75FF"/>
</radialGradient>
<linearGradient id="paint12_linear_54_63" x1="279.368" y1="19.9975" x2="289.258" y2="14.3846" gradientUnits="userSpaceOnUse">
<stop stop-color="white" stop-opacity="0"/>
<stop offset="0.58324" stop-color="white"/>
<stop offset="1" stop-color="white" stop-opacity="0"/>
</linearGradient>
<linearGradient id="paint13_linear_54_63" x1="280.622" y1="5.83924" x2="285.028" y2="19.5573" gradientUnits="userSpaceOnUse">
<stop stop-color="white"/>
<stop offset="1" stop-color="#999999" stop-opacity="0"/>
</linearGradient>
<linearGradient id="paint14_linear_54_63" x1="302" y1="36" x2="302" y2="66" gradientUnits="userSpaceOnUse">
<stop stop-color="white"/>
<stop offset="1" stop-color="#674CBB"/>
</linearGradient>
<linearGradient id="paint15_linear_54_63" x1="310" y1="37.5" x2="294" y2="37.5" gradientUnits="userSpaceOnUse">
<stop stop-color="#361263"/>
<stop offset="1" stop-color="#3A0288"/>
</linearGradient>
<radialGradient id="paint16_radial_54_63" cx="0" cy="0" r="1" gradientUnits="userSpaceOnUse" gradientTransform="translate(328.503 52.7553) rotate(138.774) scale(19.3902 16.4107)">
<stop offset="0.169422" stop-color="#3F1082"/>
<stop offset="1" stop-color="#5049B8"/>
</radialGradient>
<linearGradient id="paint17_linear_54_63" x1="318.031" y1="63.3339" x2="332.577" y2="55.0788" gradientUnits="userSpaceOnUse">
<stop stop-color="white" stop-opacity="0"/>
<stop offset="0.58324" stop-color="white"/>
<stop offset="1" stop-color="white" stop-opacity="0"/>
</linearGradient>
<linearGradient id="paint18_linear_54_63" x1="319.875" y1="42.5107" x2="326.356" y2="62.6865" gradientUnits="userSpaceOnUse">
<stop stop-color="white"/>
<stop offset="1" stop-color="#999999" stop-opacity="0"/>
</linearGradient>
<radialGradient id="paint19_radial_54_63" cx="0" cy="0" r="1" gradientUnits="userSpaceOnUse" gradientTransform="translate(328.779 51.4789) rotate(138.774) scale(19.3902 16.4107)">
<stop offset="0.169422" stop-color="#862FFF"/>
<stop offset="1" stop-color="#7E75FF"/>
</radialGradient>
<linearGradient id="paint20_linear_54_63" x1="318.307" y1="62.0575" x2="332.853" y2="53.8024" gradientUnits="userSpaceOnUse">
<stop stop-color="white" stop-opacity="0"/>
<stop offset="0.58324" stop-color="white"/>
<stop offset="1" stop-color="white" stop-opacity="0"/>
</linearGradient>
<linearGradient id="paint21_linear_54_63" x1="320.151" y1="41.2343" x2="326.632" y2="61.4101" gradientUnits="userSpaceOnUse">
<stop stop-color="white"/>
<stop offset="1" stop-color="#999999" stop-opacity="0"/>
</linearGradient>
<radialGradient id="paint22_radial_54_63" cx="0" cy="0" r="1" gradientUnits="userSpaceOnUse" gradientTransform="translate(279.511 42.388) rotate(134.657) scale(25.8642 21.8898)">
<stop offset="0.169422" stop-color="#701BA0"/>
<stop offset="1" stop-color="#7542B3"/>
</radialGradient>
<linearGradient id="paint23_linear_54_63" x1="266.592" y1="57.4648" x2="285.154" y2="45.0891" gradientUnits="userSpaceOnUse">
<stop stop-color="white" stop-opacity="0"/>
<stop offset="0.58324" stop-color="white"/>
<stop offset="1" stop-color="white" stop-opacity="0"/>
</linearGradient>
<linearGradient id="paint24_linear_54_63" x1="267.052" y1="29.5844" x2="277.606" y2="55.8064" gradientUnits="userSpaceOnUse">
<stop stop-color="white"/>
<stop offset="1" stop-color="#999999" stop-opacity="0"/>
</linearGradient>
<radialGradient id="paint25_radial_54_63" cx="0" cy="0" r="1" gradientUnits="userSpaceOnUse" gradientTransform="translate(279.757 40.6634) rotate(134.657) scale(25.8642 21.8898)">
<stop offset="0.169422" stop-color="#B32FFF"/>
<stop offset="1" stop-color="#8A75FF"/>
</radialGradient>
<linearGradient id="paint26_linear_54_63" x1="266.837" y1="55.7402" x2="285.399" y2="43.3645" gradientUnits="userSpaceOnUse">
<stop stop-color="white" stop-opacity="0"/>
<stop offset="0.58324" stop-color="white"/>
<stop offset="1" stop-color="white" stop-opacity="0"/>
</linearGradient>
<linearGradient id="paint27_linear_54_63" x1="267.297" y1="27.8598" x2="277.851" y2="54.0818" gradientUnits="userSpaceOnUse">
<stop stop-color="white"/>
<stop offset="1" stop-color="#999999" stop-opacity="0"/>
</linearGradient>
</defs>
</svg>
