<svg width="22" height="16" viewBox="0 0 22 16" fill="none" xmlns="http://www.w3.org/2000/svg">
<path d="M8 0.5C3.85775 0.5 0.5 3.85775 0.5 8C0.5 12.1423 3.85775 15.5 8 15.5H14C18.1423 15.5 21.5 12.1423 21.5 8C21.5 3.85775 18.1423 0.5 14 0.5H8ZM15.5 10.25C15.5 10.6478 15.342 11.0294 15.0607 11.3107C14.7794 11.592 14.3978 11.75 14 11.75C13.6022 11.75 13.2206 11.592 12.9393 11.3107C12.658 11.0294 12.5 10.6478 12.5 10.25C12.5 9.85218 12.658 9.47064 12.9393 9.18934C13.2206 8.90804 13.6022 8.75 14 8.75C14.3978 8.75 14.7794 8.90804 15.0607 9.18934C15.342 9.47064 15.5 9.85218 15.5 10.25ZM15.5 7.25C15.1022 7.25 14.7206 7.09196 14.4393 6.81066C14.158 6.52936 14 6.14782 14 5.75C14 5.35218 14.158 4.97064 14.4393 4.68934C14.7206 4.40804 15.1022 4.25 15.5 4.25C15.8978 4.25 16.2794 4.40804 16.5607 4.68934C16.842 4.97064 17 5.35218 17 5.75C17 6.14782 16.842 6.52936 16.5607 6.81066C16.2794 7.09196 15.8978 7.25 15.5 7.25ZM6.5 5C6.69891 5 6.88968 5.07902 7.03033 5.21967C7.17098 5.36032 7.25 5.55109 7.25 5.75V7.25H8.75C8.94891 7.25 9.13968 7.32902 9.28033 7.46967C9.42098 7.61032 9.5 7.80109 9.5 8C9.5 8.19891 9.42098 8.38968 9.28033 8.53033C9.13968 8.67098 8.94891 8.75 8.75 8.75H7.25V10.25C7.25 10.4489 7.17098 10.6397 7.03033 10.7803C6.88968 10.921 6.69891 11 6.5 11C6.30109 11 6.11032 10.921 5.96967 10.7803C5.82902 10.6397 5.75 10.4489 5.75 10.25V8.75H4.25C4.05109 8.75 3.86032 8.67098 3.71967 8.53033C3.57902 8.38968 3.5 8.19891 3.5 8C3.5 7.80109 3.57902 7.61032 3.71967 7.46967C3.86032 7.32902 4.05109 7.25 4.25 7.25H5.75V5.75C5.75 5.55109 5.82902 5.36032 5.96967 5.21967C6.11032 5.07902 6.30109 5 6.5 5Z" fill="#3D404F"/>
</svg>
