<svg width="340" height="76" viewBox="0 0 340 76" fill="none" xmlns="http://www.w3.org/2000/svg">
<g filter="url(#filter0_i_52_2)">
<g clip-path="url(#clip0_52_2)">
<rect width="340" height="76" rx="8" fill="#0A0A13"/>
<rect width="340" height="76" rx="8" fill="url(#paint0_radial_52_2)" fill-opacity="0.2"/>
<rect width="340" height="76" rx="8" fill="url(#paint1_radial_52_2)" fill-opacity="0.2"/>
<g filter="url(#filter1_ii_52_2)">
<path d="M304.685 60.6928L305.8 57.613L289.306 50.5225L288.961 50.3062L288.161 50.0463L286.737 54.1969L281.913 51.188L281.403 50.9959L281.114 50.9281L280.755 52.0316L279.167 56.4198C277.802 60.1912 279.506 64.3101 282.968 66.1271C282.937 67.8435 283.37 69.5368 284.223 71.0281C285.075 72.5195 286.315 73.7535 287.811 74.5999L287.221 76.228C286.935 77.0202 286.345 77.666 285.581 78.0231C284.817 78.3803 283.942 78.4197 283.149 78.1325L281.653 77.5912L280.572 80.5784L292.537 84.909L293.618 81.9218L292.123 81.3805C291.329 81.0933 290.683 80.5032 290.324 79.74C289.966 78.9767 289.926 78.1029 290.213 77.3106L290.802 75.6826C292.493 75.9896 294.235 75.8348 295.845 75.2345C297.454 74.6343 298.871 73.6108 299.946 72.2722C303.768 73.0914 308.184 70.3825 309.549 66.6111L310.668 62.8581L304.685 60.6928ZM282.158 57.5025L282.665 56.1015L285.656 57.1841L283.62 62.8091C282.857 62.1837 282.307 61.3376 282.045 60.3872C281.783 59.4369 281.823 58.4291 282.158 57.5025ZM306.088 66.1637C305.751 67.0892 305.136 67.8878 304.326 68.4504C303.517 69.0129 302.554 69.3119 301.567 69.3065L303.604 63.68L306.595 64.7627L306.088 66.1637Z" fill="url(#paint2_radial_52_2)"/>
<path d="M304.685 60.6928L305.8 57.613L289.306 50.5225L288.961 50.3062L288.161 50.0463L286.737 54.1969L281.913 51.188L281.403 50.9959L281.114 50.9281L280.755 52.0316L279.167 56.4198C277.802 60.1912 279.506 64.3101 282.968 66.1271C282.937 67.8435 283.37 69.5368 284.223 71.0281C285.075 72.5195 286.315 73.7535 287.811 74.5999L287.221 76.228C286.935 77.0202 286.345 77.666 285.581 78.0231C284.817 78.3803 283.942 78.4197 283.149 78.1325L281.653 77.5912L280.572 80.5784L292.537 84.909L293.618 81.9218L292.123 81.3805C291.329 81.0933 290.683 80.5032 290.324 79.74C289.966 78.9767 289.926 78.1029 290.213 77.3106L290.802 75.6826C292.493 75.9896 294.235 75.8348 295.845 75.2345C297.454 74.6343 298.871 73.6108 299.946 72.2722C303.768 73.0914 308.184 70.3825 309.549 66.6111L310.668 62.8581L304.685 60.6928ZM282.158 57.5025L282.665 56.1015L285.656 57.1841L283.62 62.8091C282.857 62.1837 282.307 61.3376 282.045 60.3872C281.783 59.4369 281.823 58.4291 282.158 57.5025ZM306.088 66.1637C305.751 67.0892 305.136 67.8878 304.326 68.4504C303.517 69.0129 302.554 69.3119 301.567 69.3065L303.604 63.68L306.595 64.7627L306.088 66.1637Z" fill="url(#paint3_linear_52_2)" fill-opacity="0.4" style="mix-blend-mode:overlay"/>
</g>
<path d="M304.544 60.6417L304.493 60.7828L304.634 60.8338L310.483 62.9509L309.406 66.5641C308.736 68.4113 307.317 70.0041 305.592 71.0343C303.865 72.0654 301.844 72.5256 299.977 72.1255L299.887 72.1061L299.829 72.1783C298.771 73.4958 297.377 74.5032 295.792 75.094C294.208 75.6848 292.493 75.8372 290.829 75.535L290.704 75.5123L290.661 75.6315L290.072 77.2596C289.771 78.0893 289.813 79.0045 290.189 79.8037C290.564 80.603 291.241 81.2209 292.072 81.5215L293.426 82.0118L292.447 84.7169L280.764 80.4884L281.743 77.7833L283.098 78.2736C283.929 78.5742 284.845 78.533 285.644 78.159C286.444 77.785 287.062 77.1087 287.362 76.279L287.952 74.651L287.995 74.5318L287.885 74.4694C286.412 73.6362 285.192 72.4216 284.353 70.9537C283.514 69.4858 283.087 67.8191 283.118 66.1298L283.119 66.0373L283.037 65.9942C279.64 64.211 277.969 60.1696 279.308 56.4709L280.896 52.0826L280.896 52.0827L280.898 52.078L281.214 51.1056L281.359 51.1397L281.847 51.3231L286.658 54.3242L286.818 54.424L286.879 54.2456L288.255 50.2346L288.897 50.4431L289.227 50.6497L289.237 50.6558L289.247 50.6603L305.611 57.6949L304.544 60.6417ZM282.017 57.4514L282.017 57.4515C281.671 58.4072 281.63 59.4468 281.901 60.4271C282.171 61.4073 282.738 62.28 283.525 62.9251L283.689 63.0595L283.761 62.8601L285.797 57.2352L285.848 57.0941L285.707 57.0431L282.716 55.9604L282.575 55.9094L282.524 56.0504L282.017 57.4514ZM306.229 66.215L306.229 66.2147L306.736 64.8137L306.787 64.6727L306.646 64.6216L303.655 63.539L303.514 63.4879L303.463 63.629L301.426 69.2554L301.354 69.4553L301.567 69.4565C302.584 69.4621 303.577 69.1537 304.412 68.5735C305.247 67.9934 305.881 67.1697 306.229 66.215Z" stroke="url(#paint4_linear_52_2)" stroke-width="0.3" style="mix-blend-mode:overlay"/>
<g filter="url(#filter2_ii_52_2)">
<path d="M305.334 59.6557L306.449 56.5759L288.501 50.08L287.387 53.1598L281.404 50.9945L279.816 55.3828C278.451 59.1541 280.155 63.273 283.617 65.09C283.586 66.8064 284.019 68.4997 284.872 69.991C285.724 71.4824 286.964 72.7164 288.46 73.5628L287.871 75.1909C287.584 75.9831 286.994 76.6289 286.23 76.9861C285.466 77.3432 284.591 77.3826 283.798 77.0955L282.303 76.5541L281.221 79.5414L293.186 83.872L294.268 80.8847L292.772 80.3434C291.979 80.0563 291.332 79.4662 290.973 78.7029C290.615 77.9397 290.575 77.0658 290.862 76.2735L291.451 74.6455C293.142 74.9525 294.884 74.7977 296.494 74.1975C298.103 73.5972 299.52 72.5737 300.595 71.2351C304.418 72.0544 308.364 69.9806 309.729 66.2093L311.317 61.821L305.334 59.6557ZM282.807 56.4654L283.314 55.0644L286.305 56.147L284.27 61.772C283.507 61.1466 282.956 60.3005 282.694 59.3501C282.433 58.3998 282.472 57.392 282.807 56.4654ZM306.737 65.1266C306.4 66.0521 305.785 66.8508 304.976 67.4133C304.166 67.9758 303.203 68.2748 302.217 68.2694L304.253 62.6429L307.244 63.7256L306.737 65.1266Z" fill="url(#paint5_radial_52_2)"/>
<path d="M305.334 59.6557L306.449 56.5759L288.501 50.08L287.387 53.1598L281.404 50.9945L279.816 55.3828C278.451 59.1541 280.155 63.273 283.617 65.09C283.586 66.8064 284.019 68.4997 284.872 69.991C285.724 71.4824 286.964 72.7164 288.46 73.5628L287.871 75.1909C287.584 75.9831 286.994 76.6289 286.23 76.9861C285.466 77.3432 284.591 77.3826 283.798 77.0955L282.303 76.5541L281.221 79.5414L293.186 83.872L294.268 80.8847L292.772 80.3434C291.979 80.0563 291.332 79.4662 290.973 78.7029C290.615 77.9397 290.575 77.0658 290.862 76.2735L291.451 74.6455C293.142 74.9525 294.884 74.7977 296.494 74.1975C298.103 73.5972 299.52 72.5737 300.595 71.2351C304.418 72.0544 308.364 69.9806 309.729 66.2093L311.317 61.821L305.334 59.6557ZM282.807 56.4654L283.314 55.0644L286.305 56.147L284.27 61.772C283.507 61.1466 282.956 60.3005 282.694 59.3501C282.433 58.3998 282.472 57.392 282.807 56.4654ZM306.737 65.1266C306.4 66.0521 305.785 66.8508 304.976 67.4133C304.166 67.9758 303.203 68.2748 302.217 68.2694L304.253 62.6429L307.244 63.7256L306.737 65.1266Z" fill="url(#paint6_linear_52_2)" fill-opacity="0.4" style="mix-blend-mode:overlay"/>
</g>
<path d="M305.193 59.6047L305.142 59.7457L305.283 59.7968L311.125 61.911L309.588 66.1582C308.249 69.8569 304.378 71.8925 300.627 71.0884L300.536 71.069L300.478 71.1412C299.42 72.4587 298.026 73.4661 296.442 74.0569C294.857 74.6478 293.142 74.8001 291.478 74.4979L291.353 74.4752L291.31 74.5944L290.721 76.2225C290.421 77.0522 290.463 77.9674 290.838 78.7666C291.213 79.5659 291.89 80.1838 292.721 80.4845L294.076 80.9747L293.096 83.6799L281.413 79.4514L282.393 76.7462L283.747 77.2365C284.578 77.5372 285.494 77.496 286.294 77.1219C287.093 76.7479 287.711 76.0717 288.012 75.2419L288.601 73.6139L288.644 73.4947L288.534 73.4323C287.061 72.5992 285.841 71.3845 285.002 69.9166C284.163 68.4487 283.736 66.782 283.767 65.0927L283.768 65.0002L283.686 64.9572C280.289 63.1739 278.618 59.1325 279.957 55.4338L281.494 51.1866L287.336 53.3009L287.477 53.3519L287.528 53.2109L288.591 50.2721L306.257 56.6659L305.193 59.6047ZM282.666 56.4144L282.666 56.4144C282.32 57.3701 282.28 58.4097 282.55 59.39C282.82 60.3702 283.388 61.243 284.174 61.888L284.338 62.0224L284.411 61.8231L286.446 56.1981L286.498 56.0571L286.357 56.006L283.365 54.9234L283.224 54.8723L283.173 55.0133L282.666 56.4144ZM306.878 65.178L306.878 65.1777L307.385 63.7766L307.436 63.6356L307.295 63.5846L304.304 62.5019L304.163 62.4509L304.112 62.5919L302.076 68.2184L302.003 68.4182L302.216 68.4194C303.233 68.425 304.227 68.1167 305.061 67.5365C305.896 66.9563 306.53 66.1326 306.878 65.178Z" stroke="url(#paint7_linear_52_2)" stroke-width="0.3" style="mix-blend-mode:overlay"/>
<g filter="url(#filter3_ii_52_2)">
<rect x="280" y="16" width="44" height="44" rx="8" fill="url(#paint8_linear_52_2)"/>
<g filter="url(#filter4_ii_52_2)">
<path d="M310 37.5L303.933 31.3807C303.814 31.26 303.672 31.1643 303.515 31.0989C303.359 31.0336 303.191 31 303.022 31C302.853 31 302.685 31.0336 302.529 31.0989C302.373 31.1643 302.231 31.26 302.111 31.3807C301.991 31.5014 301.896 31.6447 301.831 31.8024C301.767 31.9601 301.733 32.1292 301.733 32.2999C301.733 32.4706 301.767 32.6396 301.831 32.7973C301.896 32.955 301.991 33.0983 302.111 33.219L305.066 36.2L295.289 36.2C294.947 36.2 294.619 36.337 294.378 36.5808C294.136 36.8246 294 37.1552 294 37.5C294 37.8448 294.136 38.1755 294.378 38.4193C294.619 38.6631 294.947 38.8001 295.289 38.8001L305.066 38.8001L302.111 41.7811C301.991 41.9015 301.895 42.0448 301.83 42.2025C301.765 42.3602 301.732 42.5294 301.732 42.7002C301.732 42.8711 301.765 43.0402 301.83 43.198C301.895 43.3557 301.991 43.4989 302.111 43.6194C302.353 43.8631 302.68 44 303.022 44C303.364 44 303.692 43.8631 303.933 43.6194L310 37.5Z" fill="url(#paint9_linear_52_2)"/>
</g>
</g>
<g filter="url(#filter5_ii_52_2)">
<path d="M274.652 19.0802L273.088 11.8139L232.825 18.0316L231.9 18.0316L230.048 18.4944L232.307 28.1923L219.405 28.2122L218.192 28.4571L217.554 28.6749L218.192 31.2297L220.42 41.5831C222.335 50.481 230.573 56.3518 239.418 55.6798C241.425 59.0187 244.298 61.7538 247.733 63.5962C251.169 65.4387 255.039 66.3201 258.935 66.1473L259.762 69.9884C260.164 71.8577 259.806 73.8103 258.767 75.4169C257.728 77.0234 256.093 78.1522 254.221 78.555L250.692 79.3144L252.209 86.3622L280.439 80.2875L278.922 73.2396L275.393 73.999C273.521 74.4017 271.567 74.0455 269.959 73.0086C268.351 71.9716 267.221 70.339 266.819 68.4698L265.993 64.6287C269.615 63.1834 272.78 60.7881 275.154 57.6957C277.527 54.6033 279.02 50.9286 279.476 47.0597C287.815 44.0337 293.047 33.5074 291.132 24.6095L288.766 16.0429L274.652 19.0802ZM227.478 40.0644L226.766 36.7589L233.824 35.2402L236.68 48.5114C234.459 48.2269 232.382 47.2618 230.734 45.749C229.086 44.2363 227.948 42.2503 227.478 40.0644ZM283.937 27.9149C284.402 30.1013 284.18 32.3782 283.301 34.4345C282.422 36.4908 280.928 38.226 279.025 39.4028L276.168 26.1281L283.226 24.6094L283.937 27.9149Z" fill="url(#paint10_radial_52_2)"/>
<path d="M274.652 19.0802L273.088 11.8139L232.825 18.0316L231.9 18.0316L230.048 18.4944L232.307 28.1923L219.405 28.2122L218.192 28.4571L217.554 28.6749L218.192 31.2297L220.42 41.5831C222.335 50.481 230.573 56.3518 239.418 55.6798C241.425 59.0187 244.298 61.7538 247.733 63.5962C251.169 65.4387 255.039 66.3201 258.935 66.1473L259.762 69.9884C260.164 71.8577 259.806 73.8103 258.767 75.4169C257.728 77.0234 256.093 78.1522 254.221 78.555L250.692 79.3144L252.209 86.3622L280.439 80.2875L278.922 73.2396L275.393 73.999C273.521 74.4017 271.567 74.0455 269.959 73.0086C268.351 71.9716 267.221 70.339 266.819 68.4698L265.993 64.6287C269.615 63.1834 272.78 60.7881 275.154 57.6957C277.527 54.6033 279.02 50.9286 279.476 47.0597C287.815 44.0337 293.047 33.5074 291.132 24.6095L288.766 16.0429L274.652 19.0802ZM227.478 40.0644L226.766 36.7589L233.824 35.2402L236.68 48.5114C234.459 48.2269 232.382 47.2618 230.734 45.749C229.086 44.2363 227.948 42.2503 227.478 40.0644ZM283.937 27.9149C284.402 30.1013 284.18 32.3782 283.301 34.4345C282.422 36.4908 280.928 38.226 279.025 39.4028L276.168 26.1281L283.226 24.6094L283.937 27.9149Z" fill="url(#paint11_linear_52_2)" fill-opacity="0.4" style="mix-blend-mode:overlay"/>
</g>
<path d="M274.505 19.1118L274.536 19.2584L274.683 19.2269L288.66 16.2193L290.986 24.6451C291.934 29.0548 291.112 33.8739 289.016 37.9682C286.918 42.0639 283.552 45.4212 279.425 46.9187L279.338 46.9503L279.327 47.0422C278.875 50.8842 277.391 54.5334 275.035 57.6044C272.678 60.6753 269.534 63.0541 265.937 64.4893L265.819 64.5363L265.846 64.6602L266.672 68.5013C267.083 70.4095 268.236 72.0761 269.877 73.1346C271.519 74.1931 273.514 74.5567 275.425 74.1456L278.807 73.4178L280.26 80.1724L252.324 86.184L250.87 79.4294L254.252 78.7017C256.163 78.2905 257.832 77.1383 258.893 75.4983C259.954 73.8584 260.319 71.8651 259.908 69.9569L259.082 66.1158L259.055 65.9919L258.929 65.9975C255.059 66.169 251.216 65.2937 247.804 63.4641C244.393 61.6344 241.54 58.9182 239.547 55.6025L239.499 55.5232L239.407 55.5302C230.634 56.1967 222.465 50.3739 220.567 41.5515L218.339 31.1981L218.339 31.1981L218.338 31.1934L217.733 28.7723L218.231 28.6022L219.42 28.3621L232.307 28.3423L232.496 28.342L232.453 28.1583L230.228 18.6041L231.918 18.1816L232.825 18.1816L232.836 18.1816L232.848 18.1798L272.971 11.9837L274.505 19.1118ZM226.735 36.6123L226.588 36.6438L226.62 36.7905L227.331 40.0959C227.808 42.3122 228.962 44.3258 230.632 45.8595C232.303 47.3933 234.409 48.3717 236.66 48.6602L236.871 48.6871L236.826 48.4799L233.97 35.2087L233.939 35.062L233.792 35.0936L226.735 36.6123ZM284.084 27.8837L284.084 27.8834L283.372 24.5779L283.341 24.4313L283.194 24.4628L276.137 25.9815L275.99 26.013L276.022 26.1597L278.878 39.4344L278.923 39.6422L279.104 39.5304C281.034 38.3373 282.548 36.5782 283.439 34.4935C284.331 32.4088 284.556 30.1003 284.084 27.8837Z" stroke="url(#paint12_linear_52_2)" stroke-width="0.3" style="mix-blend-mode:overlay"/>
<g filter="url(#filter6_ii_52_2)">
<path d="M274.652 16.3037L273.088 9.03736L230.743 18.1495L232.307 25.4158L218.192 28.4532L220.42 38.8066C222.335 47.7045 230.573 53.5753 239.418 52.9033C241.425 56.2422 244.298 58.9773 247.733 60.8197C251.169 62.6622 255.039 63.5436 258.935 63.3708L259.762 67.2119C260.164 69.0812 259.806 71.0338 258.767 72.6404C257.728 74.2469 256.093 75.3757 254.221 75.7785L250.692 76.5379L252.209 83.5858L280.439 77.511L278.922 70.4631L275.393 71.2225C273.522 71.6253 271.567 71.269 269.959 70.2321C268.351 69.1951 267.221 67.5625 266.819 65.6933L265.993 61.8522C269.615 60.4069 272.78 58.0116 275.154 54.9192C277.527 51.8268 279.02 48.1521 279.476 44.2832C287.815 41.2572 292.909 32.5177 290.994 23.6197L288.766 13.2664L274.652 16.3037ZM227.478 37.2879L226.766 33.9824L233.824 32.4637L236.68 45.7349C234.459 45.4504 232.382 44.4853 230.734 42.9725C229.086 41.4598 227.948 39.4738 227.478 37.2879ZM283.937 25.1384C284.403 27.3248 284.181 29.6017 283.301 31.658C282.422 33.7143 280.928 35.4495 279.025 36.6263L276.168 23.3516L283.226 21.833L283.937 25.1384Z" fill="url(#paint13_radial_52_2)"/>
<path d="M274.652 16.3037L273.088 9.03736L230.743 18.1495L232.307 25.4158L218.192 28.4532L220.42 38.8066C222.335 47.7045 230.573 53.5753 239.418 52.9033C241.425 56.2422 244.298 58.9773 247.733 60.8197C251.169 62.6622 255.039 63.5436 258.935 63.3708L259.762 67.2119C260.164 69.0812 259.806 71.0338 258.767 72.6404C257.728 74.2469 256.093 75.3757 254.221 75.7785L250.692 76.5379L252.209 83.5858L280.439 77.511L278.922 70.4631L275.393 71.2225C273.522 71.6253 271.567 71.269 269.959 70.2321C268.351 69.1951 267.221 67.5625 266.819 65.6933L265.993 61.8522C269.615 60.4069 272.78 58.0116 275.154 54.9192C277.527 51.8268 279.02 48.1521 279.476 44.2832C287.815 41.2572 292.909 32.5177 290.994 23.6197L288.766 13.2664L274.652 16.3037ZM227.478 37.2879L226.766 33.9824L233.824 32.4637L236.68 45.7349C234.459 45.4504 232.382 44.4853 230.734 42.9725C229.086 41.4598 227.948 39.4738 227.478 37.2879ZM283.937 25.1384C284.403 27.3248 284.181 29.6017 283.301 31.658C282.422 33.7143 280.928 35.4495 279.025 36.6263L276.168 23.3516L283.226 21.833L283.937 25.1384Z" fill="url(#paint14_linear_52_2)" fill-opacity="0.4" style="mix-blend-mode:overlay"/>
</g>
<path d="M274.505 16.3353L274.537 16.4819L274.683 16.4504L288.651 13.4446L290.848 23.6513C292.746 32.4737 287.696 41.141 279.425 44.1422L279.338 44.1738L279.327 44.2657C278.875 48.1077 277.392 51.7569 275.035 54.8279C272.678 57.8988 269.535 60.2776 265.937 61.7128L265.819 61.7598L265.846 61.8837L266.673 65.7248C267.083 67.633 268.236 69.2996 269.877 70.3581C271.519 71.4166 273.514 71.7803 275.425 71.3691L278.807 70.6413L280.26 77.3959L252.324 83.4076L250.87 76.653L254.253 75.9252C256.163 75.514 257.832 74.3618 258.893 72.7218C259.954 71.0819 260.319 69.0886 259.908 67.1804L259.082 63.3393L259.055 63.2154L258.929 63.221C255.059 63.3925 251.216 62.5172 247.804 60.6876C244.393 58.8579 241.54 56.1417 239.547 52.826L239.499 52.7467L239.407 52.7537C230.634 53.4202 222.465 47.5974 220.567 38.775L218.371 28.5683L232.339 25.5625L232.485 25.5309L232.454 25.3843L230.922 18.2645L272.973 9.21556L274.505 16.3353ZM226.735 33.8358L226.588 33.8673L226.62 34.014L227.331 37.3194C227.808 39.5357 228.962 41.5493 230.633 43.083C232.303 44.6168 234.409 45.5952 236.661 45.8837L236.871 45.9106L236.826 45.7034L233.97 32.4322L233.939 32.2855L233.792 32.3171L226.735 33.8358ZM284.084 25.1072L284.084 25.1069L283.372 21.8014L283.341 21.6548L283.194 21.6863L276.137 23.205L275.99 23.2365L276.022 23.3832L278.878 36.6579L278.923 36.8657L279.104 36.7539C281.034 35.5608 282.548 33.8017 283.439 31.717C284.331 29.6323 284.556 27.3238 284.084 25.1072Z" stroke="url(#paint15_linear_52_2)" stroke-width="0.3" style="mix-blend-mode:overlay"/>
</g>
</g>
<defs>
<filter id="filter0_i_52_2" x="0" y="0" width="340" height="77" filterUnits="userSpaceOnUse" color-interpolation-filters="sRGB">
<feFlood flood-opacity="0" result="BackgroundImageFix"/>
<feBlend mode="normal" in="SourceGraphic" in2="BackgroundImageFix" result="shape"/>
<feColorMatrix in="SourceAlpha" type="matrix" values="0 0 0 0 0 0 0 0 0 0 0 0 0 0 0 0 0 0 127 0" result="hardAlpha"/>
<feOffset dy="1"/>
<feGaussianBlur stdDeviation="0.75"/>
<feComposite in2="hardAlpha" operator="arithmetic" k2="-1" k3="1"/>
<feColorMatrix type="matrix" values="0 0 0 0 1 0 0 0 0 1 0 0 0 0 1 0 0 0 0.49 0"/>
<feBlend mode="overlay" in2="shape" result="effect1_innerShadow_52_2"/>
</filter>
<filter id="filter1_ii_52_2" x="278.696" y="28.0057" width="31.9719" height="79.5923" filterUnits="userSpaceOnUse" color-interpolation-filters="sRGB">
<feFlood flood-opacity="0" result="BackgroundImageFix"/>
<feBlend mode="normal" in="SourceGraphic" in2="BackgroundImageFix" result="shape"/>
<feColorMatrix in="SourceAlpha" type="matrix" values="0 0 0 0 0 0 0 0 0 0 0 0 0 0 0 0 0 0 127 0" result="hardAlpha"/>
<feOffset dy="-22.0406"/>
<feGaussianBlur stdDeviation="26.5"/>
<feComposite in2="hardAlpha" operator="arithmetic" k2="-1" k3="1"/>
<feColorMatrix type="matrix" values="0 0 0 0 0 0 0 0 0 0 0 0 0 0 0 0 0 0 0.45 0"/>
<feBlend mode="overlay" in2="shape" result="effect1_innerShadow_52_2"/>
<feColorMatrix in="SourceAlpha" type="matrix" values="0 0 0 0 0 0 0 0 0 0 0 0 0 0 0 0 0 0 127 0" result="hardAlpha"/>
<feOffset dy="22.6889"/>
<feGaussianBlur stdDeviation="13.9699"/>
<feComposite in2="hardAlpha" operator="arithmetic" k2="-1" k3="1"/>
<feColorMatrix type="matrix" values="0 0 0 0 1 0 0 0 0 1 0 0 0 0 1 0 0 0 1 0"/>
<feBlend mode="overlay" in2="effect1_innerShadow_52_2" result="effect2_innerShadow_52_2"/>
</filter>
<filter id="filter2_ii_52_2" x="279.345" y="28.0394" width="31.9719" height="78.5215" filterUnits="userSpaceOnUse" color-interpolation-filters="sRGB">
<feFlood flood-opacity="0" result="BackgroundImageFix"/>
<feBlend mode="normal" in="SourceGraphic" in2="BackgroundImageFix" result="shape"/>
<feColorMatrix in="SourceAlpha" type="matrix" values="0 0 0 0 0 0 0 0 0 0 0 0 0 0 0 0 0 0 127 0" result="hardAlpha"/>
<feOffset dy="-22.0406"/>
<feGaussianBlur stdDeviation="26.5"/>
<feComposite in2="hardAlpha" operator="arithmetic" k2="-1" k3="1"/>
<feColorMatrix type="matrix" values="0 0 0 0 0 0 0 0 0 0 0 0 0 0 0 0 0 0 0.45 0"/>
<feBlend mode="overlay" in2="shape" result="effect1_innerShadow_52_2"/>
<feColorMatrix in="SourceAlpha" type="matrix" values="0 0 0 0 0 0 0 0 0 0 0 0 0 0 0 0 0 0 127 0" result="hardAlpha"/>
<feOffset dy="22.6889"/>
<feGaussianBlur stdDeviation="13.9699"/>
<feComposite in2="hardAlpha" operator="arithmetic" k2="-1" k3="1"/>
<feColorMatrix type="matrix" values="0 0 0 0 1 0 0 0 0 1 0 0 0 0 1 0 0 0 1 0"/>
<feBlend mode="overlay" in2="effect1_innerShadow_52_2" result="effect2_innerShadow_52_2"/>
</filter>
<filter id="filter3_ii_52_2" x="280" y="11" width="44" height="49" filterUnits="userSpaceOnUse" color-interpolation-filters="sRGB">
<feFlood flood-opacity="0" result="BackgroundImageFix"/>
<feBlend mode="normal" in="SourceGraphic" in2="BackgroundImageFix" result="shape"/>
<feColorMatrix in="SourceAlpha" type="matrix" values="0 0 0 0 0 0 0 0 0 0 0 0 0 0 0 0 0 0 127 0" result="hardAlpha"/>
<feOffset dy="-5"/>
<feGaussianBlur stdDeviation="4.45"/>
<feComposite in2="hardAlpha" operator="arithmetic" k2="-1" k3="1"/>
<feColorMatrix type="matrix" values="0 0 0 0 0 0 0 0 0 0 0 0 0 0 0 0 0 0 0.36 0"/>
<feBlend mode="overlay" in2="shape" result="effect1_innerShadow_52_2"/>
<feColorMatrix in="SourceAlpha" type="matrix" values="0 0 0 0 0 0 0 0 0 0 0 0 0 0 0 0 0 0 127 0" result="hardAlpha"/>
<feOffset dy="-1"/>
<feGaussianBlur stdDeviation="0.65"/>
<feComposite in2="hardAlpha" operator="arithmetic" k2="-1" k3="1"/>
<feColorMatrix type="matrix" values="0 0 0 0 1 0 0 0 0 1 0 0 0 0 1 0 0 0 0.49 0"/>
<feBlend mode="overlay" in2="effect1_innerShadow_52_2" result="effect2_innerShadow_52_2"/>
</filter>
<filter id="filter4_ii_52_2" x="294" y="31" width="16" height="13" filterUnits="userSpaceOnUse" color-interpolation-filters="sRGB">
<feFlood flood-opacity="0" result="BackgroundImageFix"/>
<feBlend mode="normal" in="SourceGraphic" in2="BackgroundImageFix" result="shape"/>
<feColorMatrix in="SourceAlpha" type="matrix" values="0 0 0 0 0 0 0 0 0 0 0 0 0 0 0 0 0 0 127 0" result="hardAlpha"/>
<feOffset/>
<feGaussianBlur stdDeviation="0.55"/>
<feComposite in2="hardAlpha" operator="arithmetic" k2="-1" k3="1"/>
<feColorMatrix type="matrix" values="0 0 0 0 0 0 0 0 0 0 0 0 0 0 0 0 0 0 0.78 0"/>
<feBlend mode="overlay" in2="shape" result="effect1_innerShadow_52_2"/>
<feColorMatrix in="SourceAlpha" type="matrix" values="0 0 0 0 0 0 0 0 0 0 0 0 0 0 0 0 0 0 127 0" result="hardAlpha"/>
<feOffset/>
<feGaussianBlur stdDeviation="0.45"/>
<feComposite in2="hardAlpha" operator="arithmetic" k2="-1" k3="1"/>
<feColorMatrix type="matrix" values="0 0 0 0 1 0 0 0 0 1 0 0 0 0 1 0 0 0 0.49 0"/>
<feBlend mode="overlay" in2="effect1_innerShadow_52_2" result="effect2_innerShadow_52_2"/>
</filter>
<filter id="filter5_ii_52_2" x="217.554" y="-10.2267" width="73.9729" height="119.278" filterUnits="userSpaceOnUse" color-interpolation-filters="sRGB">
<feFlood flood-opacity="0" result="BackgroundImageFix"/>
<feBlend mode="normal" in="SourceGraphic" in2="BackgroundImageFix" result="shape"/>
<feColorMatrix in="SourceAlpha" type="matrix" values="0 0 0 0 0 0 0 0 0 0 0 0 0 0 0 0 0 0 127 0" result="hardAlpha"/>
<feOffset dy="-22.0406"/>
<feGaussianBlur stdDeviation="26.5"/>
<feComposite in2="hardAlpha" operator="arithmetic" k2="-1" k3="1"/>
<feColorMatrix type="matrix" values="0 0 0 0 0 0 0 0 0 0 0 0 0 0 0 0 0 0 0.45 0"/>
<feBlend mode="overlay" in2="shape" result="effect1_innerShadow_52_2"/>
<feColorMatrix in="SourceAlpha" type="matrix" values="0 0 0 0 0 0 0 0 0 0 0 0 0 0 0 0 0 0 127 0" result="hardAlpha"/>
<feOffset dy="22.6889"/>
<feGaussianBlur stdDeviation="13.9699"/>
<feComposite in2="hardAlpha" operator="arithmetic" k2="-1" k3="1"/>
<feColorMatrix type="matrix" values="0 0 0 0 1 0 0 0 0 1 0 0 0 0 1 0 0 0 1 0"/>
<feBlend mode="overlay" in2="effect1_innerShadow_52_2" result="effect2_innerShadow_52_2"/>
</filter>
<filter id="filter6_ii_52_2" x="218.192" y="-13.0033" width="73.2046" height="119.278" filterUnits="userSpaceOnUse" color-interpolation-filters="sRGB">
<feFlood flood-opacity="0" result="BackgroundImageFix"/>
<feBlend mode="normal" in="SourceGraphic" in2="BackgroundImageFix" result="shape"/>
<feColorMatrix in="SourceAlpha" type="matrix" values="0 0 0 0 0 0 0 0 0 0 0 0 0 0 0 0 0 0 127 0" result="hardAlpha"/>
<feOffset dy="-22.0406"/>
<feGaussianBlur stdDeviation="26.5"/>
<feComposite in2="hardAlpha" operator="arithmetic" k2="-1" k3="1"/>
<feColorMatrix type="matrix" values="0 0 0 0 0 0 0 0 0 0 0 0 0 0 0 0 0 0 0.45 0"/>
<feBlend mode="overlay" in2="shape" result="effect1_innerShadow_52_2"/>
<feColorMatrix in="SourceAlpha" type="matrix" values="0 0 0 0 0 0 0 0 0 0 0 0 0 0 0 0 0 0 127 0" result="hardAlpha"/>
<feOffset dy="22.6889"/>
<feGaussianBlur stdDeviation="13.9699"/>
<feComposite in2="hardAlpha" operator="arithmetic" k2="-1" k3="1"/>
<feColorMatrix type="matrix" values="0 0 0 0 1 0 0 0 0 1 0 0 0 0 1 0 0 0 1 0"/>
<feBlend mode="overlay" in2="effect1_innerShadow_52_2" result="effect2_innerShadow_52_2"/>
</filter>
<radialGradient id="paint0_radial_52_2" cx="0" cy="0" r="1" gradientUnits="userSpaceOnUse" gradientTransform="translate(278 68.1379) rotate(-158.117) scale(231.156 525.887)">
<stop stop-color="#4B45FF"/>
<stop offset="1" stop-opacity="0"/>
</radialGradient>
<radialGradient id="paint1_radial_52_2" cx="0" cy="0" r="1" gradientUnits="userSpaceOnUse" gradientTransform="translate(231.5 2.29311) rotate(-150.682) scale(32.1131 129.306)">
<stop stop-color="#4B45FF"/>
<stop offset="1" stop-opacity="0"/>
</radialGradient>
<radialGradient id="paint2_radial_52_2" cx="0" cy="0" r="1" gradientUnits="userSpaceOnUse" gradientTransform="translate(299.837 64.5752) rotate(147.922) scale(22.1062 18.9728)">
<stop offset="0.169422" stop-color="#172477"/>
<stop offset="1" stop-color="#2C3876"/>
</radialGradient>
<linearGradient id="paint3_linear_52_2" x1="286.194" y1="74.5657" x2="303.859" y2="66.9276" gradientUnits="userSpaceOnUse">
<stop stop-color="white" stop-opacity="0"/>
<stop offset="0.58324" stop-color="white"/>
<stop offset="1" stop-color="white" stop-opacity="0"/>
</linearGradient>
<linearGradient id="paint4_linear_52_2" x1="291.208" y1="51.7126" x2="294.889" y2="75.4272" gradientUnits="userSpaceOnUse">
<stop stop-color="white"/>
<stop offset="1" stop-color="#999999" stop-opacity="0"/>
</linearGradient>
<radialGradient id="paint5_radial_52_2" cx="0" cy="0" r="1" gradientUnits="userSpaceOnUse" gradientTransform="translate(300.487 63.5382) rotate(147.922) scale(22.1062 18.9728)">
<stop offset="0.169422" stop-color="#2F4BFF"/>
<stop offset="1" stop-color="#758CFF"/>
</radialGradient>
<linearGradient id="paint6_linear_52_2" x1="286.843" y1="73.5286" x2="304.508" y2="65.8905" gradientUnits="userSpaceOnUse">
<stop stop-color="white" stop-opacity="0"/>
<stop offset="0.58324" stop-color="white"/>
<stop offset="1" stop-color="white" stop-opacity="0"/>
</linearGradient>
<linearGradient id="paint7_linear_52_2" x1="291.857" y1="50.6755" x2="295.538" y2="74.3901" gradientUnits="userSpaceOnUse">
<stop stop-color="white"/>
<stop offset="1" stop-color="#999999" stop-opacity="0"/>
</linearGradient>
<linearGradient id="paint8_linear_52_2" x1="302" y1="36" x2="302" y2="66" gradientUnits="userSpaceOnUse">
<stop stop-color="white"/>
<stop offset="1" stop-color="#4C80BB"/>
</linearGradient>
<linearGradient id="paint9_linear_52_2" x1="310" y1="37.5" x2="294" y2="37.5" gradientUnits="userSpaceOnUse">
<stop stop-color="#2C8EFF"/>
<stop offset="1" stop-color="#005AC0"/>
</linearGradient>
<radialGradient id="paint10_radial_52_2" cx="0" cy="0" r="1" gradientUnits="userSpaceOnUse" gradientTransform="translate(270.001 32.3847) rotate(115.881) scale(50.1652 43.0546)">
<stop offset="0.169422" stop-color="#172477"/>
<stop offset="1" stop-color="#2C3876"/>
</radialGradient>
<linearGradient id="paint11_linear_52_2" x1="255.785" y1="68.0275" x2="280.569" y2="32.0681" gradientUnits="userSpaceOnUse">
<stop stop-color="white" stop-opacity="0"/>
<stop offset="0.58324" stop-color="white"/>
<stop offset="1" stop-color="white" stop-opacity="0"/>
</linearGradient>
<linearGradient id="paint12_linear_52_2" x1="237.915" y1="18.0316" x2="273.547" y2="59.2167" gradientUnits="userSpaceOnUse">
<stop stop-color="white"/>
<stop offset="1" stop-color="#999999" stop-opacity="0"/>
</linearGradient>
<radialGradient id="paint13_radial_52_2" cx="0" cy="0" r="1" gradientUnits="userSpaceOnUse" gradientTransform="translate(270.001 29.6082) rotate(115.881) scale(50.1652 43.0546)">
<stop offset="0.169422" stop-color="#2F4BFF"/>
<stop offset="1" stop-color="#758CFF"/>
</radialGradient>
<linearGradient id="paint14_linear_52_2" x1="255.785" y1="65.251" x2="280.569" y2="29.2916" gradientUnits="userSpaceOnUse">
<stop stop-color="white" stop-opacity="0"/>
<stop offset="0.58324" stop-color="white"/>
<stop offset="1" stop-color="white" stop-opacity="0"/>
</linearGradient>
<linearGradient id="paint15_linear_52_2" x1="237.915" y1="15.2551" x2="273.547" y2="56.4402" gradientUnits="userSpaceOnUse">
<stop stop-color="white"/>
<stop offset="1" stop-color="#999999" stop-opacity="0"/>
</linearGradient>
<clipPath id="clip0_52_2">
<rect width="340" height="76" rx="8" fill="white"/>
</clipPath>
</defs>
</svg>
