<svg width="20" height="21" viewBox="0 0 20 21" fill="none" xmlns="http://www.w3.org/2000/svg">
<g filter="url(#filter0_i_42_2920)">
<path d="M19.1555 19.9811C19.816 19.8325 20.2108 19.086 19.8818 18.4479C19.1567 17.044 18.0153 15.8092 16.5555 14.8689C14.6747 13.6574 12.369 13 10 13C7.63096 13 5.32533 13.6561 3.44446 14.8689C1.98475 15.8092 0.843301 17.044 0.118231 18.4479C-0.210802 19.086 0.184038 19.8325 0.844498 19.9811C6.88289 21.3396 13.1159 21.3396 19.1543 19.9811" fill="url(#paint0_linear_42_2920)"/>
</g>
<g filter="url(#filter1_i_42_2920)">
<path d="M10 12C13.3137 12 16 9.31371 16 6C16 2.68629 13.3137 0 10 0C6.68629 0 4 2.68629 4 6C4 9.31371 6.68629 12 10 12Z" fill="url(#paint1_linear_42_2920)"/>
</g>
<defs>
<filter id="filter0_i_42_2920" x="0" y="12" width="20" height="9" filterUnits="userSpaceOnUse" color-interpolation-filters="sRGB">
<feFlood flood-opacity="0" result="BackgroundImageFix"/>
<feBlend mode="normal" in="SourceGraphic" in2="BackgroundImageFix" result="shape"/>
<feColorMatrix in="SourceAlpha" type="matrix" values="0 0 0 0 0 0 0 0 0 0 0 0 0 0 0 0 0 0 127 0" result="hardAlpha"/>
<feOffset dy="-1"/>
<feGaussianBlur stdDeviation="0.85"/>
<feComposite in2="hardAlpha" operator="arithmetic" k2="-1" k3="1"/>
<feColorMatrix type="matrix" values="0 0 0 0 1 0 0 0 0 1 0 0 0 0 1 0 0 0 0.69 0"/>
<feBlend mode="overlay" in2="shape" result="effect1_innerShadow_42_2920"/>
</filter>
<filter id="filter1_i_42_2920" x="4" y="-1" width="12" height="13" filterUnits="userSpaceOnUse" color-interpolation-filters="sRGB">
<feFlood flood-opacity="0" result="BackgroundImageFix"/>
<feBlend mode="normal" in="SourceGraphic" in2="BackgroundImageFix" result="shape"/>
<feColorMatrix in="SourceAlpha" type="matrix" values="0 0 0 0 0 0 0 0 0 0 0 0 0 0 0 0 0 0 127 0" result="hardAlpha"/>
<feOffset dy="-1"/>
<feGaussianBlur stdDeviation="0.85"/>
<feComposite in2="hardAlpha" operator="arithmetic" k2="-1" k3="1"/>
<feColorMatrix type="matrix" values="0 0 0 0 1 0 0 0 0 1 0 0 0 0 1 0 0 0 0.69 0"/>
<feBlend mode="overlay" in2="shape" result="effect1_innerShadow_42_2920"/>
</filter>
<linearGradient id="paint0_linear_42_2920" x1="9.54256" y1="15.9463" x2="9.6861" y2="24.472" gradientUnits="userSpaceOnUse">
<stop stop-color="white"/>
<stop offset="1" stop-color="#1271FF"/>
</linearGradient>
<linearGradient id="paint1_linear_42_2920" x1="9.72554" y1="4.41948" x2="10.263" y2="17.1889" gradientUnits="userSpaceOnUse">
<stop stop-color="white"/>
<stop offset="1" stop-color="#1271FF"/>
</linearGradient>
</defs>
</svg>
