<svg width="20" height="21" viewBox="0 0 20 21" fill="none" xmlns="http://www.w3.org/2000/svg">
<path d="M19.1555 19.9811C19.816 19.8325 20.2108 19.086 19.8818 18.4479C19.1567 17.044 18.0153 15.8092 16.5555 14.8689C14.6747 13.6574 12.369 13 10 13C7.63096 13 5.32533 13.6561 3.44446 14.8689C1.98475 15.8092 0.843301 17.044 0.118231 18.4479C-0.210802 19.086 0.184038 19.8325 0.844498 19.9811C6.88289 21.3396 13.1159 21.3396 19.1543 19.9811" fill="#3D404F"/>
<path d="M10 12C13.3137 12 16 9.31371 16 6C16 2.68629 13.3137 0 10 0C6.68629 0 4 2.68629 4 6C4 9.31371 6.68629 12 10 12Z" fill="#3D404F"/>
</svg>
