<svg width="19" height="20" viewBox="0 0 19 20" fill="none" xmlns="http://www.w3.org/2000/svg">
<path fill-rule="evenodd" clip-rule="evenodd" d="M11.2791 0.152C10.9091 -4.47035e-08 10.4391 0 9.50007 0C8.56107 0 8.09207 -4.47035e-08 7.72107 0.152C7.47696 0.251745 7.25498 0.398782 7.06792 0.584647C6.88085 0.770512 6.73239 0.991536 6.63107 1.235C6.53707 1.458 6.50107 1.719 6.48607 2.098C6.47893 2.3725 6.40214 2.64068 6.2629 2.87736C6.12366 3.11403 5.92654 3.31142 5.69007 3.451C5.44882 3.5851 5.17762 3.65615 4.9016 3.65754C4.62558 3.65894 4.35367 3.59065 4.11107 3.459C3.77307 3.281 3.52807 3.183 3.28607 3.151C2.75665 3.08192 2.22134 3.2242 1.79607 3.547C1.47807 3.789 1.24307 4.193 0.774071 5C0.304071 5.807 0.0700714 6.21 0.0170714 6.605C-0.0529286 7.131 0.0910715 7.663 0.417071 8.084C0.565071 8.276 0.774072 8.437 1.09707 8.639C1.57407 8.936 1.88007 9.442 1.88007 10C1.88007 10.558 1.57407 11.064 1.09807 11.36C0.774071 11.563 0.565071 11.724 0.416071 11.916C0.255638 12.1242 0.137821 12.362 0.0693571 12.6158C0.000893369 12.8696 -0.0168739 13.1343 0.0170714 13.395C0.0700714 13.789 0.304071 14.193 0.774071 15C1.24407 15.807 1.47807 16.21 1.79607 16.453C2.22007 16.776 2.75607 16.918 3.28607 16.849C3.52807 16.817 3.77307 16.719 4.11107 16.541C4.3538 16.4092 4.62589 16.3408 4.9021 16.3422C5.17831 16.3436 5.44969 16.4147 5.69107 16.549C6.17707 16.829 6.46507 17.344 6.48607 17.902C6.50107 18.282 6.53707 18.542 6.63107 18.765C6.83507 19.255 7.22707 19.645 7.72107 19.848C8.09107 20 8.56107 20 9.50007 20C10.4391 20 10.9091 20 11.2791 19.848C11.5232 19.7483 11.7452 19.6012 11.9322 19.4154C12.1193 19.2295 12.2678 19.0085 12.3691 18.765C12.4631 18.542 12.4991 18.282 12.5141 17.902C12.5341 17.344 12.8231 16.828 13.3101 16.549C13.5513 16.4149 13.8225 16.3439 14.0985 16.3425C14.3746 16.3411 14.6465 16.4093 14.8891 16.541C15.2271 16.719 15.4721 16.817 15.7141 16.849C16.2441 16.919 16.7801 16.776 17.2041 16.453C17.5221 16.211 17.7571 15.807 18.2261 15C18.6961 14.193 18.9301 13.79 18.9831 13.395C19.0169 13.1343 18.9989 12.8695 18.9303 12.6157C18.8617 12.3619 18.7437 12.1241 18.5831 11.916C18.4351 11.724 18.2261 11.563 17.9031 11.361C17.4261 11.064 17.1201 10.558 17.1201 10C17.1201 9.442 17.4261 8.936 17.9021 8.64C18.2261 8.437 18.4351 8.276 18.5841 8.084C18.7445 7.87579 18.8623 7.63799 18.9308 7.38422C18.9992 7.13044 19.017 6.86565 18.9831 6.605C18.9301 6.211 18.6961 5.807 18.2261 5C17.7561 4.193 17.5221 3.79 17.2041 3.547C16.7788 3.2242 16.2435 3.08192 15.7141 3.151C15.4721 3.183 15.2271 3.281 14.8891 3.459C14.6463 3.59083 14.3743 3.65922 14.098 3.65782C13.8218 3.65642 13.5504 3.58528 13.3091 3.451C13.0728 3.3113 12.8759 3.11385 12.7368 2.87719C12.5977 2.64052 12.5211 2.37241 12.5141 2.098C12.4991 1.718 12.4631 1.458 12.3691 1.235C12.2678 0.991536 12.1193 0.770512 11.9322 0.584647C11.7452 0.398782 11.5232 0.251745 11.2791 0.152ZM9.50007 13C11.1701 13 12.5231 11.657 12.5231 10C12.5231 8.343 11.1691 7 9.50007 7C7.83107 7 6.47707 8.343 6.47707 10C6.47707 11.657 7.83107 13 9.50007 13Z" fill="#3D404F"/>
</svg>
